{
.appVersion = "3241";
.formatVersion = 3;
DisplayStrings = (
"b//acc

Accelerationism
and the Bahá’í Faith  

Eli Heuer 

",
"ABCDEFGHIJKLMNOPQRSTUVWXYZ 
abcdefghijklmnopqrcstuvwxyz
1234567890  
Font.Garden 
Basics
Northwest Traditions
Open Design Now 
Programming with GNU Software
Die GNU Typographie
Designing the User Interface
Finite Mathematics with Applications
Information Processing
THE OASIS OF MATISSE

Creative Partner for Founders.
Brand, Product and Campaign. 
Design, Engineering and Marketing.

Rena Regular 
Rone 
  
",
"Rena  

HHHOOOHHHOOO",
"Epistle to the Son of the Wolf

Northwest Traditions

Finite Mathematics with Applications

Designing the User Interface
Programming with GNU Software

Excerpts from the Persian Bayán

The Code Book: The Science of Secrecy
from Ancient Egypt to Quantum Cryptography

What is Mathematics:
An Elementary Approach to Ideas and Methods

Gold and Glory in Times of Thought-Chaos

",
"Commentary on the
Sūrah of the Sun      

In the Name of God, the Merciful, the Compassionate.

Praise be to God, Who hath set the dove of eloquence, perched among the twigs of the tree of explanation, to weaving her divers melodies.

Her lyrics tell of how there is no God but God, Who hath brought new beings into existence, and created the contingent world by means of His Primal Will, whereby He hath caused to exist all that was and yet shall be.

May God be glorified, Who hath embellished the heavens of reality with the sun of metaphorical meanings and mystical insight, as",
"github.com//fontgarden//rena

Open Font License OFL v1.1

Rena Regular: opsz 40

Pre-Alpha: a340aae 





abcdefghIiiijklmnop
qrstuvwxyz.,:;!? 
ABCDEFGHIJKLMN
OPQRSTUVWXYZ
1234567890  


nonono nnnnnn oooooo ononon
momomo mmmmmm oooooo omomom
",
o,
n,
not,
I,
H,
"/sheen-ar.init",
m,
i,
U,
"ب",
"يا باب الباب",
"/alef-ar.fina"
);
axes = (
{
name = "Optical size";
tag = opsz;
}
);
customParameters = (
{
name = "Axis Mappings";
value = {
opsz = {
14 = 14;
144 = 144;
};

glyphs = (
{
color = 5;
glyphname = A;
kernLeft = A;
kernRight = A;
lastChange = "2024-06-17 05:39:18 +0000";
layers = (
{
anchors = (
{
name = bottom;
pos = (384,0);
},
{
name = top;
pos = (384,800);
}
);
layerId = m01;
shapes = (
{
closed = 1;
nodes = (
(108,0,l),
(124,16,l),
(200,216,l),
(216,232,l),
(552,232,l),
(568,216,l),
(644,16,l),
(660,0,l),
(712,0,l),
(728,16,l),
(728,104,l),
(464,784,l),
(444,800,l),
(320,800,l),
(304,784,l),
(40,104,l),
(40,16,l),
(56,0,l)
);
},
{
closed = 1;
nodes = (
(244,340,l),
(376,696,l),
(392,696,l),
(524,340,l),
(512,328,l),
(256,328,l)
);
}
);
width = 768;
},
{
anchors = (
{
name = bottom;
pos = (360,0);
},
{
name = top;
pos = (360,800);
}
);
layerId = m002;
shapes = (
{
closed = 1;
nodes = (
(84,0,l),
(100,16,l),
(176,216,l),
(192,232,l),
(528,232,l),
(544,216,l),
(620,16,l),
(636,0,l),
(688,0,l),
(704,16,l),
(704,104,l),
(440,784,l),
(420,800,l),
(296,800,l),
(280,784,l),
(16,104,l),
(16,16,l),
(32,0,l)
);
},
{
closed = 1;
nodes = (
(220,340,l),
(352,696,l),
(368,696,l),
(500,340,l),
(488,328,l),
(232,328,l)
);
}
);
width = 720;
}
);
unicode = 65;
},
{
color = 5;
glyphname = B;
kernLeft = H;
kernRight = B;
lastChange = "2024-06-09 16:12:29 +0000";
layers = (
{
layerId = m01;
shapes = (
{
closed = 1;
nodes = (
(448,0,ls),
(604,0,o),
(704,76,o),
(704,232,cs),
(704,336,o),
(636,396,o),
(568,420,c),
(568,436,l),
(624,464,o),
(668,508,o),
(668,596,cs),
(668,736,o),
(552,800,o),
(412,800,cs),
(80,800,l),
(64,784,l),
(64,16,l),
(80,0,l)
);
},
{
closed = 1;
nodes = (
(176,476,l),
(176,692,l),
(188,704,l),
(408,704,ls),
(504,704,o),
(552,672,o),
(552,584,cs),
(552,496,o),
(504,464,o),
(408,464,cs),
(188,464,l)
);
},
{
closed = 1;
nodes = (
(176,108,l),
(176,356,l),
(188,368,l),
(448,368,ls),
(540,368,o),
(588,328,o),
(588,232,cs),
(588,136,o),
(540,96,o),
(448,96,cs),
(188,96,l)
);
}
);
width = 736;
},
{
layerId = m002;
shapes = (
{
closed = 1;
nodes = (
(448,0,ls),
(604,0,o),
(704,76,o),
(704,232,cs),
(704,336,o),
(636,396,o),
(568,420,c),
(568,436,l),
(624,464,o),
(668,508,o),
(668,596,cs),
(668,736,o),
(552,800,o),
(412,800,cs),
(80,800,l),
(64,784,l),
(64,16,l),
(80,0,l)
);
},
{
closed = 1;
nodes = (
(176,476,l),
(176,692,l),
(188,704,l),
(408,704,ls),
(504,704,o),
(552,672,o),
(552,584,cs),
(552,496,o),
(504,464,o),
(408,464,cs),
(188,464,l)
);
},
{
closed = 1;
nodes = (
(176,108,l),
(176,356,l),
(188,368,l),
(448,368,ls),
(540,368,o),
(588,328,o),
(588,232,cs),
(588,136,o),
(540,96,o),
(448,96,cs),
(188,96,l)
);
}
);
width = 736;
}
);
unicode = 66;
},
{
color = 5;
glyphname = C;
kernLeft = O;
kernRight = C;
lastChange = "2024-06-15 23:14:17 +0000";
layers = (
{
anchors = (
{
name = bottom;
pos = (420,0);
},
{
name = top;
pos = (424,800);
}
);
layerId = m01;
shapes = (
{
closed = 1;
nodes = (
(648,-16,o),
(744,136,o),
(760,268,c),
(744,284,l),
(664,284,l),
(648,268,l),
(632,176,o),
(572,84,o),
(424,84,cs),
(256,84,o),
(180,216,o),
(180,400,cs),
(180,584,o),
(256,716,o),
(424,716,cs),
(572,716,o),
(624,656,o),
(644,576,c),
(660,560,l),
(740,560,l),
(756,576,l),
(740,712,o),
(640,816,o),
(424,816,cs),
(192,816,o),
(64,648,o),
(64,400,cs),
(64,152,o),
(192,-16,o),
(424,-16,cs)
);
}
);
width = 820;
},
{
associatedMasterId = m01;
layerId = "64175680-2DAC-4C0C-AE61-49F6460695C3";
name = "Mar 25, 24 at 23:29";
shapes = (
{
closed = 1;
nodes = (
(664,-16,o),
(792,152,o),
(792,400,cs),
(792,648,o),
(664,816,o),
(416,816,cs),
(168,816,o),
(40,648,o),
(40,400,cs),
(40,152,o),
(168,-16,o),
(416,-16,cs)
);
},
{
closed = 1;
nodes = (
(232,88,o),
(152,216,o),
(152,400,cs),
(152,584,o),
(232,712,o),
(416,712,cs),
(600,712,o),
(680,584,o),
(680,400,cs),
(680,216,o),
(600,88,o),
(416,88,cs)
);
}
);
width = 832;
},
{
anchors = (
{
name = bottom;
pos = (388,0);
},
{
name = top;
pos = (392,800);
}
);
layerId = m002;
shapes = (
{
closed = 1;
nodes = (
(616,-16,o),
(712,136,o),
(728,268,c),
(712,284,l),
(632,284,l),
(616,268,l),
(600,176,o),
(540,84,o),
(392,84,cs),
(224,84,o),
(148,216,o),
(148,400,cs),
(148,584,o),
(224,716,o),
(392,716,cs),
(540,716,o),
(592,656,o),
(612,576,c),
(628,560,l),
(708,560,l),
(724,576,l),
(708,712,o),
(608,816,o),
(392,816,cs),
(160,816,o),
(32,648,o),
(32,400,cs),
(32,152,o),
(160,-16,o),
(392,-16,cs)
);
}
);
width = 744;
},
{
associatedMasterId = m002;
layerId = "CA9A74CC-DEFC-4913-90A3-D0844CC6A59B";
name = "Mar 25, 24 at 23:29";
shapes = (
{
closed = 1;
nodes = (
(664,-16,o),
(792,152,o),
(792,400,cs),
(792,648,o),
(664,816,o),
(416,816,cs),
(168,816,o),
(40,648,o),
(40,400,cs),
(40,152,o),
(168,-16,o),
(416,-16,cs)
);
},
{
closed = 1;
nodes = (
(232,88,o),
(152,216,o),
(152,400,cs),
(152,584,o),
(232,712,o),
(416,712,cs),
(600,712,o),
(680,584,o),
(680,400,cs),
(680,216,o),
(600,88,o),
(416,88,cs)
);
}
);
width = 832;
}
);
unicode = 67;
},
{
color = 5;
glyphname = D;
kernLeft = H;
kernRight = O;
lastChange = "2024-06-15 23:42:35 +0000";
layers = (
{
anchors = (
{
name = bottom;
pos = (320,0);
},
{
name = center;
pos = (348,400);
},
{
name = top;
pos = (320,800);
}
);
layerId = m01;
shapes = (
{
closed = 1;
nodes = (
(356,0,ls),
(596,0,o),
(712,160,o),
(712,400,cs),
(712,640,o),
(596,800,o),
(356,800,cs),
(80,800,l),
(64,784,l),
(64,16,l),
(80,0,l)
);
},
{
closed = 1;
nodes = (
(176,108,l),
(176,692,l),
(188,704,l),
(320,704,ls),
(516,704,o),
(596,596,o),
(596,400,cs),
(596,208,o),
(516,96,o),
(320,96,cs),
(188,96,l)
);
}
);
width = 752;
},
{
anchors = (
{
name = bottom;
pos = (320,0);
},
{
name = center;
pos = (348,400);
},
{
name = top;
pos = (320,800);
}
);
layerId = m002;
shapes = (
{
closed = 1;
nodes = (
(356,0,ls),
(596,0,o),
(712,160,o),
(712,400,cs),
(712,640,o),
(596,800,o),
(356,800,cs),
(80,800,l),
(64,784,l),
(64,16,l),
(80,0,l)
);
},
{
closed = 1;
nodes = (
(176,108,l),
(176,692,l),
(188,704,l),
(320,704,ls),
(516,704,o),
(596,596,o),
(596,400,cs),
(596,208,o),
(516,96,o),
(320,96,cs),
(188,96,l)
);
}
);
width = 752;
}
);
unicode = 68;
},
{
color = 5;
glyphname = E;
kernLeft = H;
kernRight = E;
lastChange = "2024-06-15 23:44:17 +0000";
layers = (
{
anchors = (
{
name = bottom;
pos = (296,0);
},
{
name = top;
pos = (296,800);
}
);
layerId = m01;
shapes = (
{
closed = 1;
nodes = (
(560,0,l),
(576,16,l),
(576,80,l),
(560,96,l),
(160,96,l),
(144,112,l),
(144,352,l),
(160,368,l),
(536,368,l),
(552,384,l),
(552,448,l),
(536,464,l),
(160,464,l),
(144,480,l),
(144,688,l),
(160,704,l),
(560,704,l),
(576,720,l),
(576,784,l),
(560,800,l),
(48,800,l),
(32,784,l),
(32,16,l),
(48,0,l)
);
}
);
width = 592;
},
{
anchors = (
{
name = bottom;
pos = (296,0);
},
{
name = top;
pos = (296,800);
}
);
layerId = m002;
shapes = (
{
closed = 1;
nodes = (
(560,0,l),
(576,16,l),
(576,80,l),
(560,96,l),
(160,96,l),
(144,112,l),
(144,352,l),
(160,368,l),
(536,368,l),
(552,384,l),
(552,448,l),
(536,464,l),
(160,464,l),
(144,480,l),
(144,688,l),
(160,704,l),
(560,704,l),
(576,720,l),
(576,784,l),
(560,800,l),
(48,800,l),
(32,784,l),
(32,16,l),
(48,0,l)
);
}
);
width = 592;
}
);
unicode = 69;
},
{
color = 5;
glyphname = F;
kernLeft = H;
kernRight = F;
lastChange = "2024-06-17 02:31:48 +0000";
layers = (
{
layerId = m01;
shapes = (
{
closed = 1;
nodes = (
(192,0,l),
(208,16,l),
(208,344,l),
(220,356,l),
(536,356,l),
(552,372,l),
(552,436,l),
(536,452,l),
(220,452,l),
(208,464,l),
(208,692,l),
(220,704,l),
(600,704,l),
(616,720,l),
(616,784,l),
(600,800,l),
(112,800,l),
(96,784,l),
(96,16,l),
(112,0,l)
);
}
);
width = 656;
},
{
layerId = m002;
shapes = (
{
closed = 1;
nodes = (
(160,0,l),
(176,16,l),
(176,344,l),
(188,356,l),
(504,356,l),
(520,372,l),
(520,436,l),
(504,452,l),
(188,452,l),
(176,464,l),
(176,692,l),
(188,704,l),
(568,704,l),
(584,720,l),
(584,784,l),
(568,800,l),
(80,800,l),
(64,784,l),
(64,16,l),
(80,0,l)
);
}
);
width = 616;
}
);
unicode = 70;
},
{
color = 5;
glyphname = G;
kernLeft = G;
kernRight = G;
lastChange = "2024-06-15 23:50:33 +0000";
layers = (
{
anchors = (
{
name = bottom;
pos = (440,0);
},
{
name = top;
pos = (440,800);
}
);
layerId = m01;
shapes = (
{
closed = 1;
nodes = (
(548,-16,o),
(636,44,o),
(692,128,c),
(708,128,l),
(708,16,l),
(724,0,l),
(784,0,l),
(800,16,l),
(800,416,l),
(784,432,l),
(472,432,l),
(456,416,l),
(456,352,l),
(472,336,l),
(684,336,l),
(696,324,l),
(696,212,o),
(608,84,o),
(440,84,cs),
(256,84,o),
(180,216,o),
(180,400,cs),
(180,584,o),
(256,716,o),
(440,716,cs),
(584,716,o),
(664,640,o),
(676,576,c),
(692,560,l),
(768,560,l),
(784,576,l),
(784,688,o),
(676,816,o),
(440,816,cs),
(200,816,o),
(64,640,o),
(64,400,cs),
(64,152,o),
(196,-16,o),
(428,-16,cs)
);
}
);
width = 864;
},
{
associatedMasterId = m01;
layerId = "51D1C8E2-FE34-4DA9-B6DB-6F3F79AC0821";
name = "Mar 13, 24 at 21:47";
shapes = (
{
closed = 1;
nodes = (
(664,-16,o),
(792,152,o),
(792,400,cs),
(792,648,o),
(664,816,o),
(416,816,cs),
(168,816,o),
(40,648,o),
(40,400,cs),
(40,152,o),
(168,-16,o),
(416,-16,cs)
);
},
{
closed = 1;
nodes = (
(232,88,o),
(152,216,o),
(152,400,cs),
(152,584,o),
(232,712,o),
(416,712,cs),
(600,712,o),
(680,584,o),
(680,400,cs),
(680,216,o),
(600,88,o),
(416,88,cs)
);
}
);
visible = 1;
width = 780;
},
{
anchors = (
{
name = bottom;
pos = (416,0);
},
{
name = top;
pos = (416,800);
}
);
layerId = m002;
shapes = (
{
closed = 1;
nodes = (
(524,-16,o),
(612,44,o),
(668,128,c),
(684,128,l),
(684,16,l),
(700,0,l),
(760,0,l),
(776,16,l),
(776,416,l),
(760,432,l),
(448,432,l),
(432,416,l),
(432,352,l),
(448,336,l),
(660,336,l),
(672,324,l),
(672,212,o),
(584,84,o),
(416,84,cs),
(232,84,o),
(156,216,o),
(156,400,cs),
(156,584,o),
(232,716,o),
(416,716,cs),
(560,716,o),
(640,640,o),
(652,576,c),
(668,560,l),
(744,560,l),
(760,576,l),
(760,688,o),
(652,816,o),
(416,816,cs),
(176,816,o),
(40,640,o),
(40,400,cs),
(40,152,o),
(172,-16,o),
(404,-16,cs)
);
}
);
width = 816;
},
{
associatedMasterId = m002;
layerId = "63F90547-29FE-4CEC-9B60-D692042BC347";
name = "Mar 13, 24 at 21:47";
shapes = (
{
closed = 1;
nodes = (
(664,-16,o),
(792,152,o),
(792,400,cs),
(792,648,o),
(664,816,o),
(416,816,cs),
(168,816,o),
(40,648,o),
(40,400,cs),
(40,152,o),
(168,-16,o),
(416,-16,cs)
);
},
{
closed = 1;
nodes = (
(232,88,o),
(152,216,o),
(152,400,cs),
(152,584,o),
(232,712,o),
(416,712,cs),
(600,712,o),
(680,584,o),
(680,400,cs),
(680,216,o),
(600,88,o),
(416,88,cs)
);
}
);
width = 780;
}
);
unicode = 71;
},
{
color = 5;
glyphname = H;
kernLeft = H;
kernRight = H;
lastChange = "2024-06-11 16:57:40 +0000";
layers = (
{
layerId = m01;
shapes = (
{
closed = 1;
nodes = (
(184,0,l),
(200,16,l),
(200,360,l),
(212,372,l),
(600,372,l),
(612,360,l),
(612,16,l),
(628,0,l),
(708,0,l),
(724,16,l),
(724,784,l),
(708,800,l),
(628,800,l),
(612,784,l),
(612,480,l),
(600,468,l),
(212,468,l),
(200,480,l),
(200,784,l),
(184,800,l),
(104,800,l),
(88,784,l),
(88,16,l),
(104,0,l)
);
}
);
width = 812;
},
{
layerId = m002;
shapes = (
{
closed = 1;
nodes = (
(128,0,l),
(144,16,l),
(144,360,l),
(156,372,l),
(544,372,l),
(556,360,l),
(556,16,l),
(572,0,l),
(652,0,l),
(668,16,l),
(668,784,l),
(652,800,l),
(572,800,l),
(556,784,l),
(556,480,l),
(544,468,l),
(156,468,l),
(144,480,l),
(144,784,l),
(128,800,l),
(48,800,l),
(32,784,l),
(32,16,l),
(48,0,l)
);
}
);
width = 700;
}
);
unicode = 72;
},
{
color = 5;
glyphname = I;
lastChange = "2024-06-21 17:39:38 +0000";
layers = (
{
anchors = (
{
name = bottom;
pos = (144,0);
},
{
name = top;
pos = (144,800);
}
);
layerId = m01;
shapes = (
{
closed = 1;
nodes = (
(184,0,l),
(200,16,l),
(200,784,l),
(184,800,l),
(104,800,l),
(88,784,l),
(88,16,l),
(104,0,l)
);
}
);
width = 288;
},
{
anchors = (
{
name = bottom;
pos = (84,0);
},
{
name = top;
pos = (84,800);
}
);
layerId = m002;
shapes = (
{
closed = 1;
nodes = (
(124,0,l),
(140,16,l),
(140,784,l),
(124,800,l),
(44,800,l),
(28,784,l),
(28,16,l),
(44,0,l)
);
}
);
width = 168;
}
);
unicode = 73;
},
{
color = 5;
glyphname = J;
lastChange = "2024-06-09 16:12:29 +0000";
layers = (
{
layerId = m01;
shapes = (
{
closed = 1;
nodes = (
(400,-16,o),
(480,72,o),
(480,224,cs),
(480,784,l),
(464,800,l),
(384,800,l),
(368,784,l),
(368,224,ls),
(368,140,o),
(332,84,o),
(248,84,cs),
(164,84,o),
(128,140,o),
(128,224,cs),
(128,260,l),
(112,276,l),
(32,276,l),
(16,260,l),
(16,224,ls),
(16,72,o),
(96,-16,o),
(248,-16,cs)
);
}
);
width = 524;
},
{
layerId = m002;
shapes = (
{
closed = 1;
nodes = (
(400,-16,o),
(480,72,o),
(480,224,cs),
(480,784,l),
(464,800,l),
(384,800,l),
(368,784,l),
(368,224,ls),
(368,140,o),
(332,84,o),
(248,84,cs),
(164,84,o),
(128,140,o),
(128,224,cs),
(128,260,l),
(112,276,l),
(32,276,l),
(16,260,l),
(16,224,ls),
(16,72,o),
(96,-16,o),
(248,-16,cs)
);
}
);
width = 524;
}
);
unicode = 74;
},
{
color = 5;
glyphname = K;
lastChange = "2024-06-16 00:24:36 +0000";
layers = (
{
anchors = (
{
name = bottom;
pos = (344,0);
}
);
layerId = m01;
shapes = (
{
closed = 1;
nodes = (
(168,0,l),
(184,16,l),
(184,276,l),
(308,396,l),
(320,396,l),
(604,12,l),
(620,0,l),
(664,0,l),
(680,16,l),
(680,84,l),
(396,468,l),
(396,480,l),
(644,720,l),
(644,784,l),
(628,800,l),
(592,800,l),
(568,784,l),
(196,428,l),
(184,428,l),
(184,784,l),
(168,800,l),
(88,800,l),
(72,784,l),
(72,16,l),
(88,0,l)
);
}
);
width = 704;
},
{
anchors = (
{
name = bottom;
pos = (344,0);
}
);
layerId = m002;
shapes = (
{
closed = 1;
nodes = (
(168,0,l),
(184,16,l),
(184,276,l),
(308,396,l),
(320,396,l),
(604,12,l),
(620,0,l),
(664,0,l),
(680,16,l),
(680,84,l),
(396,468,l),
(396,480,l),
(644,720,l),
(644,784,l),
(628,800,l),
(592,800,l),
(568,784,l),
(196,428,l),
(184,428,l),
(184,784,l),
(168,800,l),
(88,800,l),
(72,784,l),
(72,16,l),
(88,0,l)
);
}
);
width = 704;
}
);
unicode = 75;
},
{
color = 5;
glyphname = L;
kernLeft = L;
kernRight = L;
lastChange = "2024-06-17 02:31:58 +0000";
layers = (
{
anchors = (
{
name = bottom;
pos = (328,0);
},
{
name = top;
pos = (152,800);
}
);
layerId = m01;
shapes = (
{
closed = 1;
nodes = (
(596,0,l),
(612,16,l),
(612,80,l),
(596,96,l),
(224,96,l),
(208,112,l),
(208,784,l),
(192,800,l),
(112,800,l),
(96,784,l),
(96,16,l),
(112,0,l)
);
}
);
width = 644;
},
{
anchors = (
{
name = bottom;
pos = (296,0);
},
{
name = top;
pos = (120,800);
}
);
layerId = m002;
shapes = (
{
closed = 1;
nodes = (
(564,0,l),
(580,16,l),
(580,80,l),
(564,96,l),
(192,96,l),
(176,112,l),
(176,784,l),
(160,800,l),
(80,800,l),
(64,784,l),
(64,16,l),
(80,0,l)
);
}
);
width = 604;
}
);
unicode = 76;
},
{
color = 5;
glyphname = M;
lastChange = "2024-06-12 05:51:53 +0000";
layers = (
{
layerId = m01;
shapes = (
{
closed = 1;
nodes = (
(184,0,l),
(200,16,l),
(200,704,l),
(216,704,l),
(396,16,l),
(412,0,l),
(564,0,l),
(580,16,l),
(760,704,l),
(776,704,l),
(776,16,l),
(792,0,l),
(872,0,l),
(888,16,l),
(888,784,l),
(872,800,l),
(688,800,l),
(672,784,l),
(496,96,l),
(480,96,l),
(304,784,l),
(288,800,l),
(104,800,l),
(88,784,l),
(88,16,l),
(104,0,l)
);
}
);
width = 976;
},
{
layerId = m002;
shapes = (
{
closed = 1;
nodes = (
(160,0,l),
(176,16,l),
(176,704,l),
(192,704,l),
(376,16,l),
(392,0,l),
(536,0,l),
(552,16,l),
(736,704,l),
(752,704,l),
(752,16,l),
(768,0,l),
(848,0,l),
(864,16,l),
(864,784,l),
(848,800,l),
(668,800,l),
(652,784,l),
(472,96,l),
(456,96,l),
(276,784,l),
(260,800,l),
(80,800,l),
(64,784,l),
(64,16,l),
(80,0,l)
);
}
);
width = 928;
}
);
unicode = 77;
},
{
color = 5;
glyphname = N;
lastChange = "2024-06-16 00:28:47 +0000";
layers = (
{
anchors = (
{
name = bottom;
pos = (392,0);
},
{
name = top;
pos = (412,800);
}
);
layerId = m01;
shapes = (
{
closed = 1;
nodes = (
(184,0,l),
(200,16,l),
(200,692,l),
(216,692,l),
(520,16,l),
(536,0,l),
(704,0,l),
(720,16,l),
(720,784,l),
(704,800,l),
(624,800,l),
(608,784,l),
(608,108,l),
(592,108,l),
(288,784,l),
(272,800,l),
(104,800,l),
(88,784,l),
(88,16,l),
(104,0,l)
);
}
);
width = 808;
},
{
anchors = (
{
name = bottom;
pos = (344,0);
},
{
name = top;
pos = (344,800);
}
);
layerId = m002;
shapes = (
{
closed = 1;
nodes = (
(128,0,l),
(144,16,l),
(144,692,l),
(160,692,l),
(464,16,l),
(480,0,l),
(648,0,l),
(664,16,l),
(664,784,l),
(648,800,l),
(568,800,l),
(552,784,l),
(552,108,l),
(536,108,l),
(232,784,l),
(216,800,l),
(48,800,l),
(32,784,l),
(32,16,l),
(48,0,l)
);
}
);
width = 696;
}
);
unicode = 78;
},
{
color = 5;
glyphname = O;
kernLeft = O;
kernRight = O;
lastChange = "2024-06-17 05:34:34 +0000";
layers = (
{
anchors = (
{
name = bottom;
pos = (448,0);
},
{
name = top;
pos = (448,800);
}
);
layerId = m01;
shapes = (
{
closed = 1;
nodes = (
(696,-16,o),
(824,152,o),
(824,400,cs),
(824,648,o),
(696,816,o),
(448,816,cs),
(200,816,o),
(72,648,o),
(72,400,cs),
(72,152,o),
(200,-16,o),
(448,-16,cs)
);
},
{
closed = 1;
nodes = (
(264,84,o),
(188,216,o),
(188,400,cs),
(188,584,o),
(264,716,o),
(448,716,cs),
(632,716,o),
(708,584,o),
(708,400,cs),
(708,216,o),
(632,84,o),
(448,84,cs)
);
}
);
width = 896;
},
{
anchors = (
{
name = bottom;
pos = (392,0);
},
{
name = top;
pos = (392,800);
}
);
layerId = m002;
shapes = (
{
closed = 1;
nodes = (
(640,-16,o),
(768,152,o),
(768,400,cs),
(768,648,o),
(640,816,o),
(392,816,cs),
(144,816,o),
(16,648,o),
(16,400,cs),
(16,152,o),
(144,-16,o),
(392,-16,cs)
);
},
{
closed = 1;
nodes = (
(208,84,o),
(132,216,o),
(132,400,cs),
(132,584,o),
(208,716,o),
(392,716,cs),
(576,716,o),
(652,584,o),
(652,400,cs),
(652,216,o),
(576,84,o),
(392,84,cs)
);
}
);
width = 784;
}
);
unicode = 79;
},
{
color = 5;
glyphname = P;
lastChange = "2024-06-17 03:36:33 +0000";
layers = (
{
layerId = m01;
shapes = (
{
closed = 1;
nodes = (
(184,0,l),
(200,16,l),
(200,332,l),
(212,344,l),
(404,344,ls),
(552,344,o),
(668,412,o),
(668,572,cs),
(668,732,o),
(564,800,o),
(404,800,cs),
(104,800,l),
(88,784,l),
(88,16,l),
(104,0,l)
);
},
{
closed = 1;
nodes = (
(200,452,l),
(200,692,l),
(212,704,l),
(404,704,ls),
(508,704,o),
(552,664,o),
(552,572,cs),
(552,480,o),
(508,440,o),
(404,440,cs),
(212,440,l)
);
}
);
width = 708;
},
{
layerId = m002;
shapes = (
{
closed = 1;
nodes = (
(160,0,l),
(176,16,l),
(176,332,l),
(188,344,l),
(380,344,ls),
(528,344,o),
(644,412,o),
(644,572,cs),
(644,732,o),
(540,800,o),
(380,800,cs),
(80,800,l),
(64,784,l),
(64,16,l),
(80,0,l)
);
},
{
closed = 1;
nodes = (
(176,452,l),
(176,692,l),
(188,704,l),
(380,704,ls),
(484,704,o),
(528,664,o),
(528,572,cs),
(528,480,o),
(484,440,o),
(380,440,cs),
(188,440,l)
);
}
);
width = 660;
}
);
unicode = 80;
},
{
color = 5;
glyphname = Q;
lastChange = "2024-06-09 16:12:29 +0000";
layers = (
{
layerId = m01;
shapes = (
{
closed = 1;
nodes = (
(496,-16,o),
(568,0,o),
(624,36,c),
(640,36,l),
(672,0,l),
(732,0,l),
(748,16,l),
(748,72,l),
(716,108,l),
(716,124,l),
(760,184,o),
(792,276,o),
(792,400,cs),
(792,648,o),
(664,816,o),
(416,816,cs),
(168,816,o),
(40,648,o),
(40,400,cs),
(40,152,o),
(168,-16,o),
(416,-16,cs)
);
},
{
closed = 1;
nodes = (
(232,84,o),
(156,216,o),
(156,400,cs),
(156,584,o),
(232,716,o),
(416,716,cs),
(600,716,o),
(676,584,o),
(676,400,cs),
(676,320,o),
(664,260,o),
(640,212,c),
(624,212,l),
(476,384,l),
(432,384,l),
(416,368,l),
(416,304,l),
(424,280,l),
(552,136,l),
(552,120,l),
(520,96,o),
(476,84,o),
(416,84,cs)
);
}
);
width = 832;
},
{
associatedMasterId = m01;
layerId = "2C78FD2B-36BB-40A6-BDF4-5CB38705A6DA";
name = "May 29, 24 at 13:24";
shapes = (
{
closed = 1;
nodes = (
(664,-16,o),
(792,152,o),
(792,400,cs),
(792,648,o),
(664,816,o),
(416,816,cs),
(168,816,o),
(40,648,o),
(40,400,cs),
(40,152,o),
(168,-16,o),
(416,-16,cs)
);
},
{
closed = 1;
nodes = (
(232,84,o),
(156,216,o),
(156,400,cs),
(156,584,o),
(232,716,o),
(416,716,cs),
(600,716,o),
(676,584,o),
(676,400,cs),
(676,216,o),
(600,84,o),
(416,84,cs)
);
}
);
visible = 1;
width = 832;
},
{
associatedMasterId = m01;
layerId = "4BD63978-D999-40E0-AB76-87C88118D816";
name = "May 30, 24 at 19:31";
shapes = (
{
closed = 1;
nodes = (
(668,0,l),
(808,0,l),
(476,384,l),
(336,384,l)
);
}
);
visible = 1;
width = 832;
},
{
layerId = m002;
shapes = (
{
closed = 1;
nodes = (
(496,-16,o),
(568,0,o),
(624,36,c),
(640,36,l),
(672,0,l),
(732,0,l),
(748,16,l),
(748,72,l),
(716,108,l),
(716,124,l),
(760,184,o),
(792,276,o),
(792,400,cs),
(792,648,o),
(664,816,o),
(416,816,cs),
(168,816,o),
(40,648,o),
(40,400,cs),
(40,152,o),
(168,-16,o),
(416,-16,cs)
);
},
{
closed = 1;
nodes = (
(232,84,o),
(156,216,o),
(156,400,cs),
(156,584,o),
(232,716,o),
(416,716,cs),
(600,716,o),
(676,584,o),
(676,400,cs),
(676,320,o),
(664,260,o),
(640,212,c),
(624,212,l),
(476,384,l),
(432,384,l),
(416,368,l),
(416,304,l),
(424,280,l),
(552,136,l),
(552,120,l),
(520,96,o),
(476,84,o),
(416,84,cs)
);
}
);
width = 832;
},
{
associatedMasterId = m002;
layerId = "95B133CF-F2F2-4166-8E48-254C18ABEEB2";
name = "May 29, 24 at 13:24";
shapes = (
{
closed = 1;
nodes = (
(664,-16,o),
(792,152,o),
(792,400,cs),
(792,648,o),
(664,816,o),
(416,816,cs),
(168,816,o),
(40,648,o),
(40,400,cs),
(40,152,o),
(168,-16,o),
(416,-16,cs)
);
},
{
closed = 1;
nodes = (
(232,84,o),
(156,216,o),
(156,400,cs),
(156,584,o),
(232,716,o),
(416,716,cs),
(600,716,o),
(676,584,o),
(676,400,cs),
(676,216,o),
(600,84,o),
(416,84,cs)
);
}
);
width = 832;
},
{
associatedMasterId = m002;
layerId = "303919EB-2C66-4052-A6A2-C286C84A3520";
name = "May 30, 24 at 19:31";
shapes = (
{
closed = 1;
nodes = (
(668,0,l),
(808,0,l),
(476,384,l),
(336,384,l)
);
}
);
width = 832;
}
);
unicode = 81;
},
{
color = 5;
glyphname = R;
kernLeft = R;
kernRight = R;
lastChange = "2024-06-17 05:38:02 +0000";
layers = (
{
layerId = m01;
shapes = (
{
closed = 1;
nodes = (
(208,452,l),
(208,692,l),
(220,704,l),
(444,704,ls),
(548,704,o),
(604,680,o),
(604,576,cs),
(604,472,o),
(540,440,o),
(436,440,cs),
(220,440,l)
);
},
{
closed = 1;
nodes = (
(192,0,l),
(208,16,l),
(208,332,l),
(220,344,l),
(424,344,l),
(436,332,l),
(632,16,l),
(648,0,l),
(700,0,l),
(716,16,l),
(716,72,l),
(548,344,l),
(548,360,l),
(644,384,o),
(720,456,o),
(720,576,cs),
(720,744,o),
(612,800,o),
(444,800,cs),
(112,800,l),
(96,784,l),
(96,16,l),
(112,0,l)
);
}
);
width = 792;
},
{
associatedMasterId = m01;
layerId = "A5E0E3B2-E6D3-4034-80CC-4DBBBAAF833A";
name = "Jun 7, 24 at 00:27";
shapes = (
{
closed = 1;
nodes = (
(176,452,l),
(176,692,l),
(188,704,l),
(404,704,ls),
(508,704,o),
(564,680,o),
(564,576,cs),
(564,472,o),
(508,440,o),
(404,440,cs),
(188,440,l)
);
},
{
closed = 1;
nodes = (
(160,0,l),
(176,16,l),
(176,332,l),
(188,344,l),
(348,344,l),
(364,336,l),
(596,8,l),
(612,0,l),
(664,0,l),
(680,16,l),
(680,80,l),
(500,336,l),
(500,352,l),
(600,372,o),
(680,432,o),
(680,576,cs),
(680,744,o),
(572,800,o),
(404,800,cs),
(80,800,l),
(64,784,l),
(64,16,l),
(80,0,l)
);
}
);
visible = 1;
width = 720;
},
{
backgroundImage = {
imagePath = "/Users/eli/Desktop/02_REP_SPC_e2 (1).jpg";
pos = (-992,-2256);
scale = (1.65,1.65);
};
layerId = m002;
shapes = (
{
closed = 1;
nodes = (
(144,452,l),
(144,692,l),
(156,704,l),
(380,704,ls),
(484,704,o),
(540,680,o),
(540,576,cs),
(540,472,o),
(476,440,o),
(372,440,cs),
(156,440,l)
);
},
{
closed = 1;
nodes = (
(128,0,l),
(144,16,l),
(144,332,l),
(156,344,l),
(360,344,l),
(372,332,l),
(568,16,l),
(584,0,l),
(636,0,l),
(652,16,l),
(652,72,l),
(484,344,l),
(484,360,l),
(580,384,o),
(656,456,o),
(656,576,cs),
(656,744,o),
(548,800,o),
(380,800,cs),
(48,800,l),
(32,784,l),
(32,16,l),
(48,0,l)
);
}
);
width = 672;
},
{
associatedMasterId = m002;
layerId = "6947AE4C-FFFA-4364-BAAA-1961A04491CD";
name = "Jun 7, 24 at 00:27";
shapes = (
{
closed = 1;
nodes = (
(176,452,l),
(176,692,l),
(188,704,l),
(404,704,ls),
(508,704,o),
(564,680,o),
(564,576,cs),
(564,472,o),
(508,440,o),
(404,440,cs),
(188,440,l)
);
},
{
closed = 1;
nodes = (
(160,0,l),
(176,16,l),
(176,332,l),
(188,344,l),
(348,344,l),
(364,336,l),
(596,8,l),
(612,0,l),
(664,0,l),
(680,16,l),
(680,80,l),
(500,336,l),
(500,352,l),
(600,372,o),
(680,432,o),
(680,576,cs),
(680,744,o),
(572,800,o),
(404,800,cs),
(80,800,l),
(64,784,l),
(64,16,l),
(80,0,l)
);
}
);
width = 720;
}
);
unicode = 82;
},
{
color = 5;
glyphname = S;
kernLeft = S;
kernRight = S;
lastChange = "2024-06-10 05:56:20 +0000";
layers = (
{
layerId = m01;
shapes = (
{
closed = 1;
nodes = (
(564,-16,o),
(664,92,o),
(664,216,cs),
(664,376,o),
(540,436,o),
(380,456,cs),
(220,480,o),
(160,504,o),
(160,596,cs),
(160,664,o),
(220,716,o),
(340,716,cs),
(484,716,o),
(520,656,o),
(520,576,c),
(536,560,l),
(616,560,l),
(632,576,l),
(632,740,o),
(508,816,o),
(340,816,cs),
(128,816,o),
(44,696,o),
(44,596,cs),
(44,456,o),
(152,388,o),
(312,368,cs),
(472,344,o),
(548,320,o),
(548,216,cs),
(548,120,o),
(460,84,o),
(352,84,cs),
(212,84,o),
(136,132,o),
(136,248,c),
(120,264,l),
(40,264,l),
(24,248,l),
(24,76,o),
(152,-16,o),
(352,-16,cs)
);
}
);
width = 688;
},
{
layerId = m002;
shapes = (
{
closed = 1;
nodes = (
(556,-16,o),
(656,92,o),
(656,216,cs),
(656,376,o),
(532,436,o),
(372,456,cs),
(212,480,o),
(152,504,o),
(152,596,cs),
(152,664,o),
(212,716,o),
(332,716,cs),
(476,716,o),
(512,656,o),
(512,576,c),
(528,560,l),
(608,560,l),
(624,576,l),
(624,740,o),
(500,816,o),
(332,816,cs),
(120,816,o),
(36,696,o),
(36,596,cs),
(36,456,o),
(144,388,o),
(304,368,cs),
(464,344,o),
(540,320,o),
(540,216,cs),
(540,120,o),
(452,84,o),
(344,84,cs),
(204,84,o),
(128,132,o),
(128,248,c),
(112,264,l),
(32,264,l),
(16,248,l),
(16,76,o),
(144,-16,o),
(344,-16,cs)
);
}
);
width = 672;
}
);
unicode = 83;
},
{
color = 5;
glyphname = T;
kernLeft = T;
kernRight = T;
lastChange = "2024-06-09 18:46:11 +0000";
layers = (
{
layerId = m01;
shapes = (
{
closed = 1;
nodes = (
(352,0,l),
(368,16,l),
(368,688,l),
(380,700,l),
(584,700,l),
(600,716,l),
(600,784,l),
(584,800,l),
(40,800,l),
(24,784,l),
(24,716,l),
(40,700,l),
(244,700,l),
(256,688,l),
(256,16,l),
(272,0,l)
);
}
);
width = 624;
},
{
layerId = m002;
shapes = (
{
closed = 1;
nodes = (
(352,0,l),
(368,16,l),
(368,688,l),
(380,700,l),
(584,700,l),
(600,716,l),
(600,784,l),
(584,800,l),
(40,800,l),
(24,784,l),
(24,716,l),
(40,700,l),
(244,700,l),
(256,688,l),
(256,16,l),
(272,0,l)
);
}
);
width = 624;
}
);
unicode = 84;
},
{
color = 5;
glyphname = U;
lastChange = "2024-06-09 16:12:29 +0000";
layers = (
{
layerId = m01;
shapes = (
{
closed = 1;
nodes = (
(564,-16,o),
(672,76,o),
(672,276,cs),
(672,784,l),
(656,800,l),
(576,800,l),
(560,784,l),
(560,292,ls),
(560,152,o),
(492,84,o),
(364,84,cs),
(236,84,o),
(168,152,o),
(168,292,cs),
(168,784,l),
(152,800,l),
(72,800,l),
(56,784,l),
(56,276,ls),
(56,76,o),
(164,-16,o),
(364,-16,cs)
);
}
);
width = 728;
},
{
layerId = m002;
shapes = (
{
closed = 1;
nodes = (
(564,-16,o),
(672,76,o),
(672,276,cs),
(672,784,l),
(656,800,l),
(576,800,l),
(560,784,l),
(560,292,ls),
(560,152,o),
(492,84,o),
(364,84,cs),
(236,84,o),
(168,152,o),
(168,292,cs),
(168,784,l),
(152,800,l),
(72,800,l),
(56,784,l),
(56,276,ls),
(56,76,o),
(164,-16,o),
(364,-16,cs)
);
}
);
width = 728;
}
);
unicode = 85;
},
{
color = 5;
glyphname = V;
lastChange = "2024-06-09 16:12:29 +0000";
layers = (
{
layerId = m01;
shapes = (
{
closed = 1;
nodes = (
(100,784,l),
(84,800,l),
(32,800,l),
(16,784,l),
(16,696,l),
(268,16,l),
(284,0,l),
(416,0,l),
(436,16,l),
(688,696,l),
(688,784,l),
(672,800,l),
(620,800,l),
(604,784,l),
(360,112,l),
(344,112,l)
);
}
);
width = 704;
},
{
associatedMasterId = m01;
layerId = "E37F995E-4353-4CEE-9878-4894C6A8C1DB";
name = "Jun 2, 24 at 11:52";
shapes = (
{
closed = 1;
nodes = (
(-12,784,l),
(-12,696,l),
(252,16,l),
(268,0,l),
(392,0,l),
(412,16,l),
(676,696,l),
(676,784,l),
(660,800,l),
(608,800,l),
(592,784,l),
(516,584,l),
(500,568,l),
(164,568,l),
(148,584,l),
(72,784,l),
(56,800,l),
(4,800,l)
);
},
{
closed = 1;
nodes = (
(460,472,l),
(472,460,l),
(340,104,l),
(324,104,l),
(192,460,l),
(204,472,l)
);
}
);
width = 668;
},
{
associatedMasterId = m01;
backgroundImage = {
imagePath = "/Users/eli/Desktop/Screenshot 2024-06-02 at 11.05.15 AM.png";
locked = 1;
pos = (-228,-580);
scale = (9.75,9.75);
};
layerId = "4B7774A7-EAAC-4722-9B4C-8A791DB6C4E9";
name = "Jun 2, 24 at 12:03";
shapes = (
{
closed = 1;
nodes = (
(380,0,l),
(396,16,l),
(652,708,l),
(652,784,l),
(636,800,l),
(576,800,l),
(560,784,l),
(344,156,l),
(328,156,l),
(108,784,l),
(92,800,l),
(32,800,l),
(16,784,l),
(16,708,l),
(268,16,l),
(284,0,l)
);
}
);
width = 668;
},
{
layerId = m002;
shapes = (
{
closed = 1;
nodes = (
(100,784,l),
(84,800,l),
(32,800,l),
(16,784,l),
(16,696,l),
(268,16,l),
(284,0,l),
(416,0,l),
(436,16,l),
(688,696,l),
(688,784,l),
(672,800,l),
(620,800,l),
(604,784,l),
(360,112,l),
(344,112,l)
);
}
);
width = 704;
},
{
associatedMasterId = m002;
layerId = "B387D7CC-091E-4B4E-99E4-4D99BBF78C54";
name = "Jun 2, 24 at 11:52";
shapes = (
{
closed = 1;
nodes = (
(-12,784,l),
(-12,696,l),
(252,16,l),
(268,0,l),
(392,0,l),
(412,16,l),
(676,696,l),
(676,784,l),
(660,800,l),
(608,800,l),
(592,784,l),
(516,584,l),
(500,568,l),
(164,568,l),
(148,584,l),
(72,784,l),
(56,800,l),
(4,800,l)
);
},
{
closed = 1;
nodes = (
(460,472,l),
(472,460,l),
(340,104,l),
(324,104,l),
(192,460,l),
(204,472,l)
);
}
);
width = 668;
},
{
associatedMasterId = m002;
backgroundImage = {
imagePath = "/Users/eli/Desktop/Screenshot 2024-06-02 at 11.05.15 AM.png";
locked = 1;
pos = (-228,-580);
scale = (9.75,9.75);
};
layerId = "FB0B4937-9003-4651-9394-88DCEC6E8DB8";
name = "Jun 2, 24 at 12:03";
shapes = (
{
closed = 1;
nodes = (
(380,0,l),
(396,16,l),
(652,708,l),
(652,784,l),
(636,800,l),
(576,800,l),
(560,784,l),
(344,156,l),
(328,156,l),
(108,784,l),
(92,800,l),
(32,800,l),
(16,784,l),
(16,708,l),
(268,16,l),
(284,0,l)
);
}
);
width = 668;
}
);
unicode = 86;
},
{
color = 5;
glyphname = W;
kernLeft = W;
kernRight = W;
lastChange = "2024-06-11 17:31:11 +0000";
layers = (
{
layerId = m01;
shapes = (
{
closed = 1;
nodes = (
(136,784,l),
(120,800,l),
(48,800,l),
(32,784,l),
(32,696,l),
(192,16,l),
(208,0,l),
(360,0,l),
(380,16,l),
(524,688,l),
(544,688,l),
(688,16,l),
(704,0,l),
(856,0,l),
(876,16,l),
(1036,696,l),
(1036,784,l),
(1020,800,l),
(948,800,l),
(932,784,l),
(788,112,l),
(772,112,l),
(624,784,l),
(608,800,l),
(460,800,l),
(444,784,l),
(296,112,l),
(280,112,l)
);
}
);
width = 1068;
},
{
associatedMasterId = m01;
layerId = "F7D8829E-89DF-4AC7-A6EA-5F927C54860E";
name = "Jun 2, 24 at 12:21";
shapes = (
{
closed = 1;
nodes = (
(308,0,l),
(324,16,l),
(492,616,l),
(508,616,l),
(676,16,l),
(692,0,l),
(788,0,l),
(804,16,l),
(984,708,l),
(984,784,l),
(968,800,l),
(912,800,l),
(896,784,l),
(748,208,l),
(732,208,l),
(568,784,l),
(552,800,l),
(448,800,l),
(432,784,l),
(268,208,l),
(252,208,l),
(104,784,l),
(88,800,l),
(32,800,l),
(16,784,l),
(16,708,l),
(196,16,l),
(212,0,l)
);
}
);
width = 1000;
},
{
layerId = m002;
shapes = (
{
closed = 1;
nodes = (
(116,784,l),
(100,800,l),
(32,800,l),
(16,784,l),
(16,696,l),
(188,16,l),
(204,0,l),
(336,0,l),
(356,16,l),
(508,688,l),
(528,688,l),
(680,16,l),
(696,0,l),
(828,0,l),
(848,16,l),
(1020,696,l),
(1020,784,l),
(1004,800,l),
(936,800,l),
(920,784,l),
(772,112,l),
(756,112,l),
(596,784,l),
(580,800,l),
(456,800,l),
(440,784,l),
(280,112,l),
(264,112,l)
);
}
);
width = 1036;
},
{
associatedMasterId = m002;
layerId = "8C12C0D6-CEBD-4D2B-BE8C-1A780E0D842D";
name = "Jun 2, 24 at 12:21";
shapes = (
{
closed = 1;
nodes = (
(308,0,l),
(324,16,l),
(492,616,l),
(508,616,l),
(676,16,l),
(692,0,l),
(788,0,l),
(804,16,l),
(984,708,l),
(984,784,l),
(968,800,l),
(912,800,l),
(896,784,l),
(748,208,l),
(732,208,l),
(568,784,l),
(552,800,l),
(448,800,l),
(432,784,l),
(268,208,l),
(252,208,l),
(104,784,l),
(88,800,l),
(32,800,l),
(16,784,l),
(16,708,l),
(196,16,l),
(212,0,l)
);
}
);
width = 1000;
}
);
unicode = 87;
},
{
color = 5;
glyphname = X;
lastChange = "2024-06-09 16:12:29 +0000";
layers = (
{
layerId = m01;
shapes = (
{
closed = 1;
nodes = (
(72,0,l),
(96,16,l),
(316,320,l),
(332,320,l),
(552,16,l),
(576,0,l),
(616,0,l),
(632,16,l),
(632,92,l),
(400,400,l),
(400,420,l),
(624,708,l),
(624,784,l),
(608,800,l),
(564,800,l),
(540,784,l),
(332,492,l),
(316,492,l),
(104,784,l),
(80,800,l),
(40,800,l),
(24,784,l),
(24,708,l),
(248,420,l),
(248,400,l),
(16,92,l),
(16,16,l),
(32,0,l)
);
}
);
width = 648;
},
{
layerId = m002;
shapes = (
{
closed = 1;
nodes = (
(72,0,l),
(96,16,l),
(316,320,l),
(332,320,l),
(552,16,l),
(576,0,l),
(616,0,l),
(632,16,l),
(632,92,l),
(400,400,l),
(400,420,l),
(624,708,l),
(624,784,l),
(608,800,l),
(564,800,l),
(540,784,l),
(332,492,l),
(316,492,l),
(104,784,l),
(80,800,l),
(40,800,l),
(24,784,l),
(24,708,l),
(248,420,l),
(248,400,l),
(16,92,l),
(16,16,l),
(32,0,l)
);
}
);
width = 648;
}
);
unicode = 88;
},
{
color = 5;
glyphname = Y;
lastChange = "2024-06-09 16:12:29 +0000";
layers = (
{
layerId = m01;
shapes = (
{
closed = 1;
nodes = (
(608,708,l),
(608,784,l),
(592,800,l),
(552,800,l),
(528,784,l),
(324,440,l),
(300,440,l),
(96,784,l),
(72,800,l),
(32,800,l),
(16,784,l),
(16,708,l),
(256,320,l),
(256,16,l),
(272,0,l),
(352,0,l),
(368,16,l),
(368,320,l)
);
}
);
width = 624;
},
{
layerId = m002;
shapes = (
{
closed = 1;
nodes = (
(608,708,l),
(608,784,l),
(592,800,l),
(552,800,l),
(528,784,l),
(324,440,l),
(300,440,l),
(96,784,l),
(72,800,l),
(32,800,l),
(16,784,l),
(16,708,l),
(256,320,l),
(256,16,l),
(272,0,l),
(352,0,l),
(368,16,l),
(368,320,l)
);
}
);
width = 624;
}
);
unicode = 89;
},
{
color = 5;
glyphname = Z;
lastChange = "2024-06-09 16:12:29 +0000";
layers = (
{
layerId = m01;
shapes = (
{
closed = 1;
nodes = (
(572,0,l),
(588,16,l),
(588,84,l),
(572,100,l),
(156,100,l),
(156,116,l),
(552,676,l),
(568,712,l),
(568,784,l),
(552,800,l),
(44,800,l),
(28,784,l),
(28,716,l),
(44,700,l),
(428,700,l),
(428,684,l),
(28,128,l),
(16,104,l),
(16,16,l),
(32,0,l)
);
}
);
width = 604;
},
{
layerId = m002;
shapes = (
{
closed = 1;
nodes = (
(572,0,l),
(588,16,l),
(588,84,l),
(572,100,l),
(156,100,l),
(156,116,l),
(552,676,l),
(568,712,l),
(568,784,l),
(552,800,l),
(44,800,l),
(28,784,l),
(28,716,l),
(44,700,l),
(428,700,l),
(428,684,l),
(28,128,l),
(16,104,l),
(16,16,l),
(32,0,l)
);
}
);
width = 604;
}
);
unicode = 90;
},
{
color = 4;
glyphname = a;
kernLeft = a;
kernRight = a;
lastChange = "2024-06-20 22:08:17 +0000";
layers = (
{
layerId = m01;
shapes = (
{
closed = 1;
nodes = (
(344,-16,o),
(404,36,o),
(428,68,c),
(444,68,l),
(452,20,o),
(480,0,o),
(540,0,cs),
(556,0,l),
(572,16,l),
(572,72,l),
(556,88,l),
(540,88,o),
(532,96,o),
(532,112,cs),
(532,392,ls),
(532,528,o),
(452,592,o),
(300,592,cs),
(188,592,o),
(80,532,o),
(80,432,cs),
(80,416,l),
(96,400,l),
(160,400,l),
(176,416,l),
(176,432,ls),
(176,476,o),
(228,504,o),
(300,504,cs),
(380,504,o),
(428,468,o),
(428,392,cs),
(428,356,l),
(416,344,l),
(344,344,ls),
(172,344,o),
(48,296,o),
(48,160,cs),
(48,56,o),
(128,-16,o),
(236,-16,cs)
);
},
{
closed = 1;
nodes = (
(192,68,o),
(152,104,o),
(152,160,cs),
(152,232,o),
(212,268,o),
(344,268,cs),
(416,268,l),
(428,256,l),
(428,196,ls),
(428,136,o),
(360,68,o),
(252,68,cs)
);
}
);
width = 620;
},
{
layerId = m002;
shapes = (
{
closed = 1;
nodes = (
(304,-16,o),
(364,36,o),
(388,68,c),
(404,68,l),
(412,20,o),
(440,0,o),
(500,0,cs),
(516,0,l),
(532,16,l),
(532,72,l),
(516,88,l),
(500,88,o),
(492,96,o),
(492,112,cs),
(492,392,ls),
(492,528,o),
(412,592,o),
(260,592,cs),
(148,592,o),
(40,532,o),
(40,432,cs),
(40,416,l),
(56,400,l),
(120,400,l),
(136,416,l),
(136,432,ls),
(136,476,o),
(188,504,o),
(260,504,cs),
(340,504,o),
(388,468,o),
(388,392,cs),
(388,356,l),
(376,344,l),
(304,344,ls),
(132,344,o),
(8,296,o),
(8,160,cs),
(8,56,o),
(88,-16,o),
(196,-16,cs)
);
},
{
closed = 1;
nodes = (
(152,68,o),
(112,104,o),
(112,160,cs),
(112,232,o),
(172,268,o),
(304,268,cs),
(376,268,l),
(388,256,l),
(388,196,ls),
(388,136,o),
(320,68,o),
(212,68,cs)
);
}
);
width = 540;
}
);
unicode = 97;
},
{
color = 4;
glyphname = aacute;
kernLeft = a;
kernRight = a;
lastChange = "2024-06-20 22:08:17 +0000";
layers = (
{
layerId = m01;
shapes = (
{
ref = a;
},
{
closed = 1;
nodes = (
(312,656,l),
(344,672,l),
(392,768,l),
(392,784,l),
(376,800,l),
(320,800,l),
(288,784,l),
(248,688,l),
(248,672,l),
(264,656,l)
);
}
);
width = 568;
},
{
layerId = m002;
shapes = (
{
ref = a;
},
{
closed = 1;
nodes = (
(312,656,l),
(344,672,l),
(392,768,l),
(392,784,l),
(376,800,l),
(320,800,l),
(288,784,l),
(248,688,l),
(248,672,l),
(264,656,l)
);
}
);
width = 568;
}
);
unicode = 225;
},
{
color = 4;
glyphname = b;
lastChange = "2024-06-20 22:08:17 +0000";
layers = (
{
layerId = m01;
shapes = (
{
closed = 1;
nodes = (
(168,0,l),
(184,16,l),
(192,64,l),
(208,64,l),
(240,20,o),
(308,-16,o),
(384,-16,cs),
(544,-16,o),
(620,124,o),
(620,288,cs),
(620,452,o),
(544,592,o),
(384,592,cs),
(296,592,o),
(240,556,o),
(208,512,c),
(192,520,l),
(192,784,l),
(176,800,l),
(104,800,l),
(88,784,l),
(88,16,l),
(104,0,l)
);
},
{
closed = 1;
nodes = (
(452,496,o),
(512,424,o),
(512,288,cs),
(512,152,o),
(452,80,o),
(352,80,cs),
(264,80,o),
(192,152,o),
(192,288,cs),
(192,424,o),
(264,496,o),
(352,496,cs)
);
}
);
width = 684;
},
{
layerId = m002;
shapes = (
{
closed = 1;
nodes = (
(112,0,l),
(128,16,l),
(136,64,l),
(152,64,l),
(184,20,o),
(252,-16,o),
(328,-16,cs),
(488,-16,o),
(564,124,o),
(564,288,cs),
(564,452,o),
(488,592,o),
(328,592,cs),
(240,592,o),
(184,556,o),
(152,512,c),
(136,520,l),
(136,784,l),
(120,800,l),
(48,800,l),
(32,784,l),
(32,16,l),
(48,0,l)
);
},
{
closed = 1;
nodes = (
(396,496,o),
(456,424,o),
(456,288,cs),
(456,152,o),
(396,80,o),
(296,80,cs),
(208,80,o),
(136,152,o),
(136,288,cs),
(136,424,o),
(208,496,o),
(296,496,cs)
);
}
);
width = 576;
}
);
unicode = 98;
},
{
color = 4;
glyphname = c;
kernLeft = o;
kernRight = c;
lastChange = "2024-06-20 22:08:17 +0000";
layers = (
{
layerId = m01;
shapes = (
{
closed = 1;
nodes = (
(480,-20,o),
(560,72,o),
(576,176,c),
(576,192,l),
(560,208,l),
(488,208,l),
(472,192,l),
(456,128,o),
(416,76,o),
(332,76,cs),
(220,76,o),
(172,156,o),
(172,288,cs),
(172,420,o),
(220,500,o),
(332,500,cs),
(408,500,o),
(456,464,o),
(472,400,c),
(488,384,l),
(560,384,l),
(576,400,l),
(576,416,l),
(560,520,o),
(480,592,o),
(332,592,cs),
(156,592,o),
(64,464,o),
(64,288,cs),
(64,104,o),
(160,-12,o),
(332,-16,cs)
);
}
);
width = 640;
},
{
associatedMasterId = m01;
layerId = "76AB318C-2308-45C6-8374-9EA02209C007";
name = "Mar 25, 24 at 02:20";
shapes = (
{
closed = 1;
nodes = (
(476,-16,o),
(568,112,o),
(568,288,cs),
(568,464,o),
(476,592,o),
(300,592,cs),
(124,592,o),
(32,464,o),
(32,288,cs),
(32,112,o),
(124,-16,o),
(300,-16,cs)
);
},
{
closed = 1;
nodes = (
(180,76,o),
(136,168,o),
(136,288,cs),
(136,408,o),
(180,500,o),
(300,500,cs),
(420,500,o),
(464,408,o),
(464,288,cs),
(464,168,o),
(420,76,o),
(300,76,cs)
);
}
);
width = 600;
},
{
layerId = m002;
shapes = (
{
closed = 1;
nodes = (
(428,-20,o),
(508,72,o),
(524,176,c),
(524,192,l),
(508,208,l),
(436,208,l),
(420,192,l),
(404,128,o),
(364,76,o),
(280,76,cs),
(168,76,o),
(120,156,o),
(120,288,cs),
(120,420,o),
(168,500,o),
(280,500,cs),
(356,500,o),
(404,464,o),
(420,400,c),
(436,384,l),
(508,384,l),
(524,400,l),
(524,416,l),
(508,520,o),
(428,592,o),
(280,592,cs),
(104,592,o),
(12,464,o),
(12,288,cs),
(12,104,o),
(108,-12,o),
(280,-16,cs)
);
}
);
width = 564;
},
{
associatedMasterId = m002;
layerId = "035D4917-8885-45FB-AC00-84AFB025B83F";
name = "Mar 25, 24 at 02:20";
shapes = (
{
closed = 1;
nodes = (
(476,-16,o),
(568,112,o),
(568,288,cs),
(568,464,o),
(476,592,o),
(300,592,cs),
(124,592,o),
(32,464,o),
(32,288,cs),
(32,112,o),
(124,-16,o),
(300,-16,cs)
);
},
{
closed = 1;
nodes = (
(180,76,o),
(136,168,o),
(136,288,cs),
(136,408,o),
(180,500,o),
(300,500,cs),
(420,500,o),
(464,408,o),
(464,288,cs),
(464,168,o),
(420,76,o),
(300,76,cs)
);
}
);
width = 600;
}
);
unicode = 99;
},
{
color = 4;
glyphname = d;
kernLeft = o;
kernRight = l;
lastChange = "2024-06-20 22:08:17 +0000";
layers = (
{
layerId = m01;
shapes = (
{
closed = 1;
nodes = (
(596,16,l),
(596,784,l),
(580,800,l),
(508,800,l),
(492,784,l),
(492,520,l),
(476,512,l),
(444,556,o),
(388,592,o),
(300,592,cs),
(140,592,o),
(64,452,o),
(64,288,cs),
(64,124,o),
(140,-16,o),
(300,-16,cs),
(376,-16,o),
(444,20,o),
(476,64,c),
(492,64,l),
(500,16,l),
(516,0,l),
(580,0,l)
);
},
{
closed = 1;
nodes = (
(420,496,o),
(492,424,o),
(492,288,cs),
(492,152,o),
(420,80,o),
(332,80,cs),
(232,80,o),
(172,152,o),
(172,288,cs),
(172,424,o),
(232,496,o),
(332,496,cs)
);
}
);
width = 684;
},
{
layerId = m002;
shapes = (
{
closed = 1;
nodes = (
(544,16,l),
(544,784,l),
(528,800,l),
(456,800,l),
(440,784,l),
(440,520,l),
(424,512,l),
(392,556,o),
(336,592,o),
(248,592,cs),
(88,592,o),
(12,452,o),
(12,288,cs),
(12,124,o),
(88,-16,o),
(248,-16,cs),
(324,-16,o),
(392,20,o),
(424,64,c),
(440,64,l),
(448,16,l),
(464,0,l),
(528,0,l)
);
},
{
closed = 1;
nodes = (
(368,496,o),
(440,424,o),
(440,288,cs),
(440,152,o),
(368,80,o),
(280,80,cs),
(180,80,o),
(120,152,o),
(120,288,cs),
(120,424,o),
(180,496,o),
(280,496,cs)
);
}
);
width = 576;
}
);
unicode = 100;
},
{
color = 4;
glyphname = e;
kernLeft = o;
kernRight = o;
lastChange = "2024-06-20 22:08:17 +0000";
layers = (
{
layerId = m01;
shapes = (
{
closed = 1;
nodes = (
(172,356,l),
(180,444,o),
(232,504,o),
(328,504,cs),
(432,504,o),
(484,444,o),
(492,356,c),
(480,344,l),
(184,344,l)
);
},
{
closed = 1;
nodes = (
(496,-16,o),
(568,84,o),
(580,156,c),
(580,172,l),
(564,188,l),
(504,188,l),
(488,172,l),
(472,108,o),
(432,76,o),
(336,76,cs),
(232,76,o),
(172,144,o),
(172,252,c),
(184,264,l),
(580,264,l),
(596,280,l),
(596,300,ls),
(596,464,o),
(496,592,o),
(328,592,cs),
(168,592,o),
(64,464,o),
(64,288,cs),
(64,112,o),
(164,-16,o),
(336,-16,cs)
);
}
);
width = 652;
},
{
layerId = m002;
shapes = (
{
closed = 1;
nodes = (
(120,356,l),
(128,444,o),
(180,504,o),
(276,504,cs),
(380,504,o),
(432,444,o),
(440,356,c),
(428,344,l),
(132,344,l)
);
},
{
closed = 1;
nodes = (
(444,-16,o),
(516,84,o),
(528,156,c),
(528,172,l),
(512,188,l),
(452,188,l),
(436,172,l),
(420,108,o),
(380,76,o),
(284,76,cs),
(180,76,o),
(120,144,o),
(120,252,c),
(132,264,l),
(528,264,l),
(544,280,l),
(544,300,ls),
(544,464,o),
(444,592,o),
(276,592,cs),
(116,592,o),
(12,464,o),
(12,288,cs),
(12,112,o),
(112,-16,o),
(284,-16,cs)
);
}
);
width = 552;
}
);
unicode = 101;
},
{
color = 4;
glyphname = f;
kernLeft = f;
kernRight = f;
lastChange = "2024-06-20 22:08:17 +0000";
layers = (
{
layerId = m01;
shapes = (
{
closed = 1;
nodes = (
(216,0,l),
(232,16,l),
(232,476,l),
(244,488,l),
(344,488,l),
(360,504,l),
(360,560,l),
(344,576,l),
(244,576,l),
(232,588,l),
(232,640,ls),
(232,672,o),
(244,712,o),
(276,712,cs),
(344,712,l),
(360,728,l),
(360,784,l),
(344,800,l),
(276,800,ls),
(184,800,o),
(128,736,o),
(128,640,cs),
(128,588,l),
(116,576,l),
(56,576,l),
(40,560,l),
(40,504,l),
(56,488,l),
(120,488,l),
(128,476,l),
(128,16,l),
(144,0,l)
);
}
);
width = 404;
},
{
layerId = m002;
shapes = (
{
closed = 1;
nodes = (
(184,0,l),
(200,16,l),
(200,476,l),
(212,488,l),
(312,488,l),
(328,504,l),
(328,560,l),
(312,576,l),
(212,576,l),
(200,588,l),
(200,640,ls),
(200,672,o),
(212,712,o),
(244,712,cs),
(312,712,l),
(328,728,l),
(328,784,l),
(312,800,l),
(244,800,ls),
(152,800,o),
(96,736,o),
(96,640,cs),
(96,588,l),
(84,576,l),
(24,576,l),
(8,560,l),
(8,504,l),
(24,488,l),
(88,488,l),
(96,476,l),
(96,16,l),
(112,0,l)
);
}
);
width = 336;
}
);
unicode = 102;
},
{
color = 4;
glyphname = g;
kernLeft = o;
kernRight = g;
lastChange = "2024-06-20 22:08:17 +0000";
layers = (
{
layerId = m01;
shapes = (
{
closed = 1;
nodes = (
(516,576,l),
(500,560,l),
(492,512,l),
(476,512,l),
(444,556,o),
(376,592,o),
(300,592,cs),
(140,592,o),
(64,452,o),
(64,288,cs),
(64,140,o),
(140,-16,o),
(300,-16,cs),
(388,-16,o),
(444,20,o),
(476,64,c),
(492,56,l),
(492,16,ls),
(492,-100,o),
(432,-152,o),
(332,-152,cs),
(244,-152,o),
(204,-112,o),
(196,-84,c),
(180,-68,l),
(116,-68,l),
(100,-84,l),
(100,-100,l),
(112,-172,o),
(180,-240,o),
(332,-240,cs),
(528,-240,o),
(596,-148,o),
(596,64,cs),
(596,560,l),
(580,576,l)
);
},
{
closed = 1;
nodes = (
(232,80,o),
(172,168,o),
(172,288,cs),
(172,424,o),
(232,496,o),
(332,496,cs),
(420,496,o),
(492,424,o),
(492,288,cs),
(492,152,o),
(420,80,o),
(332,80,cs)
);
}
);
width = 684;
},
{
associatedMasterId = m01;
layerId = "C19FDEAA-47BF-434E-A717-FE03DC2ED072";
name = "Mar 25, 24 at 15:29";
shapes = (
{
closed = 1;
nodes = (
(216,-120,o),
(184,-108,o),
(160,-64,c),
(152,-52,l),
(60,-52,l),
(48,-64,l),
(60,-152,o),
(136,-220,o),
(272,-220,cs),
(408,-220,o),
(532,-144,o),
(532,80,cs),
(532,564,l),
(520,576,l),
(444,576,l),
(428,564,l),
(420,520,l),
(408,520,l),
(408,520,o),
(360,588,o),
(264,588,cs),
(104,588,o),
(16,464,o),
(16,296,cs),
(16,124,o),
(104,4,o),
(264,4,cs),
(360,4,o),
(408,72,o),
(408,72,c),
(420,72,l),
(420,-52,o),
(376,-120,o),
(272,-120,cs)
);
},
{
closed = 1;
nodes = (
(420,160,o),
(360,104,o),
(272,104,cs),
(184,104,o),
(128,172,o),
(128,296,cs),
(128,416,o),
(184,484,o),
(272,484,cs),
(360,484,o),
(420,432,o),
(420,296,cs)
);
}
);
width = 588;
},
{
associatedMasterId = m01;
layerId = "256E6239-4BF3-46C8-B592-65A1B0EE23F7";
name = "Apr 14, 24 at 14:05";
shapes = (
{
closed = 1;
nodes = (
(532,-184,l),
(532,560,l),
(516,576,l),
(464,576,l),
(448,560,l),
(432,512,l),
(416,512,l),
(392,556,o),
(340,592,o),
(268,592,cs),
(120,592,o),
(32,464,o),
(32,288,cs),
(32,112,o),
(116,-16,o),
(268,-16,cs),
(340,-16,o),
(388,20,o),
(416,64,c),
(428,64,l),
(428,-184,l),
(444,-200,l),
(516,-200,l)
);
},
{
closed = 1;
nodes = (
(188,76,o),
(136,164,o),
(136,288,cs),
(136,416,o),
(188,500,o),
(284,500,cs),
(372,500,o),
(436,416,o),
(436,288,cs),
(436,164,o),
(372,76,o),
(284,76,cs)
);
}
);
width = 580;
},
{
associatedMasterId = m01;
layerId = "4336F6EE-756D-47D5-B080-E3051E65105E";
name = "Jun 2, 24 at 20:25";
shapes = (
{
closed = 1;
nodes = (
(468,-220,o),
(532,-120,o),
(532,44,cs),
(532,560,l),
(516,576,l),
(464,576,l),
(448,560,l),
(432,512,l),
(416,512,l),
(392,556,o),
(340,592,o),
(268,592,cs),
(116,592,o),
(32,464,o),
(32,288,cs),
(32,112,o),
(120,-16,o),
(268,-16,cs),
(336,-16,o),
(396,16,o),
(416,64,c),
(428,64,l),
(428,52,ls),
(428,-104,o),
(368,-136,o),
(284,-136,cs),
(220,-136,o),
(172,-120,o),
(152,-72,c),
(136,-56,l),
(76,-56,l),
(60,-72,l),
(60,-88,l),
(72,-160,o),
(176,-220,o),
(272,-220,cs)
);
},
{
closed = 1;
nodes = (
(188,76,o),
(136,160,o),
(136,288,cs),
(136,412,o),
(188,500,o),
(284,500,cs),
(372,500,o),
(436,412,o),
(436,288,cs),
(436,160,o),
(372,76,o),
(284,76,cs)
);
}
);
width = 580;
},
{
layerId = m002;
shapes = (
{
closed = 1;
nodes = (
(464,576,l),
(448,560,l),
(440,512,l),
(424,512,l),
(392,556,o),
(324,592,o),
(248,592,cs),
(88,592,o),
(12,452,o),
(12,288,cs),
(12,140,o),
(88,-16,o),
(248,-16,cs),
(336,-16,o),
(392,20,o),
(424,64,c),
(440,56,l),
(440,32,ls),
(440,-84,o),
(380,-128,o),
(264,-128,cs),
(192,-128,o),
(156,-100,o),
(148,-72,c),
(132,-56,l),
(64,-56,l),
(48,-72,l),
(48,-88,l),
(60,-160,o),
(128,-220,o),
(264,-216,cs),
(476,-212,o),
(544,-148,o),
(544,64,cs),
(544,560,l),
(528,576,l)
);
},
{
closed = 1;
nodes = (
(180,80,o),
(120,168,o),
(120,288,cs),
(120,424,o),
(180,496,o),
(280,496,cs),
(368,496,o),
(440,424,o),
(440,288,cs),
(440,152,o),
(368,80,o),
(280,80,cs)
);
}
);
width = 576;
},
{
associatedMasterId = m002;
layerId = "63EB4426-54D7-4AF1-8925-77063C29C352";
name = "Mar 25, 24 at 15:29";
shapes = (
{
closed = 1;
nodes = (
(216,-120,o),
(184,-108,o),
(160,-64,c),
(152,-52,l),
(60,-52,l),
(48,-64,l),
(60,-152,o),
(136,-220,o),
(272,-220,cs),
(408,-220,o),
(532,-144,o),
(532,80,cs),
(532,564,l),
(520,576,l),
(444,576,l),
(428,564,l),
(420,520,l),
(408,520,l),
(408,520,o),
(360,588,o),
(264,588,cs),
(104,588,o),
(16,464,o),
(16,296,cs),
(16,124,o),
(104,4,o),
(264,4,cs),
(360,4,o),
(408,72,o),
(408,72,c),
(420,72,l),
(420,-52,o),
(376,-120,o),
(272,-120,cs)
);
},
{
closed = 1;
nodes = (
(420,160,o),
(360,104,o),
(272,104,cs),
(184,104,o),
(128,172,o),
(128,296,cs),
(128,416,o),
(184,484,o),
(272,484,cs),
(360,484,o),
(420,432,o),
(420,296,cs)
);
}
);
width = 588;
},
{
associatedMasterId = m002;
layerId = "26E58D9F-4BC8-4AEB-BFEE-F452CD10C466";
name = "Apr 14, 24 at 14:05";
shapes = (
{
closed = 1;
nodes = (
(532,-184,l),
(532,560,l),
(516,576,l),
(464,576,l),
(448,560,l),
(432,512,l),
(416,512,l),
(392,556,o),
(340,592,o),
(268,592,cs),
(120,592,o),
(32,464,o),
(32,288,cs),
(32,112,o),
(116,-16,o),
(268,-16,cs),
(340,-16,o),
(388,20,o),
(416,64,c),
(428,64,l),
(428,-184,l),
(444,-200,l),
(516,-200,l)
);
},
{
closed = 1;
nodes = (
(188,76,o),
(136,164,o),
(136,288,cs),
(136,416,o),
(188,500,o),
(284,500,cs),
(372,500,o),
(436,416,o),
(436,288,cs),
(436,164,o),
(372,76,o),
(284,76,cs)
);
}
);
width = 580;
},
{
associatedMasterId = m002;
layerId = "470173AB-CED6-4BB8-8F6A-365D666521B0";
name = "Jun 2, 24 at 20:25";
shapes = (
{
closed = 1;
nodes = (
(468,-220,o),
(532,-120,o),
(532,44,cs),
(532,560,l),
(516,576,l),
(464,576,l),
(448,560,l),
(432,512,l),
(416,512,l),
(392,556,o),
(340,592,o),
(268,592,cs),
(116,592,o),
(32,464,o),
(32,288,cs),
(32,112,o),
(120,-16,o),
(268,-16,cs),
(336,-16,o),
(396,16,o),
(416,64,c),
(428,64,l),
(428,52,ls),
(428,-104,o),
(368,-136,o),
(284,-136,cs),
(220,-136,o),
(172,-120,o),
(152,-72,c),
(136,-56,l),
(76,-56,l),
(60,-72,l),
(60,-88,l),
(72,-160,o),
(176,-220,o),
(272,-220,cs)
);
},
{
closed = 1;
nodes = (
(188,76,o),
(136,160,o),
(136,288,cs),
(136,412,o),
(188,500,o),
(284,500,cs),
(372,500,o),
(436,412,o),
(436,288,cs),
(436,160,o),
(372,76,o),
(284,76,cs)
);
}
);
width = 580;
}
);
unicode = 103;
},
{
color = 4;
glyphname = h;
lastChange = "2024-06-20 22:08:17 +0000";
layers = (
{
layerId = m01;
shapes = (
{
closed = 1;
nodes = (
(176,0,l),
(192,16,l),
(192,352,ls),
(192,448,o),
(236,504,o),
(332,504,cs),
(428,504,o),
(472,448,o),
(472,352,cs),
(472,16,l),
(488,0,l),
(560,0,l),
(576,16,l),
(576,336,ls),
(576,496,o),
(524,592,o),
(364,592,cs),
(292,592,o),
(240,560,o),
(204,512,c),
(192,512,l),
(192,784,l),
(176,800,l),
(104,800,l),
(88,784,l),
(88,16,l),
(104,0,l)
);
}
);
width = 648;
},
{
layerId = m002;
shapes = (
{
closed = 1;
nodes = (
(120,0,l),
(136,16,l),
(136,352,ls),
(136,448,o),
(180,504,o),
(276,504,cs),
(372,504,o),
(416,448,o),
(416,352,cs),
(416,16,l),
(432,0,l),
(504,0,l),
(520,16,l),
(520,336,ls),
(520,496,o),
(468,592,o),
(308,592,cs),
(236,592,o),
(184,560,o),
(148,512,c),
(136,512,l),
(136,784,l),
(120,800,l),
(48,800,l),
(32,784,l),
(32,16,l),
(48,0,l)
);
}
);
width = 548;
}
);
unicode = 104;
},
{
color = 4;
glyphname = i;
lastChange = "2024-06-20 22:08:17 +0000";
layers = (
{
layerId = m01;
shapes = (
{
closed = 1;
nodes = (
(184,684,l),
(200,700,l),
(200,784,l),
(184,800,l),
(104,800,l),
(88,784,l),
(88,700,l),
(104,684,l)
);
},
{
closed = 1;
nodes = (
(180,0,l),
(196,16,l),
(196,560,l),
(180,576,l),
(108,576,l),
(92,560,l),
(92,16,l),
(108,0,l)
);
}
);
width = 288;
},
{
layerId = m002;
shapes = (
{
closed = 1;
nodes = (
(120,684,l),
(136,700,l),
(136,784,l),
(120,800,l),
(48,800,l),
(32,784,l),
(32,700,l),
(48,684,l)
);
},
{
closed = 1;
nodes = (
(120,0,l),
(136,16,l),
(136,560,l),
(120,576,l),
(48,576,l),
(32,560,l),
(32,16,l),
(48,0,l)
);
}
);
width = 168;
}
);
unicode = 105;
},
{
color = 4;
glyphname = idotless;
lastChange = "2024-06-20 22:08:17 +0000";
layers = (
{
layerId = m01;
shapes = (
{
closed = 1;
nodes = (
(160,0,l),
(176,16,l),
(176,560,l),
(160,576,l),
(80,576,l),
(64,560,l),
(64,16,l),
(80,0,l)
);
}
);
width = 240;
},
{
layerId = m002;
shapes = (
{
closed = 1;
nodes = (
(160,0,l),
(176,16,l),
(176,560,l),
(160,576,l),
(80,576,l),
(64,560,l),
(64,16,l),
(80,0,l)
);
}
);
width = 240;
}
);
unicode = 305;
},
{
color = 4;
glyphname = iacute;
lastChange = "2024-06-20 22:08:17 +0000";
layers = (
{
layerId = m01;
shapes = (
{
ref = idotless;
},
{
closed = 1;
nodes = (
(144,656,l),
(176,672,l),
(224,768,l),
(224,784,l),
(208,800,l),
(152,800,l),
(120,784,l),
(80,688,l),
(80,672,l),
(96,656,l)
);
}
);
width = 240;
},
{
layerId = m002;
shapes = (
{
ref = idotless;
},
{
closed = 1;
nodes = (
(144,656,l),
(176,672,l),
(224,768,l),
(224,784,l),
(208,800,l),
(152,800,l),
(120,784,l),
(80,688,l),
(80,672,l),
(96,656,l)
);
}
);
width = 240;
}
);
unicode = 237;
},
{
color = 4;
glyphname = j;
lastChange = "2024-06-20 22:08:17 +0000";
layers = (
{
layerId = m01;
shapes = (
{
closed = 1;
nodes = (
(20,-200,ls),
(100,-200,o),
(172,-156,o),
(172,-52,cs),
(172,560,l),
(156,576,l),
(84,576,l),
(68,560,l),
(68,-52,ls),
(68,-88,o),
(56,-100,o),
(28,-100,cs),
(-24,-100,l),
(-40,-116,l),
(-40,-184,l),
(-24,-200,l)
);
},
{
closed = 1;
nodes = (
(160,684,l),
(176,700,l),
(176,784,l),
(160,800,l),
(80,800,l),
(64,784,l),
(64,700,l),
(80,684,l)
);
}
);
width = 240;
},
{
layerId = m002;
shapes = (
{
closed = 1;
nodes = (
(8,-200,ls),
(104,-200,o),
(136,-168,o),
(136,-72,cs),
(136,560,l),
(120,576,l),
(48,576,l),
(32,560,l),
(32,-80,ls),
(32,-104,o),
(24,-112,o),
(0,-112,cs),
(-64,-112,l),
(-80,-128,l),
(-80,-184,l),
(-64,-200,l)
);
},
{
closed = 1;
nodes = (
(120,684,l),
(136,700,l),
(136,784,l),
(120,800,l),
(48,800,l),
(32,784,l),
(32,700,l),
(48,684,l)
);
}
);
width = 168;
}
);
unicode = 106;
},
{
color = 4;
glyphname = k;
kernLeft = k;
kernRight = k;
lastChange = "2024-06-20 22:08:17 +0000";
layers = (
{
layerId = m01;
shapes = (
{
closed = 1;
nodes = (
(176,0,l),
(192,16,l),
(192,216,l),
(264,284,l),
(280,284,l),
(464,12,l),
(480,0,l),
(528,0,l),
(544,16,l),
(544,64,l),
(360,340,l),
(360,360,l),
(544,536,l),
(544,560,l),
(528,576,l),
(460,576,l),
(208,348,l),
(192,348,l),
(192,784,l),
(176,800,l),
(104,800,l),
(88,784,l),
(88,16,l),
(104,0,l)
);
}
);
width = 568;
},
{
layerId = m002;
shapes = (
{
closed = 1;
nodes = (
(120,0,l),
(136,16,l),
(136,216,l),
(208,284,l),
(224,284,l),
(408,12,l),
(424,0,l),
(472,0,l),
(488,16,l),
(488,64,l),
(296,336,l),
(296,352,l),
(488,528,l),
(488,560,l),
(472,576,l),
(408,576,l),
(152,348,l),
(136,348,l),
(136,784,l),
(120,800,l),
(48,800,l),
(32,784,l),
(32,16,l),
(48,0,l)
);
}
);
width = 512;
}
);
unicode = 107;
},
{
color = 4;
glyphname = l;
lastChange = "2024-06-20 22:08:17 +0000";
layers = (
{
layerId = m01;
shapes = (
{
closed = 1;
nodes = (
(176,0,l),
(192,16,l),
(192,784,l),
(176,800,l),
(104,800,l),
(88,784,l),
(88,16,l),
(104,0,l)
);
}
);
width = 280;
},
{
layerId = m002;
shapes = (
{
closed = 1;
nodes = (
(120,0,l),
(136,16,l),
(136,784,l),
(120,800,l),
(48,800,l),
(32,784,l),
(32,16,l),
(48,0,l)
);
}
);
width = 168;
}
);
unicode = 108;
},
{
color = 4;
glyphname = m;
lastChange = "2024-06-20 22:08:17 +0000";
layers = (
{
layerId = m01;
shapes = (
{
closed = 1;
nodes = (
(176,0,l),
(192,16,l),
(192,352,ls),
(192,448,o),
(216,504,o),
(312,504,cs),
(408,504,o),
(432,448,o),
(432,352,cs),
(432,16,l),
(448,0,l),
(520,0,l),
(536,16,l),
(536,352,ls),
(536,448,o),
(560,504,o),
(656,504,cs),
(752,504,o),
(776,448,o),
(776,352,cs),
(776,16,l),
(792,0,l),
(864,0,l),
(880,16,l),
(880,352,ls),
(880,496,o),
(832,592,o),
(672,592,cs),
(592,592,o),
(536,560,o),
(512,512,c),
(496,512,l),
(480,560,o),
(424,592,o),
(344,592,cs),
(264,592,o),
(220,552,o),
(204,512,c),
(188,512,l),
(172,560,l),
(156,576,l),
(104,576,l),
(88,560,l),
(88,16,l),
(104,0,l)
);
}
);
width = 960;
},
{
layerId = m002;
shapes = (
{
closed = 1;
nodes = (
(120,0,l),
(136,16,l),
(136,352,ls),
(136,448,o),
(160,504,o),
(256,504,cs),
(352,504,o),
(376,448,o),
(376,352,cs),
(376,16,l),
(392,0,l),
(464,0,l),
(480,16,l),
(480,352,ls),
(480,448,o),
(504,504,o),
(600,504,cs),
(696,504,o),
(720,448,o),
(720,352,cs),
(720,16,l),
(736,0,l),
(808,0,l),
(824,16,l),
(824,352,ls),
(824,496,o),
(776,592,o),
(616,592,cs),
(536,592,o),
(480,560,o),
(456,512,c),
(440,512,l),
(424,560,o),
(368,592,o),
(288,592,cs),
(208,592,o),
(164,552,o),
(148,512,c),
(132,512,l),
(116,560,l),
(100,576,l),
(48,576,l),
(32,560,l),
(32,16,l),
(48,0,l)
);
}
);
width = 844;
}
);
unicode = 109;
},
{
color = 4;
glyphname = n;
kernLeft = n;
kernRight = n;
lastChange = "2024-06-21 17:23:40 +0000";
layers = (
{
layerId = m01;
shapes = (
{
closed = 1;
nodes = (
(176,0,l),
(192,16,l),
(192,348,ls),
(192,444,o),
(236,496,o),
(332,496,cs),
(428,496,o),
(472,444,o),
(472,348,cs),
(472,16,l),
(488,0,l),
(560,0,l),
(576,16,l),
(576,332,ls),
(576,492,o),
(524,592,o),
(364,592,cs),
(284,592,o),
(232,560,o),
(200,512,c),
(188,512,l),
(172,560,l),
(156,576,l),
(104,576,l),
(88,560,l),
(88,16,l),
(104,0,l)
);
}
);
width = 648;
},
{
backgroundImage = {
imagePath = "/Users/eli/Desktop/Screenshot 2024-06-19 at 9.38.17 PM.png";
pos = (-2924,1572);
scale = (19,19);
};
layerId = m002;
shapes = (
{
closed = 1;
nodes = (
(120,0,l),
(136,16,l),
(136,348,ls),
(136,444,o),
(180,500,o),
(276,500,cs),
(372,500,o),
(416,444,o),
(416,348,cs),
(416,16,l),
(432,0,l),
(504,0,l),
(520,16,l),
(520,332,ls),
(520,492,o),
(468,592,o),
(308,592,cs),
(228,592,o),
(176,560,o),
(144,512,c),
(132,512,l),
(124,560,l),
(108,576,l),
(48,576,l),
(32,560,l),
(32,16,l),
(48,0,l)
);
}
);
width = 548;
},
{
associatedMasterId = m002;
layerId = "350B6BF2-80C8-4AA4-AF3F-D312A2612149";
name = "Jun 19, 24 at 20:43";
shapes = (
{
closed = 1;
nodes = (
(120,0,l),
(136,16,l),
(136,348,ls),
(136,444,o),
(180,500,o),
(276,500,cs),
(372,500,o),
(416,444,o),
(416,348,cs),
(416,16,l),
(432,0,l),
(504,0,l),
(520,16,l),
(520,332,ls),
(520,492,o),
(468,592,o),
(308,592,cs),
(228,592,o),
(176,560,o),
(144,512,c),
(132,512,l),
(116,560,l),
(100,576,l),
(48,576,l),
(32,560,l),
(32,16,l),
(48,0,l)
);
}
);
width = 548;
},
{
associatedMasterId = m002;
backgroundImage = {
imagePath = "/Users/eli/Desktop/Screenshot 2024-06-19 at 9.38.17 PM.png";
pos = (-996,-288);
scale = (19,19);
};
layerId = "EE499BA1-994F-4714-B59C-558529926FE4";
name = "Jun 20, 24 at 21:58";
shapes = (
{
closed = 1;
nodes = (
(120,0,l),
(136,16,l),
(136,348,ls),
(136,444,o),
(180,500,o),
(276,500,cs),
(372,500,o),
(416,444,o),
(416,348,cs),
(416,16,l),
(432,0,l),
(504,0,l),
(520,16,l),
(520,332,ls),
(520,492,o),
(468,592,o),
(308,592,cs),
(228,592,o),
(176,560,o),
(144,512,c),
(132,512,l),
(116,560,l),
(100,576,l),
(48,576,l),
(32,560,l),
(32,16,l),
(48,0,l)
);
}
);
width = 548;
},
{
associatedMasterId = m002;
backgroundImage = {
imagePath = "/Users/eli/Desktop/Screenshot 2024-06-19 at 9.38.17 PM.png";
pos = (-2924,1572);
scale = (19,19);
};
layerId = "21147465-DAD8-4808-8F07-C7733904C2E8";
name = "Jun 20, 24 at 22:00";
shapes = (
{
closed = 1;
nodes = (
(352,220,o),
(416,284,o),
(416,360,cs),
(416,436,o),
(352,500,o),
(276,500,cs),
(200,500,o),
(136,436,o),
(136,360,cs),
(136,284,o),
(200,220,o),
(276,220,cs)
);
},
{
closed = 1;
nodes = (
(140,104,o),
(32,212,o),
(32,348,cs),
(32,484,o),
(140,592,o),
(276,592,cs),
(412,592,o),
(520,484,o),
(520,348,cs),
(520,212,o),
(412,104,o),
(276,104,cs)
);
}
);
visible = 1;
width = 548;
}
);
unicode = 110;
},
{
color = 4;
glyphname = o;
kernLeft = o;
kernRight = o;
lastChange = "2024-06-21 17:14:09 +0000";
layers = (
{
layerId = m01;
shapes = (
{
closed = 1;
nodes = (
(516,-16,o),
(616,108,o),
(616,288,cs),
(616,468,o),
(516,592,o),
(340,592,cs),
(164,592,o),
(64,468,o),
(64,288,cs),
(64,108,o),
(164,-16,o),
(340,-16,cs)
);
},
{
closed = 1;
nodes = (
(220,76,o),
(172,164,o),
(172,288,cs),
(172,412,o),
(220,500,o),
(340,500,cs),
(460,500,o),
(508,412,o),
(508,288,cs),
(508,164,o),
(460,76,o),
(340,76,cs)
);
}
);
width = 680;
},
{
backgroundImage = {
imagePath = "/Users/eli/Desktop/Screenshot 2024-06-19 at 9.38.17 PM.png";
pos = (-2072,1368);
scale = (19,19);
};
layerId = m002;
shapes = (
{
closed = 1;
nodes = (
(476,-16,o),
(576,108,o),
(576,288,cs),
(576,468,o),
(476,592,o),
(296,592,cs),
(116,592,o),
(16,468,o),
(16,288,cs),
(16,108,o),
(116,-16,o),
(296,-16,cs)
);
},
{
closed = 1;
nodes = (
(172,76,o),
(124,164,o),
(124,288,cs),
(124,412,o),
(172,500,o),
(296,500,cs),
(420,500,o),
(468,412,o),
(468,288,cs),
(468,164,o),
(420,76,o),
(296,76,cs)
);
}
);
width = 592;
},
{
associatedMasterId = m002;
layerId = "737F35C6-C34D-4230-8736-04069AEA648F";
name = "Jun 19, 24 at 20:42";
shapes = (
{
closed = 1;
nodes = (
(468,-16,o),
(568,108,o),
(568,288,cs),
(568,468,o),
(468,592,o),
(292,592,cs),
(116,592,o),
(16,468,o),
(16,288,cs),
(16,108,o),
(116,-16,o),
(292,-16,cs)
);
},
{
closed = 1;
nodes = (
(172,76,o),
(124,164,o),
(124,288,cs),
(124,412,o),
(172,500,o),
(292,500,cs),
(412,500,o),
(460,412,o),
(460,288,cs),
(460,164,o),
(412,76,o),
(292,76,cs)
);
}
);
visible = 1;
width = 584;
}
);
unicode = 111;
},
{
color = 4;
glyphname = p;
kernLeft = p;
kernRight = p;
lastChange = "2024-06-20 22:08:17 +0000";
layers = (
{
layerId = m01;
shapes = (
{
closed = 1;
nodes = (
(176,-200,l),
(192,-184,l),
(192,56,l),
(208,64,l),
(240,20,o),
(296,-16,o),
(384,-16,cs),
(544,-16,o),
(620,124,o),
(620,288,cs),
(620,452,o),
(544,592,o),
(384,592,cs),
(308,592,o),
(240,556,o),
(208,512,c),
(192,512,l),
(184,560,l),
(168,576,l),
(104,576,l),
(88,560,l),
(88,-184,l),
(104,-200,l)
);
},
{
closed = 1;
nodes = (
(264,80,o),
(192,152,o),
(192,288,cs),
(192,424,o),
(264,496,o),
(352,496,cs),
(452,496,o),
(512,424,o),
(512,288,cs),
(512,152,o),
(452,80,o),
(352,80,cs)
);
}
);
width = 684;
},
{
associatedMasterId = m01;
layerId = "D3BFE042-7938-4F42-8C60-3775559CC9EE";
name = "Mar 24, 24 at 21:35";
shapes = (
{
closed = 1;
nodes = (
(464,-16,o),
(556,112,o),
(556,288,cs),
(556,464,o),
(464,592,o),
(288,592,cs),
(112,592,o),
(20,464,o),
(20,288,cs),
(20,112,o),
(112,-16,o),
(288,-16,cs)
);
},
{
closed = 1;
nodes = (
(168,76,o),
(124,168,o),
(124,288,cs),
(124,408,o),
(168,500,o),
(288,500,cs),
(408,500,o),
(452,408,o),
(452,288,cs),
(452,168,o),
(408,76,o),
(288,76,cs)
);
}
);
width = 592;
},
{
associatedMasterId = m01;
layerId = "10060E72-9572-49E0-A1DE-948A8893D78F";
name = "Jun 2, 24 at 22:47";
shapes = (
{
closed = 1;
nodes = (
(136,-200,l),
(152,-184,l),
(152,64,l),
(164,64,l),
(192,20,o),
(240,-16,o),
(312,-16,cs),
(464,-16,o),
(548,112,o),
(548,288,cs),
(548,464,o),
(460,592,o),
(312,592,cs),
(240,592,o),
(188,556,o),
(164,512,c),
(148,512,l),
(132,560,l),
(116,576,l),
(64,576,l),
(48,560,l),
(48,-184,l),
(64,-200,l)
);
},
{
closed = 1;
nodes = (
(208,76,o),
(144,164,o),
(144,288,cs),
(144,416,o),
(208,500,o),
(296,500,cs),
(392,500,o),
(444,416,o),
(444,288,cs),
(444,164,o),
(392,76,o),
(296,76,cs)
);
}
);
width = 580;
},
{
layerId = m002;
shapes = (
{
closed = 1;
nodes = (
(120,-200,l),
(136,-184,l),
(136,56,l),
(152,64,l),
(184,20,o),
(240,-16,o),
(328,-16,cs),
(488,-16,o),
(564,124,o),
(564,288,cs),
(564,452,o),
(488,592,o),
(328,592,cs),
(252,592,o),
(184,556,o),
(152,512,c),
(136,512,l),
(128,560,l),
(112,576,l),
(48,576,l),
(32,560,l),
(32,-184,l),
(48,-200,l)
);
},
{
closed = 1;
nodes = (
(208,80,o),
(136,152,o),
(136,288,cs),
(136,424,o),
(208,496,o),
(296,496,cs),
(396,496,o),
(456,424,o),
(456,288,cs),
(456,152,o),
(396,80,o),
(296,80,cs)
);
}
);
width = 576;
},
{
associatedMasterId = m002;
layerId = "2EC4A347-DB38-4213-BAF1-E61F4590E143";
name = "Mar 24, 24 at 21:35";
shapes = (
{
closed = 1;
nodes = (
(464,-16,o),
(556,112,o),
(556,288,cs),
(556,464,o),
(464,592,o),
(288,592,cs),
(112,592,o),
(20,464,o),
(20,288,cs),
(20,112,o),
(112,-16,o),
(288,-16,cs)
);
},
{
closed = 1;
nodes = (
(168,76,o),
(124,168,o),
(124,288,cs),
(124,408,o),
(168,500,o),
(288,500,cs),
(408,500,o),
(452,408,o),
(452,288,cs),
(452,168,o),
(408,76,o),
(288,76,cs)
);
}
);
width = 592;
},
{
associatedMasterId = m002;
layerId = "4E99E9EA-1A6E-4988-9032-01E41A9F8A46";
name = "Jun 2, 24 at 22:47";
shapes = (
{
closed = 1;
nodes = (
(136,-200,l),
(152,-184,l),
(152,64,l),
(164,64,l),
(192,20,o),
(240,-16,o),
(312,-16,cs),
(464,-16,o),
(548,112,o),
(548,288,cs),
(548,464,o),
(460,592,o),
(312,592,cs),
(240,592,o),
(188,556,o),
(164,512,c),
(148,512,l),
(132,560,l),
(116,576,l),
(64,576,l),
(48,560,l),
(48,-184,l),
(64,-200,l)
);
},
{
closed = 1;
nodes = (
(208,76,o),
(144,164,o),
(144,288,cs),
(144,416,o),
(208,500,o),
(296,500,cs),
(392,500,o),
(444,416,o),
(444,288,cs),
(444,164,o),
(392,76,o),
(296,76,cs)
);
}
);
width = 580;
}
);
unicode = 112;
},
{
color = 4;
glyphname = q;
lastChange = "2024-06-20 22:08:17 +0000";
layers = (
{
layerId = m01;
shapes = (
{
closed = 1;
nodes = (
(580,-184,l),
(580,560,l),
(564,576,l),
(500,576,l),
(484,560,l),
(476,512,l),
(460,512,l),
(428,556,o),
(360,592,o),
(284,592,cs),
(124,592,o),
(48,452,o),
(48,288,cs),
(48,124,o),
(124,-16,o),
(284,-16,cs),
(372,-16,o),
(428,20,o),
(460,64,c),
(476,56,l),
(476,-184,l),
(492,-200,l),
(564,-200,l)
);
},
{
closed = 1;
nodes = (
(216,80,o),
(156,152,o),
(156,288,cs),
(156,424,o),
(216,496,o),
(316,496,cs),
(404,496,o),
(476,424,o),
(476,288,cs),
(476,152,o),
(404,80,o),
(316,80,cs)
);
}
);
width = 660;
},
{
layerId = m002;
shapes = (
{
closed = 1;
nodes = (
(544,-184,l),
(544,560,l),
(528,576,l),
(464,576,l),
(448,560,l),
(440,512,l),
(424,512,l),
(392,556,o),
(324,592,o),
(248,592,cs),
(88,592,o),
(12,452,o),
(12,288,cs),
(12,124,o),
(88,-16,o),
(248,-16,cs),
(336,-16,o),
(392,20,o),
(424,64,c),
(440,56,l),
(440,-184,l),
(456,-200,l),
(528,-200,l)
);
},
{
closed = 1;
nodes = (
(180,80,o),
(120,152,o),
(120,288,cs),
(120,424,o),
(180,496,o),
(280,496,cs),
(368,496,o),
(440,424,o),
(440,288,cs),
(440,152,o),
(368,80,o),
(280,80,cs)
);
}
);
width = 608;
}
);
unicode = 113;
},
{
color = 4;
glyphname = r;
kernLeft = n;
kernRight = r;
lastChange = "2024-06-20 22:08:17 +0000";
layers = (
{
layerId = m01;
shapes = (
{
closed = 1;
nodes = (
(176,0,l),
(192,16,l),
(192,320,ls),
(192,432,o),
(228,488,o),
(300,488,cs),
(356,488,l),
(372,504,l),
(372,560,l),
(356,576,l),
(320,576,ls),
(272,576,o),
(240,560,o),
(204,512,c),
(188,512,l),
(180,560,l),
(164,576,l),
(104,576,l),
(88,560,l),
(88,16,l),
(104,0,l)
);
}
);
width = 412;
},
{
associatedMasterId = m01;
layerId = "EFD813B6-53D8-4E5A-A399-47427410ECAA";
name = "Mar 24, 24 at 13:29";
shapes = (
{
closed = 1;
nodes = (
(144,0,l),
(160,16,l),
(160,352,ls),
(160,448,o),
(204,504,o),
(300,504,cs),
(396,504,o),
(440,448,o),
(440,352,cs),
(440,16,l),
(456,0,l),
(528,0,l),
(544,16,l),
(544,336,ls),
(544,496,o),
(492,592,o),
(332,592,cs),
(260,592,o),
(196,560,o),
(160,512,c),
(144,512,l),
(128,560,l),
(112,576,l),
(72,576,l),
(56,560,l),
(56,16,l),
(72,0,l)
);
}
);
width = 360;
},
{
layerId = m002;
shapes = (
{
closed = 1;
nodes = (
(120,0,l),
(136,16,l),
(136,320,ls),
(136,432,o),
(172,488,o),
(244,488,cs),
(300,488,l),
(316,504,l),
(316,560,l),
(300,576,l),
(264,576,ls),
(216,576,o),
(184,560,o),
(148,512,c),
(132,512,l),
(124,560,l),
(108,576,l),
(48,576,l),
(32,560,l),
(32,16,l),
(48,0,l)
);
}
);
width = 324;
},
{
associatedMasterId = m002;
layerId = "840AD79D-5CE0-476F-A57C-1D33C551FC22";
name = "Mar 24, 24 at 13:29";
shapes = (
{
closed = 1;
nodes = (
(144,0,l),
(160,16,l),
(160,352,ls),
(160,448,o),
(204,504,o),
(300,504,cs),
(396,504,o),
(440,448,o),
(440,352,cs),
(440,16,l),
(456,0,l),
(528,0,l),
(544,16,l),
(544,336,ls),
(544,496,o),
(492,592,o),
(332,592,cs),
(260,592,o),
(196,560,o),
(160,512,c),
(144,512,l),
(128,560,l),
(112,576,l),
(72,576,l),
(56,560,l),
(56,16,l),
(72,0,l)
);
}
);
width = 360;
}
);
unicode = 114;
},
{
color = 4;
glyphname = s;
kernLeft = s;
kernRight = s;
lastChange = "2024-06-20 22:08:17 +0000";
layers = (
{
layerId = m01;
shapes = (
{
closed = 1;
nodes = (
(436,-16,o),
(520,52,o),
(520,160,cs),
(520,252,o),
(448,308,o),
(336,332,cs),
(224,356,o),
(152,368,o),
(152,424,cs),
(152,472,o),
(184,504,o),
(264,504,cs),
(348,504,o),
(396,472,o),
(396,420,c),
(412,404,l),
(480,404,l),
(496,420,l),
(496,540,o),
(396,592,o),
(264,592,cs),
(108,592,o),
(48,504,o),
(48,424,cs),
(48,328,o),
(124,280,o),
(248,256,cs),
(360,236,o),
(416,208,o),
(416,156,cs),
(416,104,o),
(376,72,o),
(280,72,cs),
(200,72,o),
(148,88,o),
(148,168,c),
(132,184,l),
(64,184,l),
(48,168,l),
(48,40,o),
(132,-16,o),
(280,-16,cs)
);
}
);
width = 568;
},
{
layerId = m002;
shapes = (
{
closed = 1;
nodes = (
(396,-16,o),
(480,52,o),
(480,160,cs),
(480,252,o),
(408,308,o),
(296,332,cs),
(184,356,o),
(112,368,o),
(112,424,cs),
(112,472,o),
(144,504,o),
(224,504,cs),
(308,504,o),
(356,472,o),
(356,420,c),
(372,404,l),
(440,404,l),
(456,420,l),
(456,540,o),
(356,592,o),
(224,592,cs),
(68,592,o),
(8,504,o),
(8,424,cs),
(8,328,o),
(84,280,o),
(208,256,cs),
(320,236,o),
(376,208,o),
(376,156,cs),
(376,104,o),
(336,72,o),
(240,72,cs),
(160,72,o),
(108,88,o),
(108,168,c),
(92,184,l),
(24,184,l),
(8,168,l),
(8,40,o),
(92,-16,o),
(240,-16,cs)
);
}
);
width = 488;
}
);
unicode = 115;
},
{
color = 4;
glyphname = t;
kernLeft = t;
kernRight = t;
lastChange = "2024-06-21 17:25:26 +0000";
layers = (
{
layerId = m01;
shapes = (
{
closed = 1;
nodes = (
(344,0,l),
(360,16,l),
(360,72,l),
(344,88,l),
(280,88,ls),
(248,88,o),
(232,104,o),
(232,136,cs),
(232,476,l),
(244,488,l),
(344,488,l),
(360,504,l),
(360,560,l),
(344,576,l),
(244,576,l),
(232,588,l),
(232,720,l),
(216,736,l),
(144,736,l),
(128,720,l),
(128,588,l),
(116,576,l),
(56,576,l),
(40,560,l),
(40,504,l),
(56,488,l),
(116,488,l),
(128,476,l),
(128,120,ls),
(128,32,o),
(176,0,o),
(264,0,cs)
);
}
);
width = 404;
},
{
layerId = m002;
shapes = (
{
closed = 1;
nodes = (
(312,0,l),
(328,16,l),
(328,72,l),
(312,88,l),
(248,88,ls),
(216,88,o),
(200,104,o),
(200,136,cs),
(200,476,l),
(212,488,l),
(312,488,l),
(328,504,l),
(328,560,l),
(312,576,l),
(212,576,l),
(200,588,l),
(200,712,l),
(184,728,l),
(112,728,l),
(96,712,l),
(96,588,l),
(84,576,l),
(32,576,l),
(16,560,l),
(16,504,l),
(32,488,l),
(84,488,l),
(96,476,l),
(96,120,ls),
(96,32,o),
(144,0,o),
(232,0,cs)
);
}
);
width = 340;
}
);
unicode = 116;
},
{
color = 4;
glyphname = u;
lastChange = "2024-06-20 22:08:17 +0000";
layers = (
{
anchors = (
{
name = bottom;
pos = (316,0);
},
{
name = top;
pos = (316,576);
}
);
layerId = m01;
shapes = (
{
closed = 1;
nodes = (
(472,576,l),
(456,560,l),
(456,224,ls),
(456,128,o),
(412,72,o),
(316,72,cs),
(220,72,o),
(176,128,o),
(176,224,cs),
(176,560,l),
(160,576,l),
(88,576,l),
(72,560,l),
(72,240,ls),
(72,80,o),
(124,-16,o),
(284,-16,cs),
(364,-16,o),
(416,16,o),
(448,64,c),
(460,64,l),
(476,16,l),
(492,0,l),
(544,0,l),
(560,16,l),
(560,560,l),
(544,576,l)
);
}
);
width = 648;
},
{
anchors = (
{
name = bottom;
pos = (268,0);
},
{
name = top;
pos = (268,576);
}
);
layerId = m002;
shapes = (
{
closed = 1;
nodes = (
(424,576,l),
(408,560,l),
(408,224,ls),
(408,128,o),
(364,72,o),
(268,72,cs),
(172,72,o),
(128,128,o),
(128,224,cs),
(128,560,l),
(112,576,l),
(40,576,l),
(24,560,l),
(24,240,ls),
(24,80,o),
(76,-16,o),
(236,-16,cs),
(316,-16,o),
(368,16,o),
(400,64,c),
(412,64,l),
(428,16,l),
(444,0,l),
(496,0,l),
(512,16,l),
(512,560,l),
(496,576,l)
);
}
);
width = 544;
}
);
unicode = 117;
},
{
color = 4;
glyphname = umacron;
lastChange = "2024-06-20 22:08:17 +0000";
layers = (
{
layerId = m01;
shapes = (
{
ref = u;
},
{
closed = 1;
nodes = (
(432,704,l),
(448,720,l),
(448,784,l),
(432,800,l),
(152,800,l),
(136,784,l),
(136,720,l),
(152,704,l)
);
}
);
width = 600;
},
{
layerId = m002;
shapes = (
{
ref = u;
},
{
closed = 1;
nodes = (
(408,648,l),
(424,664,l),
(424,716,l),
(408,732,l),
(128,732,l),
(112,716,l),
(112,664,l),
(128,648,l)
);
}
);
width = 544;
}
);
unicode = 363;
},
{
color = 4;
glyphname = v;
kernLeft = v;
kernRight = v;
lastChange = "2024-06-20 22:08:17 +0000";
layers = (
{
layerId = m01;
shapes = (
{
closed = 1;
nodes = (
(348,0,l),
(364,16,l),
(544,504,l),
(544,560,l),
(528,576,l),
(472,576,l),
(456,560,l),
(304,120,l),
(288,120,l),
(136,560,l),
(120,576,l),
(64,576,l),
(48,560,l),
(48,504,l),
(228,16,l),
(244,0,l)
);
}
);
width = 592;
},
{
associatedMasterId = m01;
layerId = "AB412B74-10CC-4135-B60A-75AADCD4278F";
name = "Mar 27, 24 at 18:17";
shapes = (
{
closed = 1;
nodes = (
(96,-200,ls),
(224,-200,o),
(256,-196,o),
(328,0,cs),
(512,500,l),
(512,560,l),
(496,576,l),
(444,576,l),
(428,560,l),
(272,124,l),
(256,124,l),
(104,560,l),
(88,576,l),
(32,576,l),
(16,560,l),
(16,500,l),
(208,-32,l),
(208,-48,l),
(200,-72,ls),
(192,-100,o),
(168,-112,o),
(132,-112,cs),
(80,-112,l),
(64,-128,l),
(64,-184,l),
(80,-200,l)
);
}
);
visible = 1;
width = 528;
},
{
layerId = m002;
shapes = (
{
closed = 1;
nodes = (
(312,0,l),
(328,16,l),
(512,504,l),
(512,560,l),
(496,576,l),
(448,576,l),
(432,560,l),
(272,120,l),
(256,120,l),
(96,560,l),
(80,576,l),
(32,576,l),
(16,560,l),
(16,504,l),
(200,16,l),
(216,0,l)
);
}
);
width = 528;
},
{
associatedMasterId = m002;
layerId = "BF1F0548-0DBF-4EFD-BA66-DFE38F5D1846";
name = "Mar 27, 24 at 18:17";
shapes = (
{
closed = 1;
nodes = (
(96,-200,ls),
(224,-200,o),
(256,-196,o),
(328,0,cs),
(512,500,l),
(512,560,l),
(496,576,l),
(444,576,l),
(428,560,l),
(272,124,l),
(256,124,l),
(104,560,l),
(88,576,l),
(32,576,l),
(16,560,l),
(16,500,l),
(208,-32,l),
(208,-48,l),
(200,-72,ls),
(192,-100,o),
(168,-112,o),
(132,-112,cs),
(80,-112,l),
(64,-128,l),
(64,-184,l),
(80,-200,l)
);
}
);
width = 528;
}
);
unicode = 118;
},
{
color = 4;
glyphname = w;
kernLeft = w;
kernRight = w;
lastChange = "2024-06-20 22:08:17 +0000";
layers = (
{
layerId = m01;
shapes = (
{
closed = 1;
nodes = (
(280,0,l),
(296,16,l),
(404,468,l),
(420,468,l),
(528,16,l),
(544,0,l),
(668,0,l),
(684,16,l),
(792,500,l),
(792,560,l),
(776,576,l),
(720,576,l),
(704,560,l),
(608,108,l),
(592,108,l),
(484,560,l),
(468,576,l),
(356,576,l),
(340,560,l),
(228,108,l),
(216,108,l),
(120,560,l),
(104,576,l),
(48,576,l),
(32,560,l),
(32,500,l),
(140,16,l),
(156,0,l)
);
}
);
width = 824;
},
{
layerId = m002;
shapes = (
{
closed = 1;
nodes = (
(252,0,l),
(268,16,l),
(380,468,l),
(396,468,l),
(508,16,l),
(524,0,l),
(644,0,l),
(660,16,l),
(768,500,l),
(768,560,l),
(752,576,l),
(696,576,l),
(680,560,l),
(584,108,l),
(568,108,l),
(460,560,l),
(444,576,l),
(332,576,l),
(316,560,l),
(204,108,l),
(192,108,l),
(96,560,l),
(80,576,l),
(24,576,l),
(8,560,l),
(8,500,l),
(116,16,l),
(132,0,l)
);
}
);
width = 776;
}
);
unicode = 119;
},
{
color = 4;
glyphname = x;
kernLeft = x;
kernRight = x;
lastChange = "2024-06-20 22:08:17 +0000";
layers = (
{
layerId = m01;
shapes = (
{
closed = 1;
nodes = (
(92,0,l),
(276,220,l),
(292,220,l),
(472,0,l),
(520,0,l),
(536,16,l),
(536,80,l),
(528,96,l),
(356,292,l),
(356,308,l),
(508,480,l),
(516,496,l),
(516,560,l),
(500,576,l),
(456,576,l),
(288,372,l),
(272,372,l),
(112,576,l),
(68,576,l),
(52,560,l),
(52,496,l),
(60,480,l),
(208,300,l),
(208,284,l),
(40,96,l),
(32,80,l),
(32,16,l),
(48,0,l)
);
}
);
width = 568;
},
{
associatedMasterId = m01;
layerId = "E0C175E4-24A6-4BF2-9904-230F6FBDD65D";
name = "Apr 4, 24 at 11:54";
shapes = (
{
closed = 1;
nodes = (
(472,0,l),
(520,0,l),
(536,16,l),
(536,80,l),
(528,96,l),
(104,576,l),
(60,576,l),
(44,560,l),
(44,496,l),
(52,480,l)
);
}
);
visible = 1;
width = 560;
},
{
associatedMasterId = m01;
layerId = "33405C69-6162-4869-B6AD-AD96D677EE7A";
name = "Apr 4, 24 at 11:55";
shapes = (
{
closed = 1;
nodes = (
(84,0,l),
(508,480,l),
(516,496,l),
(516,560,l),
(500,576,l),
(456,576,l),
(32,96,l),
(24,80,l),
(24,16,l),
(40,0,l)
);
}
);
visible = 1;
width = 560;
},
{
layerId = m002;
shapes = (
{
closed = 1;
nodes = (
(76,0,l),
(260,220,l),
(276,220,l),
(456,0,l),
(504,0,l),
(520,16,l),
(520,80,l),
(512,96,l),
(340,292,l),
(340,308,l),
(492,480,l),
(500,496,l),
(500,560,l),
(484,576,l),
(440,576,l),
(272,372,l),
(256,372,l),
(96,576,l),
(52,576,l),
(36,560,l),
(36,496,l),
(44,480,l),
(192,300,l),
(192,284,l),
(24,96,l),
(16,80,l),
(16,16,l),
(32,0,l)
);
}
);
width = 536;
},
{
associatedMasterId = m002;
layerId = "6FB40E86-B376-41AF-A631-8ED5E2111E40";
name = "Apr 4, 24 at 11:54";
shapes = (
{
closed = 1;
nodes = (
(472,0,l),
(520,0,l),
(536,16,l),
(536,80,l),
(528,96,l),
(104,576,l),
(60,576,l),
(44,560,l),
(44,496,l),
(52,480,l)
);
}
);
width = 560;
},
{
associatedMasterId = m002;
layerId = "180E1D64-10E6-423D-B636-BA4EC83D1327";
name = "Apr 4, 24 at 11:55";
shapes = (
{
closed = 1;
nodes = (
(84,0,l),
(508,480,l),
(516,496,l),
(516,560,l),
(500,576,l),
(456,576,l),
(32,96,l),
(24,80,l),
(24,16,l),
(40,0,l)
);
}
);
width = 560;
}
);
unicode = 120;
},
{
color = 4;
glyphname = y;
kernLeft = y;
kernRight = y;
lastChange = "2024-06-20 22:08:17 +0000";
layers = (
{
layerId = m01;
shapes = (
{
closed = 1;
nodes = (
(144,-200,ls),
(240,-200,o),
(268,-196,o),
(340,0,cs),
(528,500,l),
(528,560,l),
(512,576,l),
(452,576,l),
(436,560,l),
(288,144,l),
(272,144,l),
(124,560,l),
(108,576,l),
(48,576,l),
(32,560,l),
(32,500,l),
(224,0,l),
(232,-16,l),
(216,-60,ls),
(204,-96,o),
(176,-112,o),
(144,-112,cs),
(96,-112,l),
(80,-128,l),
(80,-184,l),
(96,-200,l)
);
}
);
width = 560;
},
{
associatedMasterId = m01;
layerId = "C6739020-F6E6-4C6E-83E7-897205869B40";
name = "Mar 26, 24 at 11:24";
shapes = (
{
closed = 1;
nodes = (
(148,-200,l),
(252,-200,l),
(544,576,l),
(440,576,l)
);
},
{
closed = 1;
nodes = (
(-8,576,l),
(280,-200,l),
(384,-200,l),
(96,576,l)
);
}
);
visible = 1;
width = 536;
},
{
layerId = m002;
shapes = (
{
closed = 1;
nodes = (
(128,-200,ls),
(224,-200,o),
(252,-196,o),
(324,0,cs),
(512,500,l),
(512,560,l),
(496,576,l),
(440,576,l),
(424,560,l),
(272,144,l),
(256,144,l),
(104,560,l),
(88,576,l),
(32,576,l),
(16,560,l),
(16,500,l),
(204,0,l),
(212,-16,l),
(196,-60,ls),
(184,-96,o),
(160,-112,o),
(128,-112,cs),
(80,-112,l),
(64,-128,l),
(64,-184,l),
(80,-200,l)
);
}
);
width = 520;
},
{
associatedMasterId = m002;
layerId = "017D8365-B36E-47F6-BB9F-71624858C13D";
name = "Mar 26, 24 at 11:24";
shapes = (
{
closed = 1;
nodes = (
(148,-200,l),
(252,-200,l),
(544,576,l),
(440,576,l)
);
},
{
closed = 1;
nodes = (
(-8,576,l),
(280,-200,l),
(384,-200,l),
(96,576,l)
);
}
);
width = 536;
}
);
unicode = 121;
},
{
color = 4;
glyphname = z;
kernLeft = z;
kernRight = z;
lastChange = "2024-06-20 22:08:17 +0000";
layers = (
{
layerId = m01;
shapes = (
{
closed = 1;
nodes = (
(468,0,l),
(484,16,l),
(484,72,l),
(468,88,l),
(176,88,l),
(176,104,l),
(456,452,l),
(472,480,l),
(472,560,l),
(456,576,l),
(72,576,l),
(56,560,l),
(56,504,l),
(72,488,l),
(360,488,l),
(360,476,l),
(56,112,l),
(48,88,l),
(48,16,l),
(64,0,l)
);
}
);
width = 532;
},
{
layerId = m002;
shapes = (
{
closed = 1;
nodes = (
(444,0,l),
(460,16,l),
(460,72,l),
(444,88,l),
(152,88,l),
(152,104,l),
(432,452,l),
(448,480,l),
(448,560,l),
(432,576,l),
(48,576,l),
(32,560,l),
(32,504,l),
(48,488,l),
(336,488,l),
(336,476,l),
(32,112,l),
(24,88,l),
(24,16,l),
(40,0,l)
);
}
);
width = 480;
}
);
unicode = 122;
},
{
color = 4;
glyphname = a.001;
kernLeft = a;
kernRight = a;
lastChange = "2024-06-20 22:08:17 +0000";
layers = (
{
layerId = m01;
shapes = (
{
closed = 1;
nodes = (
(320,-16,o),
(360,24,o),
(392,56,c),
(408,56,l),
(424,16,l),
(440,0,l),
(488,0,l),
(504,16,l),
(504,392,ls),
(504,528,o),
(432,592,o),
(280,592,cs),
(112,592,o),
(48,512,o),
(48,432,cs),
(48,416,l),
(64,400,l),
(144,400,l),
(160,416,l),
(160,424,ls),
(160,464,o),
(208,488,o),
(280,488,cs),
(360,488,o),
(392,464,o),
(392,376,cs),
(392,360,l),
(376,344,l),
(280,344,ls),
(128,344,o),
(24,296,o),
(24,168,cs),
(24,56,o),
(112,-16,o),
(224,-16,cs)
);
},
{
closed = 1;
nodes = (
(176,88,o),
(136,104,o),
(136,168,cs),
(136,232,o),
(168,248,o),
(280,248,cs),
(376,248,l),
(392,232,l),
(392,208,ls),
(392,136,o),
(336,88,o),
(240,88,cs)
);
}
);
width = 560;
},
{
layerId = m002;
shapes = (
{
closed = 1;
nodes = (
(320,-16,o),
(360,24,o),
(392,56,c),
(408,56,l),
(424,16,l),
(440,0,l),
(488,0,l),
(504,16,l),
(504,392,ls),
(504,528,o),
(432,592,o),
(280,592,cs),
(112,592,o),
(48,512,o),
(48,432,cs),
(48,416,l),
(64,400,l),
(144,400,l),
(160,416,l),
(160,424,ls),
(160,464,o),
(208,488,o),
(280,488,cs),
(360,488,o),
(392,464,o),
(392,376,cs),
(392,360,l),
(376,344,l),
(280,344,ls),
(128,344,o),
(24,296,o),
(24,168,cs),
(24,56,o),
(112,-16,o),
(224,-16,cs)
);
},
{
closed = 1;
nodes = (
(176,88,o),
(136,104,o),
(136,168,cs),
(136,232,o),
(168,248,o),
(280,248,cs),
(376,248,l),
(392,232,l),
(392,208,ls),
(392,136,o),
(336,88,o),
(240,88,cs)
);
}
);
width = 560;
}
);
},
{
color = 5;
glyphname = "alef-ar";
lastChange = "2024-06-21 19:11:33 +0000";
layers = (
{
anchors = (
{
name = bottom;
pos = (92,0);
},
{
name = top;
pos = (88,800);
}
);
layerId = m01;
shapes = (
{
closed = 1;
nodes = (
(128,0,l),
(144,16,l),
(144,784,l),
(128,800,l),
(48,800,l),
(32,784,l),
(32,16,l),
(48,0,l)
);
}
);
width = 176;
},
{
anchors = (
{
name = bottom;
pos = (88,0);
},
{
name = top;
pos = (84,800);
}
);
layerId = m002;
shapes = (
{
closed = 1;
nodes = (
(116,0,l),
(132,16,l),
(132,784,l),
(116,800,l),
(52,800,l),
(36,784,l),
(36,16,l),
(52,0,l)
);
}
);
width = 168;
}
);
unicode = 1575;
},
{
glyphname = "alef-ar.fina";
lastChange = "2024-06-21 19:57:19 +0000";
layers = (
{
layerId = m01;
shapes = (
{
closed = 1;
nodes = (
(256,0,ls),
(60,0,o),
(16,76,o),
(16,276,cs),
(16,784,l),
(32,800,l),
(104,800,l),
(120,784,l),
(120,288,ls),
(120,148,o),
(148,108,o),
(256,108,cs),
(348,108,l),
(364,92,l),
(364,16,l),
(348,0,l)
);
}
);
width = 600;
},
{
layerId = m002;
shapes = (
{
closed = 1;
nodes = (
(272,0,ls),
(96,0,o),
(48,56,o),
(48,232,cs),
(48,784,l),
(64,800,l),
(128,800,l),
(144,784,l),
(144,232,ls),
(144,136,o),
(176,104,o),
(272,104,cs),
(304,104,l),
(320,88,l),
(320,16,l),
(304,0,l)
);
}
);
width = 304;
}
);
},
{
color = 5;
glyphname = "beh-ar";
lastChange = "2024-06-21 19:59:34 +0000";
layers = (
{
layerId = m01;
shapes = (
{
closed = 1;
nodes = (
(804,0,ls),
(996,0,o),
(1032,80,o),
(1032,276,cs),
(1032,368,l),
(1016,384,l),
(936,384,l),
(920,368,l),
(920,292,ls),
(920,156,o),
(924,100,o),
(804,100,cs),
(304,100,ls),
(176,100,o),
(176,152,o),
(176,292,cs),
(176,368,l),
(160,384,l),
(80,384,l),
(64,368,l),
(64,276,ls),
(64,76,o),
(104,0,o),
(304,0,cs)
);
}
);
width = 1096;
},
{
layerId = m002;
shapes = (
{
closed = 1;
nodes = (
(272,0,ls),
(96,0,o),
(48,56,o),
(48,232,cs),
(48,368,l),
(64,384,l),
(128,384,l),
(144,368,l),
(144,232,ls),
(144,136,o),
(176,104,o),
(272,104,cs),
(752,104,ls),
(848,104,o),
(880,136,o),
(880,232,cs),
(880,368,l),
(896,384,l),
(960,384,l),
(976,368,l),
(976,232,ls),
(976,56,o),
(928,0,o),
(752,0,cs)
);
},
{
closed = 1;
nodes = (
(520,-252,l),
(604,-168,l),
(604,-152,l),
(520,-68,l),
(504,-68,l),
(420,-152,l),
(420,-168,l),
(504,-252,l)
);
}
);
width = 1024;
}
);
unicode = 1576;
},
{
glyphname = "beh-ar.medi";
lastChange = "2024-06-21 20:10:11 +0000";
layers = (
{
layerId = m01;
width = 600;
},
{
layerId = m002;
shapes = (
{
closed = 1;
nodes = (
(-16,16,l),
(-16,88,l),
(0,104,l),
(32,104,ls),
(128,104,o),
(160,136,o),
(160,232,cs),
(160,368,l),
(176,384,l),
(240,384,l),
(256,368,l),
(256,232,ls),
(256,204,o),
(307,147,o),
(351,96,cs),
(356,91,o),
(361,85,o),
(366,79,cs),
(385,57,o),
(424,32,o),
(432,16,c),
(416,0,l),
(328,0,l),
(284,0,o),
(248,32,o),
(216,68,c),
(200,68,l),
(168,32,o),
(128,0,o),
(32,0,cs),
(0,0,l)
);
}
);
width = 416;
},
{
associatedMasterId = m002;
layerId = "D11847F4-9124-4E67-A0A5-664C121E0E84";
name = "Jun 21, 24 at 13:01";
shapes = (
{
closed = 1;
nodes = (
(-16,16,l),
(-16,88,l),
(0,104,l),
(32,104,ls),
(128,104,o),
(160,136,o),
(160,232,cs),
(160,368,l),
(176,384,l),
(240,384,l),
(256,368,l),
(256,232,ls),
(256,56,o),
(208,0,o),
(32,0,cs),
(0,0,l)
);
},
{
closed = 1;
nodes = (
(384,0,ls),
(208,0,o),
(160,56,o),
(160,232,cs),
(160,368,l),
(176,384,l),
(240,384,l),
(256,368,l),
(256,232,ls),
(256,136,o),
(288,104,o),
(384,104,cs),
(416,104,l),
(432,88,l),
(432,16,l),
(416,0,l)
);
}
);
visible = 1;
width = 416;
}
);
},
{
glyphname = "beh-ar.init";
lastChange = "2024-06-21 19:58:30 +0000";
layers = (
{
layerId = m01;
shapes = (
{
closed = 1;
nodes = (
(-16,16,l),
(-16,88,l),
(0,104,l),
(32,104,ls),
(128,104,o),
(160,136,o),
(160,232,cs),
(160,360,l),
(176,376,l),
(240,376,l),
(256,360,l),
(256,232,ls),
(256,56,o),
(208,0,o),
(32,0,cs),
(0,0,l)
);
},
{
closed = 1;
nodes = (
(8,-248,l),
(92,-164,l),
(92,-148,l),
(8,-64,l),
(-8,-64,l),
(-92,-148,l),
(-92,-164,l),
(-8,-248,l)
);
}
);
width = 600;
},
{
layerId = m002;
shapes = (
{
closed = 1;
nodes = (
(-16,16,l),
(-16,88,l),
(0,104,l),
(32,104,ls),
(128,104,o),
(160,136,o),
(160,232,cs),
(160,368,l),
(176,384,l),
(240,384,l),
(256,368,l),
(256,232,ls),
(256,56,o),
(208,0,o),
(32,0,cs),
(0,0,l)
);
},
{
closed = 1;
nodes = (
(8,-252,l),
(92,-168,l),
(92,-152,l),
(8,-68,l),
(-8,-68,l),
(-92,-152,l),
(-92,-168,l),
(-8,-252,l)
);
}
);
width = 288;
}
);
},
{
color = 5;
glyphname = "sheen-ar.init";
lastChange = "2024-06-21 18:18:16 +0000";
layers = (
{
layerId = m01;
shapes = (
{
closed = 1;
nodes = (
(736,400,l),
(720,384,l),
(720,224,ls),
(720,128,o),
(696,72,o),
(600,72,cs),
(504,72,o),
(480,128,o),
(480,224,cs),
(480,384,l),
(464,400,l),
(392,400,l),
(376,384,l),
(376,224,ls),
(376,128,o),
(352,72,o),
(256,72,cs),
(160,72,o),
(136,128,o),
(136,224,cs),
(136,384,l),
(120,400,l),
(48,400,l),
(32,384,l),
(32,224,ls),
(32,80,o),
(80,-16,o),
(240,-16,cs),
(320,-16,o),
(376,16,o),
(400,64,c),
(416,64,l),
(432,16,o),
(488,-16,o),
(568,-16,cs),
(648,-16,o),
(692,24,o),
(708,64,c),
(724,64,l),
(740,16,l),
(756,0,l),
(808,0,l),
(824,16,l),
(824,384,l),
(808,400,l)
);
},
{
closed = 1;
nodes = (
(300,576,l),
(368,644,l),
(368,660,l),
(300,728,l),
(284,728,l),
(216,660,l),
(216,644,l),
(284,576,l)
);
},
{
closed = 1;
nodes = (
(548,576,l),
(616,644,l),
(616,660,l),
(548,728,l),
(532,728,l),
(464,660,l),
(464,644,l),
(532,576,l)
);
},
{
closed = 1;
nodes = (
(424,696,l),
(492,764,l),
(492,780,l),
(424,848,l),
(408,848,l),
(340,780,l),
(340,764,l),
(408,696,l)
);
}
);
width = 856;
},
{
layerId = m002;
shapes = (
{
closed = 1;
nodes = (
(736,400,l),
(720,384,l),
(720,224,ls),
(720,128,o),
(696,72,o),
(600,72,cs),
(504,72,o),
(480,128,o),
(480,224,cs),
(480,384,l),
(464,400,l),
(392,400,l),
(376,384,l),
(376,224,ls),
(376,128,o),
(352,72,o),
(256,72,cs),
(160,72,o),
(136,128,o),
(136,224,cs),
(136,384,l),
(120,400,l),
(48,400,l),
(32,384,l),
(32,224,ls),
(32,80,o),
(80,-16,o),
(240,-16,cs),
(320,-16,o),
(376,16,o),
(400,64,c),
(416,64,l),
(432,16,o),
(488,-16,o),
(568,-16,cs),
(648,-16,o),
(692,24,o),
(708,64,c),
(724,64,l),
(740,16,l),
(756,0,l),
(808,0,l),
(824,16,l),
(824,384,l),
(808,400,l)
);
},
{
closed = 1;
nodes = (
(300,576,l),
(368,644,l),
(368,660,l),
(300,728,l),
(284,728,l),
(216,660,l),
(216,644,l),
(284,576,l)
);
},
{
closed = 1;
nodes = (
(548,576,l),
(616,644,l),
(616,660,l),
(548,728,l),
(532,728,l),
(464,660,l),
(464,644,l),
(532,576,l)
);
},
{
closed = 1;
nodes = (
(424,696,l),
(492,764,l),
(492,780,l),
(424,848,l),
(408,848,l),
(340,780,l),
(340,764,l),
(408,696,l)
);
}
);
width = 856;
}
);
},
{
glyphname = "lam-ar.init";
lastChange = "2024-06-21 20:00:31 +0000";
layers = (
{
layerId = m01;
width = 600;
},
{
layerId = m002;
shapes = (
{
closed = 1;
nodes = (
(-16,16,l),
(-16,88,l),
(0,104,l),
(32,104,ls),
(128,104,o),
(160,136,o),
(160,232,cs),
(160,784,l),
(176,800,l),
(240,800,l),
(256,784,l),
(256,232,ls),
(256,56,o),
(208,0,o),
(32,0,cs),
(0,0,l)
);
}
);
width = 304;
}
);
},
{
glyphname = "yeh-ar.init";
lastChange = "2024-06-21 19:58:43 +0000";
layers = (
{
layerId = m01;
width = 600;
},
{
layerId = m002;
shapes = (
{
closed = 1;
nodes = (
(-16,16,l),
(-16,88,l),
(0,104,l),
(32,104,ls),
(128,104,o),
(160,136,o),
(160,232,cs),
(160,368,l),
(176,384,l),
(240,384,l),
(256,368,l),
(256,232,ls),
(256,56,o),
(208,0,o),
(32,0,cs),
(0,0,l)
);
},
{
closed = 1;
nodes = (
(116,-252,l),
(200,-168,l),
(200,-152,l),
(116,-68,l),
(100,-68,l),
(16,-152,l),
(16,-168,l),
(100,-252,l)
);
},
{
closed = 1;
nodes = (
(-100,-252,l),
(-16,-168,l),
(-16,-152,l),
(-100,-68,l),
(-116,-68,l),
(-200,-152,l),
(-200,-168,l),
(-116,-252,l)
);
}
);
width = 600;
}
);
},
{
color = 5;
glyphname = zero;
kernLeft = zero;
kernRight = zero;
lastChange = "2024-06-17 03:02:35 +0000";
layers = (
{
layerId = m01;
shapes = (
{
closed = 1;
nodes = (
(500,-16,o),
(616,92,o),
(616,400,cs),
(616,708,o),
(500,816,o),
(340,816,cs),
(180,816,o),
(64,708,o),
(64,400,cs),
(64,92,o),
(180,-16,o),
(340,-16,cs)
);
},
{
closed = 1;
nodes = (
(236,84,o),
(180,172,o),
(180,400,cs),
(180,628,o),
(236,716,o),
(340,716,cs),
(444,716,o),
(500,628,o),
(500,400,cs),
(500,172,o),
(444,84,o),
(340,84,cs)
);
}
);
width = 680;
},
{
layerId = m002;
shapes = (
{
closed = 1;
nodes = (
(476,-16,o),
(592,92,o),
(592,400,cs),
(592,708,o),
(476,816,o),
(316,816,cs),
(156,816,o),
(40,708,o),
(40,400,cs),
(40,92,o),
(156,-16,o),
(316,-16,cs)
);
},
{
closed = 1;
nodes = (
(212,84,o),
(156,172,o),
(156,400,cs),
(156,628,o),
(212,716,o),
(316,716,cs),
(420,716,o),
(476,628,o),
(476,400,cs),
(476,172,o),
(420,84,o),
(316,84,cs)
);
}
);
width = 632;
}
);
unicode = 48;
},
{
color = 5;
glyphname = one;
kernLeft = one;
kernRight = one;
lastChange = "2024-06-17 05:36:45 +0000";
layers = (
{
layerId = m01;
shapes = (
{
closed = 1;
nodes = (
(292,0,l),
(308,16,l),
(308,784,l),
(292,800,l),
(212,800,l),
(196,784,l),
(196,700,o),
(148,652,o),
(64,652,c),
(48,636,l),
(48,576,l),
(64,560,l),
(184,560,l),
(196,544,l),
(196,16,l),
(212,0,l)
);
}
);
width = 404;
},
{
layerId = m002;
shapes = (
{
closed = 1;
nodes = (
(260,0,l),
(276,16,l),
(276,784,l),
(260,800,l),
(180,800,l),
(164,784,l),
(164,700,o),
(116,652,o),
(32,652,c),
(16,636,l),
(16,576,l),
(32,560,l),
(152,560,l),
(164,544,l),
(164,16,l),
(180,0,l)
);
}
);
width = 340;
}
);
unicode = 49;
},
{
color = 5;
glyphname = two;
kernLeft = two;
kernRight = two;
lastChange = "2024-06-09 16:12:29 +0000";
layers = (
{
layerId = m01;
shapes = (
{
closed = 1;
nodes = (
(552,0,l),
(568,16,l),
(568,80,l),
(552,96,l),
(180,96,l),
(164,112,l),
(164,120,ls),
(164,160,o),
(192,208,o),
(300,256,cs),
(440,320,o),
(580,416,o),
(580,576,cs),
(580,692,o),
(504,816,o),
(316,816,cs),
(148,816,o),
(56,704,o),
(56,576,c),
(72,560,l),
(152,560,l),
(168,576,l),
(168,648,o),
(220,716,o),
(316,716,cs),
(424,716,o),
(464,656,o),
(464,576,cs),
(464,476,o),
(392,408,o),
(276,352,cs),
(100,268,o),
(40,212,o),
(40,52,cs),
(40,16,l),
(56,0,l)
);
}
);
width = 620;
},
{
layerId = m002;
shapes = (
{
closed = 1;
nodes = (
(552,0,l),
(568,16,l),
(568,80,l),
(552,96,l),
(180,96,l),
(164,112,l),
(164,120,ls),
(164,160,o),
(192,208,o),
(300,256,cs),
(440,320,o),
(580,416,o),
(580,576,cs),
(580,692,o),
(504,816,o),
(316,816,cs),
(148,816,o),
(56,704,o),
(56,576,c),
(72,560,l),
(152,560,l),
(168,576,l),
(168,648,o),
(220,716,o),
(316,716,cs),
(424,716,o),
(464,656,o),
(464,576,cs),
(464,476,o),
(392,408,o),
(276,352,cs),
(100,268,o),
(40,212,o),
(40,52,cs),
(40,16,l),
(56,0,l)
);
}
);
width = 620;
}
);
unicode = 50;
},
{
color = 5;
glyphname = three;
kernLeft = three;
kernRight = three;
lastChange = "2024-06-17 04:35:26 +0000";
layers = (
{
layerId = m01;
shapes = (
{
closed = 1;
nodes = (
(556,-16,o),
(660,80,o),
(660,232,cs),
(660,336,o),
(584,396,o),
(512,416,c),
(512,432,l),
(568,460,o),
(612,508,o),
(612,592,cs),
(612,740,o),
(516,816,o),
(356,816,cs),
(240,816,o),
(92,744,o),
(92,576,c),
(108,560,l),
(188,560,l),
(204,576,l),
(204,684,o),
(288,716,o),
(356,716,cs),
(440,716,o),
(496,680,o),
(496,592,cs),
(496,516,o),
(452,464,o),
(372,464,cs),
(316,464,l),
(300,448,l),
(300,384,l),
(316,368,l),
(372,368,ls),
(452,368,o),
(544,344,o),
(544,232,cs),
(544,132,o),
(480,84,o),
(356,84,cs),
(240,84,o),
(176,144,o),
(176,232,cs),
(176,248,l),
(160,264,l),
(80,264,l),
(64,248,l),
(64,232,ls),
(64,88,o),
(176,-16,o),
(356,-16,cs)
);
}
);
width = 724;
},
{
layerId = m002;
shapes = (
{
closed = 1;
nodes = (
(532,-16,o),
(636,80,o),
(636,232,cs),
(636,336,o),
(560,396,o),
(488,416,c),
(488,432,l),
(544,460,o),
(588,508,o),
(588,592,cs),
(588,740,o),
(492,816,o),
(332,816,cs),
(216,816,o),
(68,744,o),
(68,576,c),
(84,560,l),
(164,560,l),
(180,576,l),
(180,684,o),
(264,716,o),
(332,716,cs),
(416,716,o),
(472,680,o),
(472,592,cs),
(472,516,o),
(428,464,o),
(348,464,cs),
(292,464,l),
(276,448,l),
(276,384,l),
(292,368,l),
(348,368,ls),
(428,368,o),
(520,344,o),
(520,232,cs),
(520,132,o),
(456,84,o),
(332,84,cs),
(216,84,o),
(152,144,o),
(152,232,cs),
(152,248,l),
(136,264,l),
(56,264,l),
(40,248,l),
(40,232,ls),
(40,88,o),
(152,-16,o),
(332,-16,cs)
);
}
);
width = 676;
}
);
unicode = 51;
},
{
color = 5;
glyphname = four;
kernLeft = four;
kernRight = four;
lastChange = "2024-06-17 04:35:42 +0000";
layers = (
{
layerId = m01;
shapes = (
{
closed = 1;
nodes = (
(500,0,l),
(516,16,l),
(516,172,l),
(528,184,l),
(628,184,l),
(644,200,l),
(644,264,l),
(628,280,l),
(528,280,l),
(516,292,l),
(516,784,l),
(500,800,l),
(368,800,l),
(352,784,l),
(48,280,l),
(48,200,l),
(64,184,l),
(392,184,l),
(404,172,l),
(404,16,l),
(420,0,l)
);
},
{
closed = 1;
nodes = (
(176,296,l),
(388,644,l),
(404,644,l),
(404,292,l),
(392,280,l),
(176,280,l)
);
}
);
width = 692;
},
{
layerId = m002;
shapes = (
{
closed = 1;
nodes = (
(476,0,l),
(492,16,l),
(492,172,l),
(504,184,l),
(604,184,l),
(620,200,l),
(620,264,l),
(604,280,l),
(504,280,l),
(492,292,l),
(492,784,l),
(476,800,l),
(344,800,l),
(328,784,l),
(24,280,l),
(24,200,l),
(40,184,l),
(368,184,l),
(380,172,l),
(380,16,l),
(396,0,l)
);
},
{
closed = 1;
nodes = (
(152,296,l),
(364,644,l),
(380,644,l),
(380,292,l),
(368,280,l),
(152,280,l)
);
}
);
width = 644;
}
);
unicode = 52;
},
{
color = 5;
glyphname = five;
kernLeft = five;
kernRight = five;
lastChange = "2024-06-09 16:12:29 +0000";
layers = (
{
layerId = m01;
shapes = (
{
closed = 1;
nodes = (
(476,-16,o),
(580,72,o),
(580,260,cs),
(580,412,o),
(516,532,o),
(348,532,cs),
(280,532,o),
(228,508,o),
(192,476,c),
(176,476,l),
(208,692,l),
(220,704,l),
(528,704,l),
(544,720,l),
(544,784,l),
(528,800,l),
(148,800,l),
(132,784,l),
(72,396,l),
(72,380,l),
(88,364,l),
(168,364,l),
(204,412,o),
(248,432,o),
(328,432,cs),
(428,432,o),
(464,348,o),
(464,260,cs),
(464,164,o),
(420,84,o),
(304,84,cs),
(188,84,o),
(152,144,o),
(152,216,c),
(136,232,l),
(56,232,l),
(40,216,l),
(40,56,o),
(132,-16,o),
(304,-16,cs)
);
}
);
width = 620;
},
{
layerId = m002;
shapes = (
{
closed = 1;
nodes = (
(476,-16,o),
(580,72,o),
(580,260,cs),
(580,412,o),
(516,532,o),
(348,532,cs),
(280,532,o),
(228,508,o),
(192,476,c),
(176,476,l),
(208,692,l),
(220,704,l),
(528,704,l),
(544,720,l),
(544,784,l),
(528,800,l),
(148,800,l),
(132,784,l),
(72,396,l),
(72,380,l),
(88,364,l),
(168,364,l),
(204,412,o),
(248,432,o),
(328,432,cs),
(428,432,o),
(464,348,o),
(464,260,cs),
(464,164,o),
(420,84,o),
(304,84,cs),
(188,84,o),
(152,144,o),
(152,216,c),
(136,232,l),
(56,232,l),
(40,216,l),
(40,56,o),
(132,-16,o),
(304,-16,cs)
);
}
);
width = 620;
}
);
unicode = 53;
},
{
color = 5;
glyphname = six;
kernLeft = six;
kernRight = six;
lastChange = "2024-06-09 16:12:29 +0000";
layers = (
{
layerId = m01;
shapes = (
{
closed = 1;
nodes = (
(484,-16,o),
(592,92,o),
(592,264,cs),
(592,424,o),
(488,520,o),
(348,520,cs),
(264,520,o),
(208,488,o),
(176,456,c),
(160,456,l),
(160,572,o),
(212,716,o),
(324,716,cs),
(412,716,o),
(448,688,o),
(460,616,c),
(476,600,l),
(556,600,l),
(572,616,l),
(560,744,o),
(468,816,o),
(324,816,cs),
(156,816,o),
(40,708,o),
(40,388,cs),
(40,80,o),
(152,-16,o),
(316,-16,cs)
);
},
{
closed = 1;
nodes = (
(244,84,o),
(164,148,o),
(164,264,cs),
(164,364,o),
(224,424,o),
(320,424,cs),
(428,424,o),
(476,364,o),
(476,264,cs),
(476,148,o),
(428,84,o),
(316,84,cs)
);
}
);
width = 632;
},
{
layerId = m002;
shapes = (
{
closed = 1;
nodes = (
(484,-16,o),
(592,92,o),
(592,264,cs),
(592,424,o),
(488,520,o),
(348,520,cs),
(264,520,o),
(208,488,o),
(176,456,c),
(160,456,l),
(160,572,o),
(212,716,o),
(324,716,cs),
(412,716,o),
(448,688,o),
(460,616,c),
(476,600,l),
(556,600,l),
(572,616,l),
(560,744,o),
(468,816,o),
(324,816,cs),
(156,816,o),
(40,708,o),
(40,388,cs),
(40,80,o),
(152,-16,o),
(316,-16,cs)
);
},
{
closed = 1;
nodes = (
(244,84,o),
(164,148,o),
(164,264,cs),
(164,364,o),
(224,424,o),
(320,424,cs),
(428,424,o),
(476,364,o),
(476,264,cs),
(476,148,o),
(428,84,o),
(316,84,cs)
);
}
);
width = 632;
}
);
unicode = 54;
},
{
color = 5;
glyphname = seven;
kernLeft = seven;
kernRight = seven;
lastChange = "2024-06-09 16:12:29 +0000";
layers = (
{
layerId = m01;
shapes = (
{
closed = 1;
nodes = (
(260,0,l),
(276,16,l),
(276,304,o),
(372,544,o),
(564,688,c),
(580,704,l),
(580,784,l),
(564,800,l),
(32,800,l),
(16,784,l),
(16,720,l),
(32,704,l),
(436,704,l),
(436,688,l),
(252,540,o),
(160,304,o),
(160,16,c),
(176,0,l)
);
}
);
width = 596;
},
{
layerId = m002;
shapes = (
{
closed = 1;
nodes = (
(260,0,l),
(276,16,l),
(276,304,o),
(372,544,o),
(564,688,c),
(580,704,l),
(580,784,l),
(564,800,l),
(32,800,l),
(16,784,l),
(16,720,l),
(32,704,l),
(436,704,l),
(436,688,l),
(252,540,o),
(160,304,o),
(160,16,c),
(176,0,l)
);
}
);
width = 596;
}
);
unicode = 55;
},
{
color = 5;
glyphname = eight;
kernLeft = eight;
kernRight = eight;
lastChange = "2024-06-09 16:12:29 +0000";
layers = (
{
layerId = m01;
shapes = (
{
closed = 1;
nodes = (
(528,-16,o),
(652,76,o),
(652,228,cs),
(652,340,o),
(576,404,o),
(504,420,c),
(504,436,l),
(540,456,o),
(604,504,o),
(604,596,cs),
(604,708,o),
(516,816,o),
(344,816,cs),
(172,816,o),
(84,708,o),
(84,596,cs),
(84,504,o),
(152,456,o),
(184,436,c),
(184,420,l),
(128,404,o),
(40,340,o),
(40,228,cs),
(40,76,o),
(160,-16,o),
(344,-16,cs)
);
},
{
closed = 1;
nodes = (
(252,468,o),
(200,528,o),
(200,596,cs),
(200,652,o),
(240,716,o),
(344,716,cs),
(448,716,o),
(488,652,o),
(488,596,cs),
(488,528,o),
(436,468,o),
(344,468,cs)
);
},
{
closed = 1;
nodes = (
(232,84,o),
(156,132,o),
(156,228,cs),
(156,308,o),
(232,376,o),
(344,376,cs),
(460,376,o),
(536,308,o),
(536,228,cs),
(536,132,o),
(460,84,o),
(344,84,cs)
);
}
);
width = 692;
},
{
layerId = m002;
shapes = (
{
closed = 1;
nodes = (
(528,-16,o),
(652,76,o),
(652,228,cs),
(652,340,o),
(576,404,o),
(504,420,c),
(504,436,l),
(540,456,o),
(604,504,o),
(604,596,cs),
(604,708,o),
(516,816,o),
(344,816,cs),
(172,816,o),
(84,708,o),
(84,596,cs),
(84,504,o),
(152,456,o),
(184,436,c),
(184,420,l),
(128,404,o),
(40,340,o),
(40,228,cs),
(40,76,o),
(160,-16,o),
(344,-16,cs)
);
},
{
closed = 1;
nodes = (
(252,468,o),
(200,528,o),
(200,596,cs),
(200,652,o),
(240,716,o),
(344,716,cs),
(448,716,o),
(488,652,o),
(488,596,cs),
(488,528,o),
(436,468,o),
(344,468,cs)
);
},
{
closed = 1;
nodes = (
(232,84,o),
(156,132,o),
(156,228,cs),
(156,308,o),
(232,376,o),
(344,376,cs),
(460,376,o),
(536,308,o),
(536,228,cs),
(536,132,o),
(460,84,o),
(344,84,cs)
);
}
);
width = 692;
}
);
unicode = 56;
},
{
color = 5;
glyphname = nine;
kernLeft = nine;
kernRight = nine;
lastChange = "2024-06-09 16:12:29 +0000";
layers = (
{
layerId = m01;
shapes = (
{
closed = 1;
nodes = (
(132,816,o),
(24,708,o),
(24,536,cs),
(24,376,o),
(128,280,o),
(268,280,cs),
(352,280,o),
(408,312,o),
(440,344,c),
(456,344,l),
(460,196,o),
(404,84,o),
(292,84,cs),
(204,84,o),
(168,112,o),
(156,184,c),
(140,200,l),
(60,200,l),
(44,184,l),
(56,56,o),
(148,-16,o),
(292,-16,cs),
(460,-16,o),
(576,92,o),
(576,412,cs),
(576,720,o),
(464,816,o),
(300,816,cs)
);
},
{
closed = 1;
nodes = (
(372,716,o),
(452,652,o),
(452,536,cs),
(452,436,o),
(392,376,o),
(296,376,cs),
(188,376,o),
(140,436,o),
(140,536,cs),
(140,652,o),
(188,716,o),
(300,716,cs)
);
}
);
width = 616;
},
{
layerId = m002;
shapes = (
{
closed = 1;
nodes = (
(132,816,o),
(24,708,o),
(24,536,cs),
(24,376,o),
(128,280,o),
(268,280,cs),
(352,280,o),
(408,312,o),
(440,344,c),
(456,344,l),
(460,196,o),
(404,84,o),
(292,84,cs),
(204,84,o),
(168,112,o),
(156,184,c),
(140,200,l),
(60,200,l),
(44,184,l),
(56,56,o),
(148,-16,o),
(292,-16,cs),
(460,-16,o),
(576,92,o),
(576,412,cs),
(576,720,o),
(464,816,o),
(300,816,cs)
);
},
{
closed = 1;
nodes = (
(372,716,o),
(452,652,o),
(452,536,cs),
(452,436,o),
(392,376,o),
(296,376,cs),
(188,376,o),
(140,436,o),
(140,536,cs),
(140,652,o),
(188,716,o),
(300,716,cs)
);
}
);
width = 616;
}
);
unicode = 57;
},
{
color = 5;
glyphname = period;
kernLeft = period;
kernRight = period;
lastChange = "2024-06-17 23:38:43 +0000";
layers = (
{
layerId = m01;
shapes = (
{
closed = 1;
nodes = (
(176,0,l),
(192,16,l),
(192,112,l),
(176,128,l),
(80,128,l),
(64,112,l),
(64,16,l),
(80,0,l)
);
}
);
width = 256;
},
{
layerId = m002;
shapes = (
{
closed = 1;
nodes = (
(136,0,l),
(152,16,l),
(152,112,l),
(136,128,l),
(40,128,l),
(24,112,l),
(24,16,l),
(40,0,l)
);
}
);
width = 176;
}
);
unicode = 46;
},
{
color = 5;
glyphname = comma;
kernLeft = comma;
kernRight = comma;
lastChange = "2024-06-18 00:13:17 +0000";
layers = (
{
layerId = m01;
shapes = (
{
closed = 1;
nodes = (
(124,0,l),
(136,-12,l),
(136,-20,ls),
(136,-64,o),
(124,-88,o),
(88,-88,cs),
(80,-88,l),
(64,-104,l),
(64,-120,l),
(80,-136,l),
(96,-136,ls),
(164,-136,o),
(200,-88,o),
(200,-20,cs),
(200,112,l),
(184,128,l),
(88,128,l),
(72,112,l),
(72,16,l),
(88,0,l)
);
}
);
width = 264;
},
{
layerId = m002;
shapes = (
{
closed = 1;
nodes = (
(84,0,l),
(96,-12,l),
(96,-20,ls),
(96,-64,o),
(84,-88,o),
(48,-88,cs),
(40,-88,l),
(24,-104,l),
(24,-120,l),
(40,-136,l),
(56,-136,ls),
(124,-136,o),
(160,-88,o),
(160,-20,cs),
(160,112,l),
(144,128,l),
(48,128,l),
(32,112,l),
(32,16,l),
(48,0,l)
);
}
);
width = 184;
}
);
unicode = 44;
},
{
glyphname = exclam;
lastChange = "2024-06-18 23:15:57 +0000";
layers = (
{
layerId = m01;
shapes = (
{
closed = 1;
nodes = (
(200,0,l),
(216,16,l),
(216,116,l),
(200,132,l),
(100,132,l),
(84,116,l),
(84,16,l),
(100,0,l)
);
},
{
closed = 1;
nodes = (
(176,232,l),
(192,248,l),
(208,576,l),
(208,784,l),
(192,800,l),
(108,800,l),
(92,784,l),
(92,576,l),
(108,248,l),
(124,232,l)
);
}
);
width = 296;
},
{
layerId = m002;
shapes = (
{
closed = 1;
nodes = (
(136,0,l),
(152,16,l),
(152,100,l),
(136,116,l),
(48,116,l),
(32,100,l),
(32,16,l),
(48,0,l)
);
},
{
closed = 1;
nodes = (
(116,232,l),
(132,248,l),
(152,576,l),
(152,784,l),
(136,800,l),
(48,800,l),
(32,784,l),
(32,576,l),
(52,248,l),
(68,232,l)
);
}
);
width = 184;
}
);
unicode = 33;
},
{
glyphname = question;
lastChange = "2024-06-18 23:14:27 +0000";
layers = (
{
layerId = m01;
shapes = (
{
closed = 1;
nodes = (
(316,232,l),
(332,248,l),
(332,280,ls),
(332,372,o),
(556,400,o),
(556,576,cs),
(556,692,o),
(480,816,o),
(292,816,cs),
(124,816,o),
(32,704,o),
(32,576,c),
(48,560,l),
(128,560,l),
(144,576,l),
(144,648,o),
(196,716,o),
(292,716,cs),
(400,716,o),
(440,656,o),
(440,576,cs),
(440,448,o),
(220,448,o),
(220,280,cs),
(220,248,l),
(236,232,l)
);
},
{
closed = 1;
nodes = (
(324,0,l),
(340,16,l),
(340,112,l),
(324,128,l),
(228,128,l),
(212,112,l),
(212,16,l),
(228,0,l)
);
}
);
width = 588;
},
{
layerId = m002;
shapes = (
{
closed = 1;
nodes = (
(316,232,l),
(332,248,l),
(332,280,l),
(332,372,o),
(556,400,o),
(556,576,cs),
(556,692,o),
(480,816,o),
(292,816,cs),
(124,816,o),
(32,704,o),
(32,576,c),
(48,560,l),
(128,560,l),
(144,576,l),
(144,648,o),
(196,716,o),
(292,716,cs),
(400,716,o),
(440,656,o),
(440,576,cs),
(440,448,o),
(220,448,o),
(220,280,c),
(220,248,l),
(236,232,l)
);
},
{
closed = 1;
nodes = (
(328,0,l),
(344,16,l),
(344,112,l),
(328,128,l),
(228,128,l),
(212,112,l),
(212,16,l),
(228,0,l)
);
}
);
width = 588;
}
);
unicode = 63;
},
{
color = 9;
glyphname = asterisk;
lastChange = "2024-06-14 21:51:25 +0000";
layers = (
{
layerId = m01;
shapes = (
{
closed = 1;
nodes = (
(84,808,l),
(92,816,l),
(92,884,l),
(84,892,l),
(16,892,l),
(8,884,l),
(8,816,l),
(16,808,l)
);
},
{
closed = 1;
nodes = (
(84,708,l),
(92,716,l),
(92,784,l),
(84,792,l),
(16,792,l),
(8,784,l),
(8,716,l),
(16,708,l)
);
},
{
closed = 1;
nodes = (
(84,608,l),
(92,616,l),
(92,684,l),
(84,692,l),
(16,692,l),
(8,684,l),
(8,616,l),
(16,608,l)
);
},
{
closed = 1;
nodes = (
(84,508,l),
(92,516,l),
(92,584,l),
(84,592,l),
(16,592,l),
(8,584,l),
(8,516,l),
(16,508,l)
);
},
{
closed = 1;
nodes = (
(84,408,l),
(92,416,l),
(92,484,l),
(84,492,l),
(16,492,l),
(8,484,l),
(8,416,l),
(16,408,l)
);
},
{
closed = 1;
nodes = (
(84,308,l),
(92,316,l),
(92,384,l),
(84,392,l),
(16,392,l),
(8,384,l),
(8,316,l),
(16,308,l)
);
},
{
closed = 1;
nodes = (
(84,208,l),
(92,216,l),
(92,284,l),
(84,292,l),
(16,292,l),
(8,284,l),
(8,216,l),
(16,208,l)
);
},
{
closed = 1;
nodes = (
(84,108,l),
(92,116,l),
(92,184,l),
(84,192,l),
(16,192,l),
(8,184,l),
(8,116,l),
(16,108,l)
);
},
{
closed = 1;
nodes = (
(184,808,l),
(192,816,l),
(192,884,l),
(184,892,l),
(116,892,l),
(108,884,l),
(108,816,l),
(116,808,l)
);
},
{
closed = 1;
nodes = (
(184,708,l),
(192,716,l),
(192,784,l),
(184,792,l),
(116,792,l),
(108,784,l),
(108,716,l),
(116,708,l)
);
},
{
closed = 1;
nodes = (
(184,608,l),
(192,616,l),
(192,684,l),
(184,692,l),
(116,692,l),
(108,684,l),
(108,616,l),
(116,608,l)
);
},
{
closed = 1;
nodes = (
(184,508,l),
(192,516,l),
(192,584,l),
(184,592,l),
(116,592,l),
(108,584,l),
(108,516,l),
(116,508,l)
);
},
{
closed = 1;
nodes = (
(184,408,l),
(192,416,l),
(192,484,l),
(184,492,l),
(116,492,l),
(108,484,l),
(108,416,l),
(116,408,l)
);
},
{
closed = 1;
nodes = (
(184,308,l),
(192,316,l),
(192,384,l),
(184,392,l),
(116,392,l),
(108,384,l),
(108,316,l),
(116,308,l)
);
},
{
closed = 1;
nodes = (
(184,208,l),
(192,216,l),
(192,284,l),
(184,292,l),
(116,292,l),
(108,284,l),
(108,216,l),
(116,208,l)
);
},
{
closed = 1;
nodes = (
(184,108,l),
(192,116,l),
(192,184,l),
(184,192,l),
(116,192,l),
(108,184,l),
(108,116,l),
(116,108,l)
);
},
{
closed = 1;
nodes = (
(284,808,l),
(292,816,l),
(292,884,l),
(284,892,l),
(216,892,l),
(208,884,l),
(208,816,l),
(216,808,l)
);
},
{
closed = 1;
nodes = (
(284,708,l),
(292,716,l),
(292,784,l),
(284,792,l),
(216,792,l),
(208,784,l),
(208,716,l),
(216,708,l)
);
},
{
closed = 1;
nodes = (
(284,608,l),
(292,616,l),
(292,684,l),
(284,692,l),
(216,692,l),
(208,684,l),
(208,616,l),
(216,608,l)
);
},
{
closed = 1;
nodes = (
(284,508,l),
(292,516,l),
(292,584,l),
(284,592,l),
(216,592,l),
(208,584,l),
(208,516,l),
(216,508,l)
);
},
{
closed = 1;
nodes = (
(284,408,l),
(292,416,l),
(292,484,l),
(284,492,l),
(216,492,l),
(208,484,l),
(208,416,l),
(216,408,l)
);
},
{
closed = 1;
nodes = (
(284,308,l),
(292,316,l),
(292,384,l),
(284,392,l),
(216,392,l),
(208,384,l),
(208,316,l),
(216,308,l)
);
},
{
closed = 1;
nodes = (
(216,620,l),
(216,680,l),
(220,684,l),
(280,684,l),
(284,680,l),
(284,620,l),
(280,616,l),
(220,616,l)
);
},
{
closed = 1;
nodes = (
(216,520,l),
(216,580,l),
(220,584,l),
(280,584,l),
(284,580,l),
(284,520,l),
(280,516,l),
(220,516,l)
);
},
{
closed = 1;
nodes = (
(284,208,l),
(292,216,l),
(292,284,l),
(284,292,l),
(216,292,l),
(208,284,l),
(208,216,l),
(216,208,l)
);
},
{
closed = 1;
nodes = (
(284,108,l),
(292,116,l),
(292,184,l),
(284,192,l),
(216,192,l),
(208,184,l),
(208,116,l),
(216,108,l)
);
},
{
closed = 1;
nodes = (
(216,220,l),
(216,280,l),
(220,284,l),
(280,284,l),
(284,280,l),
(284,220,l),
(280,216,l),
(220,216,l)
);
},
{
closed = 1;
nodes = (
(216,120,l),
(216,180,l),
(220,184,l),
(280,184,l),
(284,180,l),
(284,120,l),
(280,116,l),
(220,116,l)
);
},
{
closed = 1;
nodes = (
(384,808,l),
(392,816,l),
(392,884,l),
(384,892,l),
(316,892,l),
(308,884,l),
(308,816,l),
(316,808,l)
);
},
{
closed = 1;
nodes = (
(384,708,l),
(392,716,l),
(392,784,l),
(384,792,l),
(316,792,l),
(308,784,l),
(308,716,l),
(316,708,l)
);
},
{
closed = 1;
nodes = (
(384,608,l),
(392,616,l),
(392,684,l),
(384,692,l),
(316,692,l),
(308,684,l),
(308,616,l),
(316,608,l)
);
},
{
closed = 1;
nodes = (
(384,508,l),
(392,516,l),
(392,584,l),
(384,592,l),
(316,592,l),
(308,584,l),
(308,516,l),
(316,508,l)
);
},
{
closed = 1;
nodes = (
(384,408,l),
(392,416,l),
(392,484,l),
(384,492,l),
(316,492,l),
(308,484,l),
(308,416,l),
(316,408,l)
);
},
{
closed = 1;
nodes = (
(384,308,l),
(392,316,l),
(392,384,l),
(384,392,l),
(316,392,l),
(308,384,l),
(308,316,l),
(316,308,l)
);
},
{
closed = 1;
nodes = (
(316,620,l),
(316,680,l),
(320,684,l),
(380,684,l),
(384,680,l),
(384,620,l),
(380,616,l),
(320,616,l)
);
},
{
closed = 1;
nodes = (
(316,520,l),
(316,580,l),
(320,584,l),
(380,584,l),
(384,580,l),
(384,520,l),
(380,516,l),
(320,516,l)
);
},
{
closed = 1;
nodes = (
(384,208,l),
(392,216,l),
(392,284,l),
(384,292,l),
(316,292,l),
(308,284,l),
(308,216,l),
(316,208,l)
);
},
{
closed = 1;
nodes = (
(384,108,l),
(392,116,l),
(392,184,l),
(384,192,l),
(316,192,l),
(308,184,l),
(308,116,l),
(316,108,l)
);
},
{
closed = 1;
nodes = (
(316,220,l),
(316,280,l),
(320,284,l),
(380,284,l),
(384,280,l),
(384,220,l),
(380,216,l),
(320,216,l)
);
},
{
closed = 1;
nodes = (
(316,120,l),
(316,180,l),
(320,184,l),
(380,184,l),
(384,180,l),
(384,120,l),
(380,116,l),
(320,116,l)
);
},
{
closed = 1;
nodes = (
(484,808,l),
(492,816,l),
(492,884,l),
(484,892,l),
(416,892,l),
(408,884,l),
(408,816,l),
(416,808,l)
);
},
{
closed = 1;
nodes = (
(484,708,l),
(492,716,l),
(492,784,l),
(484,792,l),
(416,792,l),
(408,784,l),
(408,716,l),
(416,708,l)
);
},
{
closed = 1;
nodes = (
(484,608,l),
(492,616,l),
(492,684,l),
(484,692,l),
(416,692,l),
(408,684,l),
(408,616,l),
(416,608,l)
);
},
{
closed = 1;
nodes = (
(484,508,l),
(492,516,l),
(492,584,l),
(484,592,l),
(416,592,l),
(408,584,l),
(408,516,l),
(416,508,l)
);
},
{
closed = 1;
nodes = (
(484,408,l),
(492,416,l),
(492,484,l),
(484,492,l),
(416,492,l),
(408,484,l),
(408,416,l),
(416,408,l)
);
},
{
closed = 1;
nodes = (
(484,308,l),
(492,316,l),
(492,384,l),
(484,392,l),
(416,392,l),
(408,384,l),
(408,316,l),
(416,308,l)
);
},
{
closed = 1;
nodes = (
(416,620,l),
(416,680,l),
(420,684,l),
(480,684,l),
(484,680,l),
(484,620,l),
(480,616,l),
(420,616,l)
);
},
{
closed = 1;
nodes = (
(416,520,l),
(416,580,l),
(420,584,l),
(480,584,l),
(484,580,l),
(484,520,l),
(480,516,l),
(420,516,l)
);
},
{
closed = 1;
nodes = (
(484,208,l),
(492,216,l),
(492,284,l),
(484,292,l),
(416,292,l),
(408,284,l),
(408,216,l),
(416,208,l)
);
},
{
closed = 1;
nodes = (
(484,108,l),
(492,116,l),
(492,184,l),
(484,192,l),
(416,192,l),
(408,184,l),
(408,116,l),
(416,108,l)
);
},
{
closed = 1;
nodes = (
(416,220,l),
(416,280,l),
(420,284,l),
(480,284,l),
(484,280,l),
(484,220,l),
(480,216,l),
(420,216,l)
);
},
{
closed = 1;
nodes = (
(416,120,l),
(416,180,l),
(420,184,l),
(480,184,l),
(484,180,l),
(484,120,l),
(480,116,l),
(420,116,l)
);
},
{
closed = 1;
nodes = (
(584,808,l),
(592,816,l),
(592,884,l),
(584,892,l),
(516,892,l),
(508,884,l),
(508,816,l),
(516,808,l)
);
},
{
closed = 1;
nodes = (
(584,708,l),
(592,716,l),
(592,784,l),
(584,792,l),
(516,792,l),
(508,784,l),
(508,716,l),
(516,708,l)
);
},
{
closed = 1;
nodes = (
(584,608,l),
(592,616,l),
(592,684,l),
(584,692,l),
(516,692,l),
(508,684,l),
(508,616,l),
(516,608,l)
);
},
{
closed = 1;
nodes = (
(584,508,l),
(592,516,l),
(592,584,l),
(584,592,l),
(516,592,l),
(508,584,l),
(508,516,l),
(516,508,l)
);
},
{
closed = 1;
nodes = (
(584,408,l),
(592,416,l),
(592,484,l),
(584,492,l),
(516,492,l),
(508,484,l),
(508,416,l),
(516,408,l)
);
},
{
closed = 1;
nodes = (
(584,308,l),
(592,316,l),
(592,384,l),
(584,392,l),
(516,392,l),
(508,384,l),
(508,316,l),
(516,308,l)
);
},
{
closed = 1;
nodes = (
(516,620,l),
(516,680,l),
(520,684,l),
(580,684,l),
(584,680,l),
(584,620,l),
(580,616,l),
(520,616,l)
);
},
{
closed = 1;
nodes = (
(516,520,l),
(516,580,l),
(520,584,l),
(580,584,l),
(584,580,l),
(584,520,l),
(580,516,l),
(520,516,l)
);
},
{
closed = 1;
nodes = (
(584,208,l),
(592,216,l),
(592,284,l),
(584,292,l),
(516,292,l),
(508,284,l),
(508,216,l),
(516,208,l)
);
},
{
closed = 1;
nodes = (
(584,108,l),
(592,116,l),
(592,184,l),
(584,192,l),
(516,192,l),
(508,184,l),
(508,116,l),
(516,108,l)
);
},
{
closed = 1;
nodes = (
(516,220,l),
(516,280,l),
(520,284,l),
(580,284,l),
(584,280,l),
(584,220,l),
(580,216,l),
(520,216,l)
);
},
{
closed = 1;
nodes = (
(516,120,l),
(516,180,l),
(520,184,l),
(580,184,l),
(584,180,l),
(584,120,l),
(580,116,l),
(520,116,l)
);
},
{
closed = 1;
nodes = (
(684,808,l),
(692,816,l),
(692,884,l),
(684,892,l),
(616,892,l),
(608,884,l),
(608,816,l),
(616,808,l)
);
},
{
closed = 1;
nodes = (
(684,708,l),
(692,716,l),
(692,784,l),
(684,792,l),
(616,792,l),
(608,784,l),
(608,716,l),
(616,708,l)
);
},
{
closed = 1;
nodes = (
(684,608,l),
(692,616,l),
(692,684,l),
(684,692,l),
(616,692,l),
(608,684,l),
(608,616,l),
(616,608,l)
);
},
{
closed = 1;
nodes = (
(684,508,l),
(692,516,l),
(692,584,l),
(684,592,l),
(616,592,l),
(608,584,l),
(608,516,l),
(616,508,l)
);
},
{
closed = 1;
nodes = (
(684,408,l),
(692,416,l),
(692,484,l),
(684,492,l),
(616,492,l),
(608,484,l),
(608,416,l),
(616,408,l)
);
},
{
closed = 1;
nodes = (
(684,308,l),
(692,316,l),
(692,384,l),
(684,392,l),
(616,392,l),
(608,384,l),
(608,316,l),
(616,308,l)
);
},
{
closed = 1;
nodes = (
(616,620,l),
(616,680,l),
(620,684,l),
(680,684,l),
(684,680,l),
(684,620,l),
(680,616,l),
(620,616,l)
);
},
{
closed = 1;
nodes = (
(616,520,l),
(616,580,l),
(620,584,l),
(680,584,l),
(684,580,l),
(684,520,l),
(680,516,l),
(620,516,l)
);
},
{
closed = 1;
nodes = (
(684,208,l),
(692,216,l),
(692,284,l),
(684,292,l),
(616,292,l),
(608,284,l),
(608,216,l),
(616,208,l)
);
},
{
closed = 1;
nodes = (
(684,108,l),
(692,116,l),
(692,184,l),
(684,192,l),
(616,192,l),
(608,184,l),
(608,116,l),
(616,108,l)
);
},
{
closed = 1;
nodes = (
(616,220,l),
(616,280,l),
(620,284,l),
(680,284,l),
(684,280,l),
(684,220,l),
(680,216,l),
(620,216,l)
);
},
{
closed = 1;
nodes = (
(616,120,l),
(616,180,l),
(620,184,l),
(680,184,l),
(684,180,l),
(684,120,l),
(680,116,l),
(620,116,l)
);
},
{
closed = 1;
nodes = (
(784,808,l),
(792,816,l),
(792,884,l),
(784,892,l),
(716,892,l),
(708,884,l),
(708,816,l),
(716,808,l)
);
},
{
closed = 1;
nodes = (
(784,708,l),
(792,716,l),
(792,784,l),
(784,792,l),
(716,792,l),
(708,784,l),
(708,716,l),
(716,708,l)
);
},
{
closed = 1;
nodes = (
(784,608,l),
(792,616,l),
(792,684,l),
(784,692,l),
(716,692,l),
(708,684,l),
(708,616,l),
(716,608,l)
);
},
{
closed = 1;
nodes = (
(784,508,l),
(792,516,l),
(792,584,l),
(784,592,l),
(716,592,l),
(708,584,l),
(708,516,l),
(716,508,l)
);
},
{
closed = 1;
nodes = (
(784,408,l),
(792,416,l),
(792,484,l),
(784,492,l),
(716,492,l),
(708,484,l),
(708,416,l),
(716,408,l)
);
},
{
closed = 1;
nodes = (
(784,308,l),
(792,316,l),
(792,384,l),
(784,392,l),
(716,392,l),
(708,384,l),
(708,316,l),
(716,308,l)
);
},
{
closed = 1;
nodes = (
(716,620,l),
(716,680,l),
(720,684,l),
(780,684,l),
(784,680,l),
(784,620,l),
(780,616,l),
(720,616,l)
);
},
{
closed = 1;
nodes = (
(716,520,l),
(716,580,l),
(720,584,l),
(780,584,l),
(784,580,l),
(784,520,l),
(780,516,l),
(720,516,l)
);
},
{
closed = 1;
nodes = (
(784,208,l),
(792,216,l),
(792,284,l),
(784,292,l),
(716,292,l),
(708,284,l),
(708,216,l),
(716,208,l)
);
},
{
closed = 1;
nodes = (
(784,108,l),
(792,116,l),
(792,184,l),
(784,192,l),
(716,192,l),
(708,184,l),
(708,116,l),
(716,108,l)
);
},
{
closed = 1;
nodes = (
(716,220,l),
(716,280,l),
(720,284,l),
(780,284,l),
(784,280,l),
(784,220,l),
(780,216,l),
(720,216,l)
);
},
{
closed = 1;
nodes = (
(716,120,l),
(716,180,l),
(720,184,l),
(780,184,l),
(784,180,l),
(784,120,l),
(780,116,l),
(720,116,l)
);
},
{
closed = 1;
nodes = (
(616,420,l),
(616,480,l),
(620,484,l),
(680,484,l),
(684,480,l),
(684,420,l),
(680,416,l),
(620,416,l)
);
},
{
closed = 1;
nodes = (
(616,320,l),
(616,380,l),
(620,384,l),
(680,384,l),
(684,380,l),
(684,320,l),
(680,316,l),
(620,316,l)
);
},
{
closed = 1;
nodes = (
(716,420,l),
(716,480,l),
(720,484,l),
(780,484,l),
(784,480,l),
(784,420,l),
(780,416,l),
(720,416,l)
);
},
{
closed = 1;
nodes = (
(716,320,l),
(716,380,l),
(720,384,l),
(780,384,l),
(784,380,l),
(784,320,l),
(780,316,l),
(720,316,l)
);
},
{
closed = 1;
nodes = (
(84,8,l),
(92,16,l),
(92,84,l),
(84,92,l),
(16,92,l),
(8,84,l),
(8,16,l),
(16,8,l)
);
},
{
closed = 1;
nodes = (
(184,8,l),
(192,16,l),
(192,84,l),
(184,92,l),
(116,92,l),
(108,84,l),
(108,16,l),
(116,8,l)
);
},
{
closed = 1;
nodes = (
(284,8,l),
(292,16,l),
(292,84,l),
(284,92,l),
(216,92,l),
(208,84,l),
(208,16,l),
(216,8,l)
);
},
{
closed = 1;
nodes = (
(216,20,l),
(216,80,l),
(220,84,l),
(280,84,l),
(284,80,l),
(284,20,l),
(280,16,l),
(220,16,l)
);
},
{
closed = 1;
nodes = (
(384,8,l),
(392,16,l),
(392,84,l),
(384,92,l),
(316,92,l),
(308,84,l),
(308,16,l),
(316,8,l)
);
},
{
closed = 1;
nodes = (
(316,20,l),
(316,80,l),
(320,84,l),
(380,84,l),
(384,80,l),
(384,20,l),
(380,16,l),
(320,16,l)
);
},
{
closed = 1;
nodes = (
(484,8,l),
(492,16,l),
(492,84,l),
(484,92,l),
(416,92,l),
(408,84,l),
(408,16,l),
(416,8,l)
);
},
{
closed = 1;
nodes = (
(416,20,l),
(416,80,l),
(420,84,l),
(480,84,l),
(484,80,l),
(484,20,l),
(480,16,l),
(420,16,l)
);
},
{
closed = 1;
nodes = (
(584,8,l),
(592,16,l),
(592,84,l),
(584,92,l),
(516,92,l),
(508,84,l),
(508,16,l),
(516,8,l)
);
},
{
closed = 1;
nodes = (
(516,20,l),
(516,80,l),
(520,84,l),
(580,84,l),
(584,80,l),
(584,20,l),
(580,16,l),
(520,16,l)
);
},
{
closed = 1;
nodes = (
(684,8,l),
(692,16,l),
(692,84,l),
(684,92,l),
(616,92,l),
(608,84,l),
(608,16,l),
(616,8,l)
);
},
{
closed = 1;
nodes = (
(616,20,l),
(616,80,l),
(620,84,l),
(680,84,l),
(684,80,l),
(684,20,l),
(680,16,l),
(620,16,l)
);
},
{
closed = 1;
nodes = (
(784,8,l),
(792,16,l),
(792,84,l),
(784,92,l),
(716,92,l),
(708,84,l),
(708,16,l),
(716,8,l)
);
},
{
closed = 1;
nodes = (
(716,20,l),
(716,80,l),
(720,84,l),
(780,84,l),
(784,80,l),
(784,20,l),
(780,16,l),
(720,16,l)
);
}
);
width = 600;
},
{
layerId = m002;
shapes = (
{
closed = 1;
nodes = (
(84,808,l),
(92,816,l),
(92,884,l),
(84,892,l),
(16,892,l),
(8,884,l),
(8,816,l),
(16,808,l)
);
},
{
closed = 1;
nodes = (
(84,708,l),
(92,716,l),
(92,784,l),
(84,792,l),
(16,792,l),
(8,784,l),
(8,716,l),
(16,708,l)
);
},
{
closed = 1;
nodes = (
(84,608,l),
(92,616,l),
(92,684,l),
(84,692,l),
(16,692,l),
(8,684,l),
(8,616,l),
(16,608,l)
);
},
{
closed = 1;
nodes = (
(84,508,l),
(92,516,l),
(92,584,l),
(84,592,l),
(16,592,l),
(8,584,l),
(8,516,l),
(16,508,l)
);
},
{
closed = 1;
nodes = (
(84,408,l),
(92,416,l),
(92,484,l),
(84,492,l),
(16,492,l),
(8,484,l),
(8,416,l),
(16,408,l)
);
},
{
closed = 1;
nodes = (
(84,308,l),
(92,316,l),
(92,384,l),
(84,392,l),
(16,392,l),
(8,384,l),
(8,316,l),
(16,308,l)
);
},
{
closed = 1;
nodes = (
(84,208,l),
(92,216,l),
(92,284,l),
(84,292,l),
(16,292,l),
(8,284,l),
(8,216,l),
(16,208,l)
);
},
{
closed = 1;
nodes = (
(84,108,l),
(92,116,l),
(92,184,l),
(84,192,l),
(16,192,l),
(8,184,l),
(8,116,l),
(16,108,l)
);
},
{
closed = 1;
nodes = (
(184,808,l),
(192,816,l),
(192,884,l),
(184,892,l),
(116,892,l),
(108,884,l),
(108,816,l),
(116,808,l)
);
},
{
closed = 1;
nodes = (
(184,708,l),
(192,716,l),
(192,784,l),
(184,792,l),
(116,792,l),
(108,784,l),
(108,716,l),
(116,708,l)
);
},
{
closed = 1;
nodes = (
(184,608,l),
(192,616,l),
(192,684,l),
(184,692,l),
(116,692,l),
(108,684,l),
(108,616,l),
(116,608,l)
);
},
{
closed = 1;
nodes = (
(184,508,l),
(192,516,l),
(192,584,l),
(184,592,l),
(116,592,l),
(108,584,l),
(108,516,l),
(116,508,l)
);
},
{
closed = 1;
nodes = (
(184,408,l),
(192,416,l),
(192,484,l),
(184,492,l),
(116,492,l),
(108,484,l),
(108,416,l),
(116,408,l)
);
},
{
closed = 1;
nodes = (
(184,308,l),
(192,316,l),
(192,384,l),
(184,392,l),
(116,392,l),
(108,384,l),
(108,316,l),
(116,308,l)
);
},
{
closed = 1;
nodes = (
(184,208,l),
(192,216,l),
(192,284,l),
(184,292,l),
(116,292,l),
(108,284,l),
(108,216,l),
(116,208,l)
);
},
{
closed = 1;
nodes = (
(184,108,l),
(192,116,l),
(192,184,l),
(184,192,l),
(116,192,l),
(108,184,l),
(108,116,l),
(116,108,l)
);
},
{
closed = 1;
nodes = (
(284,808,l),
(292,816,l),
(292,884,l),
(284,892,l),
(216,892,l),
(208,884,l),
(208,816,l),
(216,808,l)
);
},
{
closed = 1;
nodes = (
(284,708,l),
(292,716,l),
(292,784,l),
(284,792,l),
(216,792,l),
(208,784,l),
(208,716,l),
(216,708,l)
);
},
{
closed = 1;
nodes = (
(284,608,l),
(292,616,l),
(292,684,l),
(284,692,l),
(216,692,l),
(208,684,l),
(208,616,l),
(216,608,l)
);
},
{
closed = 1;
nodes = (
(284,508,l),
(292,516,l),
(292,584,l),
(284,592,l),
(216,592,l),
(208,584,l),
(208,516,l),
(216,508,l)
);
},
{
closed = 1;
nodes = (
(284,408,l),
(292,416,l),
(292,484,l),
(284,492,l),
(216,492,l),
(208,484,l),
(208,416,l),
(216,408,l)
);
},
{
closed = 1;
nodes = (
(284,308,l),
(292,316,l),
(292,384,l),
(284,392,l),
(216,392,l),
(208,384,l),
(208,316,l),
(216,308,l)
);
},
{
closed = 1;
nodes = (
(216,620,l),
(216,680,l),
(220,684,l),
(280,684,l),
(284,680,l),
(284,620,l),
(280,616,l),
(220,616,l)
);
},
{
closed = 1;
nodes = (
(216,520,l),
(216,580,l),
(220,584,l),
(280,584,l),
(284,580,l),
(284,520,l),
(280,516,l),
(220,516,l)
);
},
{
closed = 1;
nodes = (
(284,208,l),
(292,216,l),
(292,284,l),
(284,292,l),
(216,292,l),
(208,284,l),
(208,216,l),
(216,208,l)
);
},
{
closed = 1;
nodes = (
(284,108,l),
(292,116,l),
(292,184,l),
(284,192,l),
(216,192,l),
(208,184,l),
(208,116,l),
(216,108,l)
);
},
{
closed = 1;
nodes = (
(216,220,l),
(216,280,l),
(220,284,l),
(280,284,l),
(284,280,l),
(284,220,l),
(280,216,l),
(220,216,l)
);
},
{
closed = 1;
nodes = (
(216,120,l),
(216,180,l),
(220,184,l),
(280,184,l),
(284,180,l),
(284,120,l),
(280,116,l),
(220,116,l)
);
},
{
closed = 1;
nodes = (
(384,808,l),
(392,816,l),
(392,884,l),
(384,892,l),
(316,892,l),
(308,884,l),
(308,816,l),
(316,808,l)
);
},
{
closed = 1;
nodes = (
(384,708,l),
(392,716,l),
(392,784,l),
(384,792,l),
(316,792,l),
(308,784,l),
(308,716,l),
(316,708,l)
);
},
{
closed = 1;
nodes = (
(384,608,l),
(392,616,l),
(392,684,l),
(384,692,l),
(316,692,l),
(308,684,l),
(308,616,l),
(316,608,l)
);
},
{
closed = 1;
nodes = (
(384,508,l),
(392,516,l),
(392,584,l),
(384,592,l),
(316,592,l),
(308,584,l),
(308,516,l),
(316,508,l)
);
},
{
closed = 1;
nodes = (
(384,408,l),
(392,416,l),
(392,484,l),
(384,492,l),
(316,492,l),
(308,484,l),
(308,416,l),
(316,408,l)
);
},
{
closed = 1;
nodes = (
(384,308,l),
(392,316,l),
(392,384,l),
(384,392,l),
(316,392,l),
(308,384,l),
(308,316,l),
(316,308,l)
);
},
{
closed = 1;
nodes = (
(316,620,l),
(316,680,l),
(320,684,l),
(380,684,l),
(384,680,l),
(384,620,l),
(380,616,l),
(320,616,l)
);
},
{
closed = 1;
nodes = (
(316,520,l),
(316,580,l),
(320,584,l),
(380,584,l),
(384,580,l),
(384,520,l),
(380,516,l),
(320,516,l)
);
},
{
closed = 1;
nodes = (
(384,208,l),
(392,216,l),
(392,284,l),
(384,292,l),
(316,292,l),
(308,284,l),
(308,216,l),
(316,208,l)
);
},
{
closed = 1;
nodes = (
(384,108,l),
(392,116,l),
(392,184,l),
(384,192,l),
(316,192,l),
(308,184,l),
(308,116,l),
(316,108,l)
);
},
{
closed = 1;
nodes = (
(316,220,l),
(316,280,l),
(320,284,l),
(380,284,l),
(384,280,l),
(384,220,l),
(380,216,l),
(320,216,l)
);
},
{
closed = 1;
nodes = (
(316,120,l),
(316,180,l),
(320,184,l),
(380,184,l),
(384,180,l),
(384,120,l),
(380,116,l),
(320,116,l)
);
},
{
closed = 1;
nodes = (
(484,808,l),
(492,816,l),
(492,884,l),
(484,892,l),
(416,892,l),
(408,884,l),
(408,816,l),
(416,808,l)
);
},
{
closed = 1;
nodes = (
(484,708,l),
(492,716,l),
(492,784,l),
(484,792,l),
(416,792,l),
(408,784,l),
(408,716,l),
(416,708,l)
);
},
{
closed = 1;
nodes = (
(484,608,l),
(492,616,l),
(492,684,l),
(484,692,l),
(416,692,l),
(408,684,l),
(408,616,l),
(416,608,l)
);
},
{
closed = 1;
nodes = (
(484,508,l),
(492,516,l),
(492,584,l),
(484,592,l),
(416,592,l),
(408,584,l),
(408,516,l),
(416,508,l)
);
},
{
closed = 1;
nodes = (
(484,408,l),
(492,416,l),
(492,484,l),
(484,492,l),
(416,492,l),
(408,484,l),
(408,416,l),
(416,408,l)
);
},
{
closed = 1;
nodes = (
(484,308,l),
(492,316,l),
(492,384,l),
(484,392,l),
(416,392,l),
(408,384,l),
(408,316,l),
(416,308,l)
);
},
{
closed = 1;
nodes = (
(416,620,l),
(416,680,l),
(420,684,l),
(480,684,l),
(484,680,l),
(484,620,l),
(480,616,l),
(420,616,l)
);
},
{
closed = 1;
nodes = (
(416,520,l),
(416,580,l),
(420,584,l),
(480,584,l),
(484,580,l),
(484,520,l),
(480,516,l),
(420,516,l)
);
},
{
closed = 1;
nodes = (
(484,208,l),
(492,216,l),
(492,284,l),
(484,292,l),
(416,292,l),
(408,284,l),
(408,216,l),
(416,208,l)
);
},
{
closed = 1;
nodes = (
(484,108,l),
(492,116,l),
(492,184,l),
(484,192,l),
(416,192,l),
(408,184,l),
(408,116,l),
(416,108,l)
);
},
{
closed = 1;
nodes = (
(416,220,l),
(416,280,l),
(420,284,l),
(480,284,l),
(484,280,l),
(484,220,l),
(480,216,l),
(420,216,l)
);
},
{
closed = 1;
nodes = (
(416,120,l),
(416,180,l),
(420,184,l),
(480,184,l),
(484,180,l),
(484,120,l),
(480,116,l),
(420,116,l)
);
},
{
closed = 1;
nodes = (
(584,808,l),
(592,816,l),
(592,884,l),
(584,892,l),
(516,892,l),
(508,884,l),
(508,816,l),
(516,808,l)
);
},
{
closed = 1;
nodes = (
(584,708,l),
(592,716,l),
(592,784,l),
(584,792,l),
(516,792,l),
(508,784,l),
(508,716,l),
(516,708,l)
);
},
{
closed = 1;
nodes = (
(584,608,l),
(592,616,l),
(592,684,l),
(584,692,l),
(516,692,l),
(508,684,l),
(508,616,l),
(516,608,l)
);
},
{
closed = 1;
nodes = (
(584,508,l),
(592,516,l),
(592,584,l),
(584,592,l),
(516,592,l),
(508,584,l),
(508,516,l),
(516,508,l)
);
},
{
closed = 1;
nodes = (
(584,408,l),
(592,416,l),
(592,484,l),
(584,492,l),
(516,492,l),
(508,484,l),
(508,416,l),
(516,408,l)
);
},
{
closed = 1;
nodes = (
(584,308,l),
(592,316,l),
(592,384,l),
(584,392,l),
(516,392,l),
(508,384,l),
(508,316,l),
(516,308,l)
);
},
{
closed = 1;
nodes = (
(516,620,l),
(516,680,l),
(520,684,l),
(580,684,l),
(584,680,l),
(584,620,l),
(580,616,l),
(520,616,l)
);
},
{
closed = 1;
nodes = (
(516,520,l),
(516,580,l),
(520,584,l),
(580,584,l),
(584,580,l),
(584,520,l),
(580,516,l),
(520,516,l)
);
},
{
closed = 1;
nodes = (
(584,208,l),
(592,216,l),
(592,284,l),
(584,292,l),
(516,292,l),
(508,284,l),
(508,216,l),
(516,208,l)
);
},
{
closed = 1;
nodes = (
(584,108,l),
(592,116,l),
(592,184,l),
(584,192,l),
(516,192,l),
(508,184,l),
(508,116,l),
(516,108,l)
);
},
{
closed = 1;
nodes = (
(516,220,l),
(516,280,l),
(520,284,l),
(580,284,l),
(584,280,l),
(584,220,l),
(580,216,l),
(520,216,l)
);
},
{
closed = 1;
nodes = (
(516,120,l),
(516,180,l),
(520,184,l),
(580,184,l),
(584,180,l),
(584,120,l),
(580,116,l),
(520,116,l)
);
},
{
closed = 1;
nodes = (
(684,808,l),
(692,816,l),
(692,884,l),
(684,892,l),
(616,892,l),
(608,884,l),
(608,816,l),
(616,808,l)
);
},
{
closed = 1;
nodes = (
(684,708,l),
(692,716,l),
(692,784,l),
(684,792,l),
(616,792,l),
(608,784,l),
(608,716,l),
(616,708,l)
);
},
{
closed = 1;
nodes = (
(684,608,l),
(692,616,l),
(692,684,l),
(684,692,l),
(616,692,l),
(608,684,l),
(608,616,l),
(616,608,l)
);
},
{
closed = 1;
nodes = (
(684,508,l),
(692,516,l),
(692,584,l),
(684,592,l),
(616,592,l),
(608,584,l),
(608,516,l),
(616,508,l)
);
},
{
closed = 1;
nodes = (
(684,408,l),
(692,416,l),
(692,484,l),
(684,492,l),
(616,492,l),
(608,484,l),
(608,416,l),
(616,408,l)
);
},
{
closed = 1;
nodes = (
(684,308,l),
(692,316,l),
(692,384,l),
(684,392,l),
(616,392,l),
(608,384,l),
(608,316,l),
(616,308,l)
);
},
{
closed = 1;
nodes = (
(616,620,l),
(616,680,l),
(620,684,l),
(680,684,l),
(684,680,l),
(684,620,l),
(680,616,l),
(620,616,l)
);
},
{
closed = 1;
nodes = (
(616,520,l),
(616,580,l),
(620,584,l),
(680,584,l),
(684,580,l),
(684,520,l),
(680,516,l),
(620,516,l)
);
},
{
closed = 1;
nodes = (
(684,208,l),
(692,216,l),
(692,284,l),
(684,292,l),
(616,292,l),
(608,284,l),
(608,216,l),
(616,208,l)
);
},
{
closed = 1;
nodes = (
(684,108,l),
(692,116,l),
(692,184,l),
(684,192,l),
(616,192,l),
(608,184,l),
(608,116,l),
(616,108,l)
);
},
{
closed = 1;
nodes = (
(616,220,l),
(616,280,l),
(620,284,l),
(680,284,l),
(684,280,l),
(684,220,l),
(680,216,l),
(620,216,l)
);
},
{
closed = 1;
nodes = (
(616,120,l),
(616,180,l),
(620,184,l),
(680,184,l),
(684,180,l),
(684,120,l),
(680,116,l),
(620,116,l)
);
},
{
closed = 1;
nodes = (
(784,808,l),
(792,816,l),
(792,884,l),
(784,892,l),
(716,892,l),
(708,884,l),
(708,816,l),
(716,808,l)
);
},
{
closed = 1;
nodes = (
(784,708,l),
(792,716,l),
(792,784,l),
(784,792,l),
(716,792,l),
(708,784,l),
(708,716,l),
(716,708,l)
);
},
{
closed = 1;
nodes = (
(784,608,l),
(792,616,l),
(792,684,l),
(784,692,l),
(716,692,l),
(708,684,l),
(708,616,l),
(716,608,l)
);
},
{
closed = 1;
nodes = (
(784,508,l),
(792,516,l),
(792,584,l),
(784,592,l),
(716,592,l),
(708,584,l),
(708,516,l),
(716,508,l)
);
},
{
closed = 1;
nodes = (
(784,408,l),
(792,416,l),
(792,484,l),
(784,492,l),
(716,492,l),
(708,484,l),
(708,416,l),
(716,408,l)
);
},
{
closed = 1;
nodes = (
(784,308,l),
(792,316,l),
(792,384,l),
(784,392,l),
(716,392,l),
(708,384,l),
(708,316,l),
(716,308,l)
);
},
{
closed = 1;
nodes = (
(716,620,l),
(716,680,l),
(720,684,l),
(780,684,l),
(784,680,l),
(784,620,l),
(780,616,l),
(720,616,l)
);
},
{
closed = 1;
nodes = (
(716,520,l),
(716,580,l),
(720,584,l),
(780,584,l),
(784,580,l),
(784,520,l),
(780,516,l),
(720,516,l)
);
},
{
closed = 1;
nodes = (
(784,208,l),
(792,216,l),
(792,284,l),
(784,292,l),
(716,292,l),
(708,284,l),
(708,216,l),
(716,208,l)
);
},
{
closed = 1;
nodes = (
(784,108,l),
(792,116,l),
(792,184,l),
(784,192,l),
(716,192,l),
(708,184,l),
(708,116,l),
(716,108,l)
);
},
{
closed = 1;
nodes = (
(716,220,l),
(716,280,l),
(720,284,l),
(780,284,l),
(784,280,l),
(784,220,l),
(780,216,l),
(720,216,l)
);
},
{
closed = 1;
nodes = (
(716,120,l),
(716,180,l),
(720,184,l),
(780,184,l),
(784,180,l),
(784,120,l),
(780,116,l),
(720,116,l)
);
},
{
closed = 1;
nodes = (
(616,420,l),
(616,480,l),
(620,484,l),
(680,484,l),
(684,480,l),
(684,420,l),
(680,416,l),
(620,416,l)
);
},
{
closed = 1;
nodes = (
(616,320,l),
(616,380,l),
(620,384,l),
(680,384,l),
(684,380,l),
(684,320,l),
(680,316,l),
(620,316,l)
);
},
{
closed = 1;
nodes = (
(716,420,l),
(716,480,l),
(720,484,l),
(780,484,l),
(784,480,l),
(784,420,l),
(780,416,l),
(720,416,l)
);
},
{
closed = 1;
nodes = (
(716,320,l),
(716,380,l),
(720,384,l),
(780,384,l),
(784,380,l),
(784,320,l),
(780,316,l),
(720,316,l)
);
},
{
closed = 1;
nodes = (
(84,8,l),
(92,16,l),
(92,84,l),
(84,92,l),
(16,92,l),
(8,84,l),
(8,16,l),
(16,8,l)
);
},
{
closed = 1;
nodes = (
(184,8,l),
(192,16,l),
(192,84,l),
(184,92,l),
(116,92,l),
(108,84,l),
(108,16,l),
(116,8,l)
);
},
{
closed = 1;
nodes = (
(284,8,l),
(292,16,l),
(292,84,l),
(284,92,l),
(216,92,l),
(208,84,l),
(208,16,l),
(216,8,l)
);
},
{
closed = 1;
nodes = (
(216,20,l),
(216,80,l),
(220,84,l),
(280,84,l),
(284,80,l),
(284,20,l),
(280,16,l),
(220,16,l)
);
},
{
closed = 1;
nodes = (
(384,8,l),
(392,16,l),
(392,84,l),
(384,92,l),
(316,92,l),
(308,84,l),
(308,16,l),
(316,8,l)
);
},
{
closed = 1;
nodes = (
(316,20,l),
(316,80,l),
(320,84,l),
(380,84,l),
(384,80,l),
(384,20,l),
(380,16,l),
(320,16,l)
);
},
{
closed = 1;
nodes = (
(484,8,l),
(492,16,l),
(492,84,l),
(484,92,l),
(416,92,l),
(408,84,l),
(408,16,l),
(416,8,l)
);
},
{
closed = 1;
nodes = (
(416,20,l),
(416,80,l),
(420,84,l),
(480,84,l),
(484,80,l),
(484,20,l),
(480,16,l),
(420,16,l)
);
},
{
closed = 1;
nodes = (
(584,8,l),
(592,16,l),
(592,84,l),
(584,92,l),
(516,92,l),
(508,84,l),
(508,16,l),
(516,8,l)
);
},
{
closed = 1;
nodes = (
(516,20,l),
(516,80,l),
(520,84,l),
(580,84,l),
(584,80,l),
(584,20,l),
(580,16,l),
(520,16,l)
);
},
{
closed = 1;
nodes = (
(684,8,l),
(692,16,l),
(692,84,l),
(684,92,l),
(616,92,l),
(608,84,l),
(608,16,l),
(616,8,l)
);
},
{
closed = 1;
nodes = (
(616,20,l),
(616,80,l),
(620,84,l),
(680,84,l),
(684,80,l),
(684,20,l),
(680,16,l),
(620,16,l)
);
},
{
closed = 1;
nodes = (
(784,8,l),
(792,16,l),
(792,84,l),
(784,92,l),
(716,92,l),
(708,84,l),
(708,16,l),
(716,8,l)
);
},
{
closed = 1;
nodes = (
(716,20,l),
(716,80,l),
(720,84,l),
(780,84,l),
(784,80,l),
(784,20,l),
(780,16,l),
(720,16,l)
);
}
);
width = 800;
}
);
unicode = 42;
},
{
color = 9;
glyphname = numbersign;
lastChange = "2024-06-09 16:12:29 +0000";
layers = (
{
layerId = m01;
shapes = (
{
closed = 1;
nodes = (
(592,204,l),
(596,208,l),
(596,294,l),
(594,296,l),
(506,296,l),
(504,294,l),
(504,206,l),
(506,204,l)
);
},
{
closed = 1;
nodes = (
(694,296,l),
(696,294,l),
(696,206,l),
(694,204,l),
(600,204,l),
(596,200,l),
(596,106,l),
(594,104,l),
(506,104,l),
(504,106,l),
(504,198,l),
(502,200,l),
(498,200,l),
(496,198,l),
(496,106,l),
(494,104,l),
(406,104,l),
(404,106,l),
(404,198,l),
(402,200,l),
(398,200,l),
(396,198,l),
(396,106,l),
(394,104,l),
(306,104,l),
(304,106,l),
(304,198,l),
(302,200,l),
(298,200,l),
(296,198,l),
(296,106,l),
(294,104,l),
(202,104,l),
(200,102,l),
(200,98,l),
(202,96,l),
(294,96,l),
(296,94,l),
(296,6,l),
(294,4,l),
(202,4,l),
(200,2,l),
(200,-2,l),
(202,-4,l),
(800,-4,l),
(804,0,l),
(804,598,l),
(802,600,l),
(798,600,l),
(796,598,l),
(796,506,l),
(794,504,l),
(706,504,l),
(704,506,l),
(704,598,l),
(702,600,l),
(698,600,l),
(696,598,l),
(696,506,l),
(694,504,l),
(606,504,l),
(604,506,l),
(604,598,l),
(602,600,l),
(598,600,l),
(596,598,l),
(596,506,l),
(594,504,l),
(506,504,l),
(504,506,l),
(504,598,l),
(502,600,l),
(498,600,l),
(496,598,l),
(496,506,l),
(494,504,l),
(406,504,l),
(404,506,l),
(404,598,l),
(402,600,l),
(398,600,l),
(396,598,l),
(396,506,l),
(394,504,l),
(306,504,l),
(304,506,l),
(304,598,l),
(302,600,l),
(298,600,l),
(296,598,l),
(296,506,l),
(294,504,l),
(202,504,l),
(200,502,l),
(200,498,l),
(202,496,l),
(294,496,l),
(296,494,l),
(296,402,l),
(298,400,l),
(302,400,l),
(304,402,l),
(304,494,l),
(306,496,l),
(394,496,l),
(396,494,l),
(396,402,l),
(398,400,l),
(402,400,l),
(404,402,l),
(404,494,l),
(406,496,l),
(494,496,l),
(496,494,l),
(496,402,l),
(498,400,l),
(502,400,l),
(504,402,l),
(504,494,l),
(506,496,l),
(594,496,l),
(596,494,l),
(596,400,l),
(600,396,l),
(694,396,l),
(696,394,l),
(696,306,l),
(694,304,l),
(602,304,l),
(600,302,l),
(600,298,l),
(602,296,l)
);
},
{
closed = 1;
nodes = (
(604,406,l),
(604,494,l),
(606,496,l),
(694,496,l),
(696,494,l),
(696,406,l),
(694,404,l),
(606,404,l)
);
},
{
closed = 1;
nodes = (
(304,6,l),
(304,94,l),
(306,96,l),
(394,96,l),
(396,94,l),
(396,6,l),
(394,4,l),
(306,4,l)
);
},
{
closed = 1;
nodes = (
(404,6,l),
(404,94,l),
(406,96,l),
(494,96,l),
(496,94,l),
(496,6,l),
(494,4,l),
(406,4,l)
);
},
{
closed = 1;
nodes = (
(504,6,l),
(504,94,l),
(506,96,l),
(594,96,l),
(596,94,l),
(596,6,l),
(594,4,l),
(506,4,l)
);
},
{
closed = 1;
nodes = (
(604,6,l),
(604,94,l),
(606,96,l),
(694,96,l),
(696,94,l),
(696,6,l),
(694,4,l),
(606,4,l)
);
},
{
closed = 1;
nodes = (
(604,106,l),
(604,194,l),
(606,196,l),
(694,196,l),
(696,194,l),
(696,106,l),
(694,104,l),
(606,104,l)
);
},
{
closed = 1;
nodes = (
(704,6,l),
(704,94,l),
(706,96,l),
(794,96,l),
(796,94,l),
(796,6,l),
(794,4,l),
(706,4,l)
);
},
{
closed = 1;
nodes = (
(704,106,l),
(704,194,l),
(706,196,l),
(794,196,l),
(796,194,l),
(796,106,l),
(794,104,l),
(706,104,l)
);
},
{
closed = 1;
nodes = (
(704,206,l),
(704,294,l),
(706,296,l),
(794,296,l),
(796,294,l),
(796,206,l),
(794,204,l),
(706,204,l)
);
},
{
closed = 1;
nodes = (
(704,306,l),
(704,394,l),
(706,396,l),
(794,396,l),
(796,394,l),
(796,306,l),
(794,304,l),
(706,304,l)
);
},
{
closed = 1;
nodes = (
(704,406,l),
(704,494,l),
(706,496,l),
(794,496,l),
(796,494,l),
(796,406,l),
(794,404,l),
(706,404,l)
);
},
{
closed = 1;
nodes = (
(594,304,l),
(596,306,l),
(596,392,l),
(592,396,l),
(506,396,l),
(504,394,l),
(504,306,l),
(506,304,l)
);
},
{
closed = 1;
nodes = (
(494,204,l),
(496,206,l),
(496,294,l),
(494,296,l),
(406,296,l),
(404,294,l),
(404,206,l),
(406,204,l)
);
},
{
closed = 1;
nodes = (
(494,304,l),
(496,306,l),
(496,394,l),
(494,396,l),
(406,396,l),
(404,394,l),
(404,306,l),
(406,304,l)
);
},
{
closed = 1;
nodes = (
(394,204,l),
(396,206,l),
(396,294,l),
(394,296,l),
(306,296,l),
(304,294,l),
(304,206,l),
(306,204,l)
);
},
{
closed = 1;
nodes = (
(394,304,l),
(396,306,l),
(396,394,l),
(394,396,l),
(306,396,l),
(304,394,l),
(304,306,l),
(306,304,l)
);
},
{
closed = 1;
nodes = (
(294,204,l),
(296,206,l),
(296,294,l),
(294,296,l),
(206,296,l),
(204,294,l),
(204,206,l),
(206,204,l)
);
},
{
closed = 1;
nodes = (
(294,304,l),
(296,306,l),
(296,394,l),
(294,396,l),
(206,396,l),
(204,394,l),
(204,306,l),
(206,304,l)
);
},
{
closed = 1;
nodes = (
(194,204,l),
(196,206,l),
(196,294,l),
(194,296,l),
(106,296,l),
(104,294,l),
(104,206,l),
(106,204,l)
);
},
{
closed = 1;
nodes = (
(194,304,l),
(196,306,l),
(196,394,l),
(194,396,l),
(106,396,l),
(104,394,l),
(104,306,l),
(106,304,l)
);
},
{
closed = 1;
nodes = (
(94,204,l),
(96,206,l),
(96,294,l),
(94,296,l),
(6,296,l),
(4,294,l),
(4,206,l),
(6,204,l)
);
},
{
closed = 1;
nodes = (
(94,304,l),
(96,306,l),
(96,394,l),
(94,396,l),
(6,396,l),
(4,394,l),
(4,306,l),
(6,304,l)
);
},
{
closed = 1;
nodes = (
(194,4,l),
(196,6,l),
(196,94,l),
(194,96,l),
(106,96,l),
(104,94,l),
(104,6,l),
(106,4,l)
);
},
{
closed = 1;
nodes = (
(194,104,l),
(196,106,l),
(196,194,l),
(194,196,l),
(106,196,l),
(104,194,l),
(104,106,l),
(106,104,l)
);
},
{
closed = 1;
nodes = (
(94,4,l),
(96,6,l),
(96,94,l),
(94,96,l),
(6,96,l),
(4,94,l),
(4,6,l),
(6,4,l)
);
},
{
closed = 1;
nodes = (
(94,104,l),
(96,106,l),
(96,194,l),
(94,196,l),
(6,196,l),
(4,194,l),
(4,106,l),
(6,104,l)
);
},
{
closed = 1;
nodes = (
(194,404,l),
(196,406,l),
(196,494,l),
(194,496,l),
(106,496,l),
(104,494,l),
(104,406,l),
(106,404,l)
);
},
{
closed = 1;
nodes = (
(194,504,l),
(196,506,l),
(196,594,l),
(194,596,l),
(106,596,l),
(104,594,l),
(104,506,l),
(106,504,l)
);
},
{
closed = 1;
nodes = (
(94,404,l),
(96,406,l),
(96,494,l),
(94,496,l),
(6,496,l),
(4,494,l),
(4,406,l),
(6,404,l)
);
},
{
closed = 1;
nodes = (
(94,504,l),
(96,506,l),
(96,594,l),
(94,596,l),
(6,596,l),
(4,594,l),
(4,506,l),
(6,504,l)
);
},
{
closed = 1;
nodes = (
(594,604,l),
(596,606,l),
(596,694,l),
(594,696,l),
(506,696,l),
(504,694,l),
(504,606,l),
(506,604,l)
);
},
{
closed = 1;
nodes = (
(594,704,l),
(596,706,l),
(596,794,l),
(594,796,l),
(506,796,l),
(504,794,l),
(504,706,l),
(506,704,l)
);
},
{
closed = 1;
nodes = (
(494,604,l),
(496,606,l),
(496,694,l),
(494,696,l),
(406,696,l),
(404,694,l),
(404,606,l),
(406,604,l)
);
},
{
closed = 1;
nodes = (
(494,704,l),
(496,706,l),
(496,794,l),
(494,796,l),
(406,796,l),
(404,794,l),
(404,706,l),
(406,704,l)
);
},
{
closed = 1;
nodes = (
(394,604,l),
(396,606,l),
(396,694,l),
(394,696,l),
(306,696,l),
(304,694,l),
(304,606,l),
(306,604,l)
);
},
{
closed = 1;
nodes = (
(394,704,l),
(396,706,l),
(396,794,l),
(394,796,l),
(306,796,l),
(304,794,l),
(304,706,l),
(306,704,l)
);
},
{
closed = 1;
nodes = (
(294,604,l),
(296,606,l),
(296,694,l),
(294,696,l),
(206,696,l),
(204,694,l),
(204,606,l),
(206,604,l)
);
},
{
closed = 1;
nodes = (
(294,704,l),
(296,706,l),
(296,794,l),
(294,796,l),
(206,796,l),
(204,794,l),
(204,706,l),
(206,704,l)
);
},
{
closed = 1;
nodes = (
(194,604,l),
(196,606,l),
(196,694,l),
(194,696,l),
(106,696,l),
(104,694,l),
(104,606,l),
(106,604,l)
);
},
{
closed = 1;
nodes = (
(194,704,l),
(196,706,l),
(196,794,l),
(194,796,l),
(106,796,l),
(104,794,l),
(104,706,l),
(106,704,l)
);
},
{
closed = 1;
nodes = (
(94,604,l),
(96,606,l),
(96,694,l),
(94,696,l),
(6,696,l),
(4,694,l),
(4,606,l),
(6,604,l)
);
},
{
closed = 1;
nodes = (
(94,704,l),
(96,706,l),
(96,794,l),
(94,796,l),
(6,796,l),
(4,794,l),
(4,706,l),
(6,704,l)
);
},
{
closed = 1;
nodes = (
(794,604,l),
(796,606,l),
(796,694,l),
(794,696,l),
(706,696,l),
(704,694,l),
(704,606,l),
(706,604,l)
);
},
{
closed = 1;
nodes = (
(794,704,l),
(796,706,l),
(796,794,l),
(794,796,l),
(706,796,l),
(704,794,l),
(704,706,l),
(706,704,l)
);
},
{
closed = 1;
nodes = (
(694,604,l),
(696,606,l),
(696,694,l),
(694,696,l),
(606,696,l),
(604,694,l),
(604,606,l),
(606,604,l)
);
},
{
closed = 1;
nodes = (
(694,704,l),
(696,706,l),
(696,794,l),
(694,796,l),
(606,796,l),
(604,794,l),
(604,706,l),
(606,704,l)
);
}
);
width = 800;
},
{
layerId = m002;
shapes = (
{
closed = 1;
nodes = (
(592,204,l),
(596,208,l),
(596,294,l),
(594,296,l),
(506,296,l),
(504,294,l),
(504,206,l),
(506,204,l)
);
},
{
closed = 1;
nodes = (
(694,296,l),
(696,294,l),
(696,206,l),
(694,204,l),
(600,204,l),
(596,200,l),
(596,106,l),
(594,104,l),
(506,104,l),
(504,106,l),
(504,198,l),
(502,200,l),
(498,200,l),
(496,198,l),
(496,106,l),
(494,104,l),
(406,104,l),
(404,106,l),
(404,198,l),
(402,200,l),
(398,200,l),
(396,198,l),
(396,106,l),
(394,104,l),
(306,104,l),
(304,106,l),
(304,198,l),
(302,200,l),
(298,200,l),
(296,198,l),
(296,106,l),
(294,104,l),
(202,104,l),
(200,102,l),
(200,98,l),
(202,96,l),
(294,96,l),
(296,94,l),
(296,6,l),
(294,4,l),
(202,4,l),
(200,2,l),
(200,-2,l),
(202,-4,l),
(800,-4,l),
(804,0,l),
(804,598,l),
(802,600,l),
(798,600,l),
(796,598,l),
(796,506,l),
(794,504,l),
(706,504,l),
(704,506,l),
(704,598,l),
(702,600,l),
(698,600,l),
(696,598,l),
(696,506,l),
(694,504,l),
(606,504,l),
(604,506,l),
(604,598,l),
(602,600,l),
(598,600,l),
(596,598,l),
(596,506,l),
(594,504,l),
(506,504,l),
(504,506,l),
(504,598,l),
(502,600,l),
(498,600,l),
(496,598,l),
(496,506,l),
(494,504,l),
(406,504,l),
(404,506,l),
(404,598,l),
(402,600,l),
(398,600,l),
(396,598,l),
(396,506,l),
(394,504,l),
(306,504,l),
(304,506,l),
(304,598,l),
(302,600,l),
(298,600,l),
(296,598,l),
(296,506,l),
(294,504,l),
(202,504,l),
(200,502,l),
(200,498,l),
(202,496,l),
(294,496,l),
(296,494,l),
(296,402,l),
(298,400,l),
(302,400,l),
(304,402,l),
(304,494,l),
(306,496,l),
(394,496,l),
(396,494,l),
(396,402,l),
(398,400,l),
(402,400,l),
(404,402,l),
(404,494,l),
(406,496,l),
(494,496,l),
(496,494,l),
(496,402,l),
(498,400,l),
(502,400,l),
(504,402,l),
(504,494,l),
(506,496,l),
(594,496,l),
(596,494,l),
(596,400,l),
(600,396,l),
(694,396,l),
(696,394,l),
(696,306,l),
(694,304,l),
(602,304,l),
(600,302,l),
(600,298,l),
(602,296,l)
);
},
{
closed = 1;
nodes = (
(604,406,l),
(604,494,l),
(606,496,l),
(694,496,l),
(696,494,l),
(696,406,l),
(694,404,l),
(606,404,l)
);
},
{
closed = 1;
nodes = (
(304,6,l),
(304,94,l),
(306,96,l),
(394,96,l),
(396,94,l),
(396,6,l),
(394,4,l),
(306,4,l)
);
},
{
closed = 1;
nodes = (
(404,6,l),
(404,94,l),
(406,96,l),
(494,96,l),
(496,94,l),
(496,6,l),
(494,4,l),
(406,4,l)
);
},
{
closed = 1;
nodes = (
(504,6,l),
(504,94,l),
(506,96,l),
(594,96,l),
(596,94,l),
(596,6,l),
(594,4,l),
(506,4,l)
);
},
{
closed = 1;
nodes = (
(604,6,l),
(604,94,l),
(606,96,l),
(694,96,l),
(696,94,l),
(696,6,l),
(694,4,l),
(606,4,l)
);
},
{
closed = 1;
nodes = (
(604,106,l),
(604,194,l),
(606,196,l),
(694,196,l),
(696,194,l),
(696,106,l),
(694,104,l),
(606,104,l)
);
},
{
closed = 1;
nodes = (
(704,6,l),
(704,94,l),
(706,96,l),
(794,96,l),
(796,94,l),
(796,6,l),
(794,4,l),
(706,4,l)
);
},
{
closed = 1;
nodes = (
(704,106,l),
(704,194,l),
(706,196,l),
(794,196,l),
(796,194,l),
(796,106,l),
(794,104,l),
(706,104,l)
);
},
{
closed = 1;
nodes = (
(704,206,l),
(704,294,l),
(706,296,l),
(794,296,l),
(796,294,l),
(796,206,l),
(794,204,l),
(706,204,l)
);
},
{
closed = 1;
nodes = (
(704,306,l),
(704,394,l),
(706,396,l),
(794,396,l),
(796,394,l),
(796,306,l),
(794,304,l),
(706,304,l)
);
},
{
closed = 1;
nodes = (
(704,406,l),
(704,494,l),
(706,496,l),
(794,496,l),
(796,494,l),
(796,406,l),
(794,404,l),
(706,404,l)
);
},
{
closed = 1;
nodes = (
(594,304,l),
(596,306,l),
(596,392,l),
(592,396,l),
(506,396,l),
(504,394,l),
(504,306,l),
(506,304,l)
);
},
{
closed = 1;
nodes = (
(494,204,l),
(496,206,l),
(496,294,l),
(494,296,l),
(406,296,l),
(404,294,l),
(404,206,l),
(406,204,l)
);
},
{
closed = 1;
nodes = (
(494,304,l),
(496,306,l),
(496,394,l),
(494,396,l),
(406,396,l),
(404,394,l),
(404,306,l),
(406,304,l)
);
},
{
closed = 1;
nodes = (
(394,204,l),
(396,206,l),
(396,294,l),
(394,296,l),
(306,296,l),
(304,294,l),
(304,206,l),
(306,204,l)
);
},
{
closed = 1;
nodes = (
(394,304,l),
(396,306,l),
(396,394,l),
(394,396,l),
(306,396,l),
(304,394,l),
(304,306,l),
(306,304,l)
);
},
{
closed = 1;
nodes = (
(294,204,l),
(296,206,l),
(296,294,l),
(294,296,l),
(206,296,l),
(204,294,l),
(204,206,l),
(206,204,l)
);
},
{
closed = 1;
nodes = (
(294,304,l),
(296,306,l),
(296,394,l),
(294,396,l),
(206,396,l),
(204,394,l),
(204,306,l),
(206,304,l)
);
},
{
closed = 1;
nodes = (
(194,204,l),
(196,206,l),
(196,294,l),
(194,296,l),
(106,296,l),
(104,294,l),
(104,206,l),
(106,204,l)
);
},
{
closed = 1;
nodes = (
(194,304,l),
(196,306,l),
(196,394,l),
(194,396,l),
(106,396,l),
(104,394,l),
(104,306,l),
(106,304,l)
);
},
{
closed = 1;
nodes = (
(94,204,l),
(96,206,l),
(96,294,l),
(94,296,l),
(6,296,l),
(4,294,l),
(4,206,l),
(6,204,l)
);
},
{
closed = 1;
nodes = (
(94,304,l),
(96,306,l),
(96,394,l),
(94,396,l),
(6,396,l),
(4,394,l),
(4,306,l),
(6,304,l)
);
},
{
closed = 1;
nodes = (
(194,4,l),
(196,6,l),
(196,94,l),
(194,96,l),
(106,96,l),
(104,94,l),
(104,6,l),
(106,4,l)
);
},
{
closed = 1;
nodes = (
(194,104,l),
(196,106,l),
(196,194,l),
(194,196,l),
(106,196,l),
(104,194,l),
(104,106,l),
(106,104,l)
);
},
{
closed = 1;
nodes = (
(94,4,l),
(96,6,l),
(96,94,l),
(94,96,l),
(6,96,l),
(4,94,l),
(4,6,l),
(6,4,l)
);
},
{
closed = 1;
nodes = (
(94,104,l),
(96,106,l),
(96,194,l),
(94,196,l),
(6,196,l),
(4,194,l),
(4,106,l),
(6,104,l)
);
},
{
closed = 1;
nodes = (
(194,404,l),
(196,406,l),
(196,494,l),
(194,496,l),
(106,496,l),
(104,494,l),
(104,406,l),
(106,404,l)
);
},
{
closed = 1;
nodes = (
(194,504,l),
(196,506,l),
(196,594,l),
(194,596,l),
(106,596,l),
(104,594,l),
(104,506,l),
(106,504,l)
);
},
{
closed = 1;
nodes = (
(94,404,l),
(96,406,l),
(96,494,l),
(94,496,l),
(6,496,l),
(4,494,l),
(4,406,l),
(6,404,l)
);
},
{
closed = 1;
nodes = (
(94,504,l),
(96,506,l),
(96,594,l),
(94,596,l),
(6,596,l),
(4,594,l),
(4,506,l),
(6,504,l)
);
},
{
closed = 1;
nodes = (
(594,604,l),
(596,606,l),
(596,694,l),
(594,696,l),
(506,696,l),
(504,694,l),
(504,606,l),
(506,604,l)
);
},
{
closed = 1;
nodes = (
(594,704,l),
(596,706,l),
(596,794,l),
(594,796,l),
(506,796,l),
(504,794,l),
(504,706,l),
(506,704,l)
);
},
{
closed = 1;
nodes = (
(494,604,l),
(496,606,l),
(496,694,l),
(494,696,l),
(406,696,l),
(404,694,l),
(404,606,l),
(406,604,l)
);
},
{
closed = 1;
nodes = (
(494,704,l),
(496,706,l),
(496,794,l),
(494,796,l),
(406,796,l),
(404,794,l),
(404,706,l),
(406,704,l)
);
},
{
closed = 1;
nodes = (
(394,604,l),
(396,606,l),
(396,694,l),
(394,696,l),
(306,696,l),
(304,694,l),
(304,606,l),
(306,604,l)
);
},
{
closed = 1;
nodes = (
(394,704,l),
(396,706,l),
(396,794,l),
(394,796,l),
(306,796,l),
(304,794,l),
(304,706,l),
(306,704,l)
);
},
{
closed = 1;
nodes = (
(294,604,l),
(296,606,l),
(296,694,l),
(294,696,l),
(206,696,l),
(204,694,l),
(204,606,l),
(206,604,l)
);
},
{
closed = 1;
nodes = (
(294,704,l),
(296,706,l),
(296,794,l),
(294,796,l),
(206,796,l),
(204,794,l),
(204,706,l),
(206,704,l)
);
},
{
closed = 1;
nodes = (
(194,604,l),
(196,606,l),
(196,694,l),
(194,696,l),
(106,696,l),
(104,694,l),
(104,606,l),
(106,604,l)
);
},
{
closed = 1;
nodes = (
(194,704,l),
(196,706,l),
(196,794,l),
(194,796,l),
(106,796,l),
(104,794,l),
(104,706,l),
(106,704,l)
);
},
{
closed = 1;
nodes = (
(94,604,l),
(96,606,l),
(96,694,l),
(94,696,l),
(6,696,l),
(4,694,l),
(4,606,l),
(6,604,l)
);
},
{
closed = 1;
nodes = (
(94,704,l),
(96,706,l),
(96,794,l),
(94,796,l),
(6,796,l),
(4,794,l),
(4,706,l),
(6,704,l)
);
},
{
closed = 1;
nodes = (
(794,604,l),
(796,606,l),
(796,694,l),
(794,696,l),
(706,696,l),
(704,694,l),
(704,606,l),
(706,604,l)
);
},
{
closed = 1;
nodes = (
(794,704,l),
(796,706,l),
(796,794,l),
(794,796,l),
(706,796,l),
(704,794,l),
(704,706,l),
(706,704,l)
);
},
{
closed = 1;
nodes = (
(694,604,l),
(696,606,l),
(696,694,l),
(694,696,l),
(606,696,l),
(604,694,l),
(604,606,l),
(606,604,l)
);
},
{
closed = 1;
nodes = (
(694,704,l),
(696,706,l),
(696,794,l),
(694,796,l),
(606,796,l),
(604,794,l),
(604,706,l),
(606,704,l)
);
}
);
width = 800;
}
);
unicode = 35;
},
{
color = 5;
glyphname = slash;
kernLeft = slash;
kernRight = slash;
lastChange = "2024-06-16 20:57:41 +0000";
layers = (
{
layerId = m01;
shapes = (
{
closed = 1;
nodes = (
(108,0,l),
(388,712,l),
(388,784,l),
(372,800,l),
(320,800,l),
(40,96,l),
(40,16,l),
(56,0,l)
);
}
);
width = 428;
},
{
layerId = m002;
shapes = (
{
closed = 1;
nodes = (
(44,-96,l),
(552,832,l),
(552,904,l),
(536,920,l),
(504,920,l),
(0,0,l),
(0,-80,l),
(16,-96,l)
);
}
);
width = 552;
}
);
unicode = 47;
},
{
color = 5;
glyphname = hyphen;
kernLeft = hyphen;
kernRight = hyphen;
lastChange = "2024-06-17 04:35:11 +0000";
layers = (
{
layerId = m01;
shapes = (
{
closed = 1;
nodes = (
(340,264,l),
(356,280,l),
(356,344,l),
(340,360,l),
(80,360,l),
(64,344,l),
(64,280,l),
(80,264,l)
);
}
);
width = 420;
},
{
layerId = m002;
shapes = (
{
closed = 1;
nodes = (
(292,256,l),
(308,272,l),
(308,336,l),
(292,352,l),
(32,352,l),
(16,336,l),
(16,272,l),
(32,256,l)
);
}
);
width = 324;
}
);
unicode = 45;
},
{
glyphname = emdash;
lastChange = "2024-06-09 16:12:29 +0000";
layers = (
{
layerId = m01;
shapes = (
{
closed = 1;
nodes = (
(928,320,l),
(944,336,l),
(944,400,l),
(928,416,l),
(32,416,l),
(16,400,l),
(16,336,l),
(32,320,l)
);
}
);
width = 960;
},
{
layerId = m002;
shapes = (
{
closed = 1;
nodes = (
(928,320,l),
(944,336,l),
(944,400,l),
(928,416,l),
(32,416,l),
(16,400,l),
(16,336,l),
(32,320,l)
);
}
);
width = 960;
}
);
unicode = 8212;
},
{
glyphname = quotesinglbase;
lastChange = "2024-06-09 16:12:29 +0000";
layers = (
{
layerId = m01;
shapes = (
{
closed = 1;
nodes = (
(144,0,l),
(160,16,l),
(160,112,l),
(144,128,l),
(48,128,l),
(32,112,l),
(32,16,l),
(48,0,l)
);
}
);
width = 192;
},
{
layerId = m002;
shapes = (
{
closed = 1;
nodes = (
(144,0,l),
(160,16,l),
(160,112,l),
(144,128,l),
(48,128,l),
(32,112,l),
(32,16,l),
(48,0,l)
);
}
);
width = 192;
}
);
unicode = 8218;
},
{
color = 5;
glyphname = quoteright;
kernLeft = quoteright;
kernRight = quoteright;
lastChange = "2024-06-09 16:12:29 +0000";
layers = (
{
layerId = m01;
shapes = (
{
closed = 1;
nodes = (
(80,684,l),
(92,672,l),
(92,640,o),
(80,624,o),
(48,624,c),
(32,608,l),
(32,592,l),
(48,576,l),
(112,576,o),
(152,608,o),
(152,672,cs),
(152,784,l),
(136,800,l),
(48,800,l),
(32,784,l),
(32,700,l),
(48,684,l)
);
}
);
width = 184;
},
{
layerId = m002;
shapes = (
{
closed = 1;
nodes = (
(80,684,l),
(92,672,l),
(92,640,o),
(80,624,o),
(48,624,c),
(32,608,l),
(32,592,l),
(48,576,l),
(112,576,o),
(152,608,o),
(152,672,cs),
(152,784,l),
(136,800,l),
(48,800,l),
(32,784,l),
(32,700,l),
(48,684,l)
);
}
);
width = 184;
}
);
unicode = 8217;
},
{
glyphname = at;
lastChange = "2024-06-09 16:12:29 +0000";
layers = (
{
layerId = m01;
shapes = (
{
closed = 1;
nodes = (
(94,704,l),
(96,706,l),
(96,794,l),
(94,796,l),
(4,796,l),
(4,792,l),
(4,706,l),
(6,704,l)
);
}
);
width = 600;
},
{
layerId = m002;
shapes = (
{
closed = 1;
nodes = (
(94,704,l),
(96,706,l),
(96,794,l),
(94,796,l),
(4,796,l),
(4,792,l),
(4,706,l),
(6,704,l)
);
}
);
width = 600;
}
);
unicode = 64;
},
{
glyphname = asciitilde;
lastChange = "2024-06-15 20:13:17 +0000";
layers = (
{
layerId = m01;
shapes = (
{
closed = 1;
nodes = (
(188,608,l),
(192,612,l),
(192,788,l),
(188,792,l),
(12,792,l),
(8,788,l),
(8,612,l),
(12,608,l)
);
},
{
closed = 1;
nodes = (
(388,408,l),
(392,412,l),
(392,588,l),
(388,592,l),
(212,592,l),
(208,588,l),
(208,412,l),
(212,408,l)
);
},
{
closed = 1;
nodes = (
(224,576,l),
(376,576,l),
(376,424,l),
(224,424,l)
);
},
{
closed = 1;
nodes = (
(388,608,l),
(392,612,l),
(392,788,l),
(388,792,l),
(212,792,l),
(208,788,l),
(208,612,l),
(212,608,l)
);
},
{
closed = 1;
nodes = (
(588,608,l),
(592,612,l),
(592,788,l),
(588,792,l),
(412,792,l),
(408,788,l),
(408,612,l),
(412,608,l)
);
},
{
closed = 1;
nodes = (
(788,608,l),
(792,612,l),
(792,788,l),
(788,792,l),
(612,792,l),
(608,788,l),
(608,612,l),
(612,608,l)
);
},
{
closed = 1;
nodes = (
(188,408,l),
(192,412,l),
(192,588,l),
(188,592,l),
(12,592,l),
(8,588,l),
(8,412,l),
(12,408,l)
);
},
{
closed = 1;
nodes = (
(588,408,l),
(592,412,l),
(592,588,l),
(588,592,l),
(412,592,l),
(408,588,l),
(408,412,l),
(412,408,l)
);
},
{
closed = 1;
nodes = (
(424,576,l),
(576,576,l),
(576,424,l),
(424,424,l)
);
},
{
closed = 1;
nodes = (
(788,408,l),
(792,412,l),
(792,588,l),
(788,592,l),
(612,592,l),
(608,588,l),
(608,412,l),
(612,408,l)
);
},
{
closed = 1;
nodes = (
(624,576,l),
(776,576,l),
(776,424,l),
(624,424,l)
);
},
{
closed = 1;
nodes = (
(788,208,l),
(792,212,l),
(792,388,l),
(788,392,l),
(612,392,l),
(608,388,l),
(608,212,l),
(612,208,l)
);
},
{
closed = 1;
nodes = (
(624,376,l),
(776,376,l),
(776,224,l),
(624,224,l)
);
},
{
closed = 1;
nodes = (
(388,8,l),
(392,12,l),
(392,188,l),
(388,192,l),
(212,192,l),
(208,188,l),
(208,12,l),
(212,8,l)
);
},
{
closed = 1;
nodes = (
(224,176,l),
(376,176,l),
(376,24,l),
(224,24,l)
);
},
{
closed = 1;
nodes = (
(588,8,l),
(592,12,l),
(592,188,l),
(588,192,l),
(412,192,l),
(408,188,l),
(408,12,l),
(412,8,l)
);
},
{
closed = 1;
nodes = (
(424,176,l),
(576,176,l),
(576,24,l),
(424,24,l)
);
},
{
closed = 1;
nodes = (
(788,8,l),
(792,12,l),
(792,188,l),
(788,192,l),
(612,192,l),
(608,188,l),
(608,12,l),
(612,8,l)
);
},
{
closed = 1;
nodes = (
(624,176,l),
(776,176,l),
(776,24,l),
(624,24,l)
);
},
{
closed = 1;
nodes = (
(188,208,l),
(192,212,l),
(192,388,l),
(188,392,l),
(12,392,l),
(8,388,l),
(8,212,l),
(12,208,l)
);
},
{
closed = 1;
nodes = (
(388,208,l),
(392,212,l),
(392,388,l),
(388,392,l),
(212,392,l),
(208,388,l),
(208,212,l),
(212,208,l)
);
},
{
closed = 1;
nodes = (
(588,208,l),
(592,212,l),
(592,388,l),
(588,392,l),
(412,392,l),
(408,388,l),
(408,212,l),
(412,208,l)
);
},
{
closed = 1;
nodes = (
(188,8,l),
(192,12,l),
(192,188,l),
(188,192,l),
(12,192,l),
(8,188,l),
(8,12,l),
(12,8,l)
);
}
);
width = 800;
},
{
layerId = m002;
shapes = (
{
closed = 1;
nodes = (
(188,608,l),
(192,612,l),
(192,788,l),
(188,792,l),
(12,792,l),
(8,788,l),
(8,612,l),
(12,608,l)
);
},
{
closed = 1;
nodes = (
(388,408,l),
(392,412,l),
(392,588,l),
(388,592,l),
(212,592,l),
(208,588,l),
(208,412,l),
(212,408,l)
);
},
{
closed = 1;
nodes = (
(224,576,l),
(376,576,l),
(376,424,l),
(224,424,l)
);
},
{
closed = 1;
nodes = (
(388,608,l),
(392,612,l),
(392,788,l),
(388,792,l),
(212,792,l),
(208,788,l),
(208,612,l),
(212,608,l)
);
},
{
closed = 1;
nodes = (
(588,608,l),
(592,612,l),
(592,788,l),
(588,792,l),
(412,792,l),
(408,788,l),
(408,612,l),
(412,608,l)
);
},
{
closed = 1;
nodes = (
(788,608,l),
(792,612,l),
(792,788,l),
(788,792,l),
(612,792,l),
(608,788,l),
(608,612,l),
(612,608,l)
);
},
{
closed = 1;
nodes = (
(188,408,l),
(192,412,l),
(192,588,l),
(188,592,l),
(12,592,l),
(8,588,l),
(8,412,l),
(12,408,l)
);
},
{
closed = 1;
nodes = (
(588,408,l),
(592,412,l),
(592,588,l),
(588,592,l),
(412,592,l),
(408,588,l),
(408,412,l),
(412,408,l)
);
},
{
closed = 1;
nodes = (
(424,576,l),
(576,576,l),
(576,424,l),
(424,424,l)
);
},
{
closed = 1;
nodes = (
(788,408,l),
(792,412,l),
(792,588,l),
(788,592,l),
(612,592,l),
(608,588,l),
(608,412,l),
(612,408,l)
);
},
{
closed = 1;
nodes = (
(624,576,l),
(776,576,l),
(776,424,l),
(624,424,l)
);
},
{
closed = 1;
nodes = (
(788,208,l),
(792,212,l),
(792,388,l),
(788,392,l),
(612,392,l),
(608,388,l),
(608,212,l),
(612,208,l)
);
},
{
closed = 1;
nodes = (
(624,376,l),
(776,376,l),
(776,224,l),
(624,224,l)
);
},
{
closed = 1;
nodes = (
(388,8,l),
(392,12,l),
(392,188,l),
(388,192,l),
(212,192,l),
(208,188,l),
(208,12,l),
(212,8,l)
);
},
{
closed = 1;
nodes = (
(224,176,l),
(376,176,l),
(376,24,l),
(224,24,l)
);
},
{
closed = 1;
nodes = (
(588,8,l),
(592,12,l),
(592,188,l),
(588,192,l),
(412,192,l),
(408,188,l),
(408,12,l),
(412,8,l)
);
},
{
closed = 1;
nodes = (
(424,176,l),
(576,176,l),
(576,24,l),
(424,24,l)
);
},
{
closed = 1;
nodes = (
(788,8,l),
(792,12,l),
(792,188,l),
(788,192,l),
(612,192,l),
(608,188,l),
(608,12,l),
(612,8,l)
);
},
{
closed = 1;
nodes = (
(624,176,l),
(776,176,l),
(776,24,l),
(624,24,l)
);
},
{
closed = 1;
nodes = (
(188,208,l),
(192,212,l),
(192,388,l),
(188,392,l),
(12,392,l),
(8,388,l),
(8,212,l),
(12,208,l)
);
},
{
closed = 1;
nodes = (
(388,208,l),
(392,212,l),
(392,388,l),
(388,392,l),
(212,392,l),
(208,388,l),
(208,212,l),
(212,208,l)
);
},
{
closed = 1;
nodes = (
(588,208,l),
(592,212,l),
(592,388,l),
(588,392,l),
(412,392,l),
(408,388,l),
(408,212,l),
(412,208,l)
);
},
{
closed = 1;
nodes = (
(188,8,l),
(192,12,l),
(192,188,l),
(188,192,l),
(12,192,l),
(8,188,l),
(8,12,l),
(12,8,l)
);
}
);
width = 800;
}
);
unicode = 126;
},
{
glyphname = asciicircum;
lastChange = "2024-06-14 22:12:06 +0000";
layers = (
{
layerId = m01;
shapes = (
{
closed = 1;
nodes = (
(88,808,l),
(92,812,l),
(92,888,l),
(88,892,l),
(12,892,l),
(8,888,l),
(8,812,l),
(12,808,l)
);
},
{
closed = 1;
nodes = (
(188,808,l),
(192,812,l),
(192,888,l),
(188,892,l),
(112,892,l),
(108,888,l),
(108,812,l),
(112,808,l)
);
},
{
closed = 1;
nodes = (
(288,808,l),
(292,812,l),
(292,888,l),
(288,892,l),
(212,892,l),
(208,888,l),
(208,812,l),
(212,808,l)
);
},
{
closed = 1;
nodes = (
(388,808,l),
(392,812,l),
(392,888,l),
(388,892,l),
(312,892,l),
(308,888,l),
(308,812,l),
(312,808,l)
);
},
{
closed = 1;
nodes = (
(488,808,l),
(492,812,l),
(492,888,l),
(488,892,l),
(412,892,l),
(408,888,l),
(408,812,l),
(412,808,l)
);
},
{
closed = 1;
nodes = (
(588,808,l),
(592,812,l),
(592,888,l),
(588,892,l),
(512,892,l),
(508,888,l),
(508,812,l),
(512,808,l)
);
},
{
closed = 1;
nodes = (
(688,808,l),
(692,812,l),
(692,888,l),
(688,892,l),
(612,892,l),
(608,888,l),
(608,812,l),
(612,808,l)
);
},
{
closed = 1;
nodes = (
(788,808,l),
(792,812,l),
(792,888,l),
(788,892,l),
(712,892,l),
(708,888,l),
(708,812,l),
(712,808,l)
);
},
{
closed = 1;
nodes = (
(88,708,l),
(92,712,l),
(92,788,l),
(88,792,l),
(12,792,l),
(8,788,l),
(8,712,l),
(12,708,l)
);
},
{
closed = 1;
nodes = (
(188,708,l),
(192,712,l),
(192,788,l),
(188,792,l),
(112,792,l),
(108,788,l),
(108,712,l),
(112,708,l)
);
},
{
closed = 1;
nodes = (
(288,708,l),
(292,712,l),
(292,788,l),
(288,792,l),
(212,792,l),
(208,788,l),
(208,712,l),
(212,708,l)
);
},
{
closed = 1;
nodes = (
(388,708,l),
(392,712,l),
(392,788,l),
(388,792,l),
(312,792,l),
(308,788,l),
(308,712,l),
(312,708,l)
);
},
{
closed = 1;
nodes = (
(488,708,l),
(492,712,l),
(492,788,l),
(488,792,l),
(412,792,l),
(408,788,l),
(408,712,l),
(412,708,l)
);
},
{
closed = 1;
nodes = (
(588,708,l),
(592,712,l),
(592,788,l),
(588,792,l),
(512,792,l),
(508,788,l),
(508,712,l),
(512,708,l)
);
},
{
closed = 1;
nodes = (
(688,708,l),
(692,712,l),
(692,788,l),
(688,792,l),
(612,792,l),
(608,788,l),
(608,712,l),
(612,708,l)
);
},
{
closed = 1;
nodes = (
(788,708,l),
(792,712,l),
(792,788,l),
(788,792,l),
(712,792,l),
(708,788,l),
(708,712,l),
(712,708,l)
);
},
{
closed = 1;
nodes = (
(88,608,l),
(92,612,l),
(92,688,l),
(88,692,l),
(12,692,l),
(8,688,l),
(8,612,l),
(12,608,l)
);
},
{
closed = 1;
nodes = (
(188,608,l),
(192,612,l),
(192,688,l),
(188,692,l),
(112,692,l),
(108,688,l),
(108,612,l),
(112,608,l)
);
},
{
closed = 1;
nodes = (
(88,508,l),
(92,512,l),
(92,588,l),
(88,592,l),
(12,592,l),
(8,588,l),
(8,512,l),
(12,508,l)
);
},
{
closed = 1;
nodes = (
(188,508,l),
(192,512,l),
(192,588,l),
(188,592,l),
(112,592,l),
(108,588,l),
(108,512,l),
(112,508,l)
);
},
{
closed = 1;
nodes = (
(288,608,l),
(292,612,l),
(292,688,l),
(288,692,l),
(212,692,l),
(208,688,l),
(208,612,l),
(212,608,l)
);
},
{
closed = 1;
nodes = (
(288,508,l),
(292,512,l),
(292,588,l),
(288,592,l),
(212,592,l),
(208,588,l),
(208,512,l),
(212,508,l)
);
},
{
closed = 1;
nodes = (
(216,584,l),
(284,584,l),
(284,516,l),
(216,516,l)
);
},
{
closed = 1;
nodes = (
(388,608,l),
(392,612,l),
(392,688,l),
(388,692,l),
(312,692,l),
(308,688,l),
(308,612,l),
(312,608,l)
);
},
{
closed = 1;
nodes = (
(388,508,l),
(392,512,l),
(392,588,l),
(388,592,l),
(312,592,l),
(308,588,l),
(308,512,l),
(312,508,l)
);
},
{
closed = 1;
nodes = (
(316,584,l),
(384,584,l),
(384,516,l),
(316,516,l)
);
},
{
closed = 1;
nodes = (
(488,608,l),
(492,612,l),
(492,688,l),
(488,692,l),
(412,692,l),
(408,688,l),
(408,612,l),
(412,608,l)
);
},
{
closed = 1;
nodes = (
(488,508,l),
(492,512,l),
(492,588,l),
(488,592,l),
(412,592,l),
(408,588,l),
(408,512,l),
(412,508,l)
);
},
{
closed = 1;
nodes = (
(416,684,l),
(484,684,l),
(484,616,l),
(416,616,l)
);
},
{
closed = 1;
nodes = (
(416,584,l),
(484,584,l),
(484,516,l),
(416,516,l)
);
},
{
closed = 1;
nodes = (
(588,608,l),
(592,612,l),
(592,688,l),
(588,692,l),
(512,692,l),
(508,688,l),
(508,612,l),
(512,608,l)
);
},
{
closed = 1;
nodes = (
(588,508,l),
(592,512,l),
(592,588,l),
(588,592,l),
(512,592,l),
(508,588,l),
(508,512,l),
(512,508,l)
);
},
{
closed = 1;
nodes = (
(516,684,l),
(584,684,l),
(584,616,l),
(516,616,l)
);
},
{
closed = 1;
nodes = (
(516,584,l),
(584,584,l),
(584,516,l),
(516,516,l)
);
},
{
closed = 1;
nodes = (
(688,608,l),
(692,612,l),
(692,688,l),
(688,692,l),
(612,692,l),
(608,688,l),
(608,612,l),
(612,608,l)
);
},
{
closed = 1;
nodes = (
(688,508,l),
(692,512,l),
(692,588,l),
(688,592,l),
(612,592,l),
(608,588,l),
(608,512,l),
(612,508,l)
);
},
{
closed = 1;
nodes = (
(616,684,l),
(684,684,l),
(684,616,l),
(616,616,l)
);
},
{
closed = 1;
nodes = (
(616,584,l),
(684,584,l),
(684,516,l),
(616,516,l)
);
},
{
closed = 1;
nodes = (
(788,608,l),
(792,612,l),
(792,688,l),
(788,692,l),
(712,692,l),
(708,688,l),
(708,612,l),
(712,608,l)
);
},
{
closed = 1;
nodes = (
(788,508,l),
(792,512,l),
(792,588,l),
(788,592,l),
(712,592,l),
(708,588,l),
(708,512,l),
(712,508,l)
);
},
{
closed = 1;
nodes = (
(716,684,l),
(784,684,l),
(784,616,l),
(716,616,l)
);
},
{
closed = 1;
nodes = (
(716,584,l),
(784,584,l),
(784,516,l),
(716,516,l)
);
},
{
closed = 1;
nodes = (
(88,408,l),
(92,412,l),
(92,488,l),
(88,492,l),
(12,492,l),
(8,488,l),
(8,412,l),
(12,408,l)
);
},
{
closed = 1;
nodes = (
(188,408,l),
(192,412,l),
(192,488,l),
(188,492,l),
(112,492,l),
(108,488,l),
(108,412,l),
(112,408,l)
);
},
{
closed = 1;
nodes = (
(288,408,l),
(292,412,l),
(292,488,l),
(288,492,l),
(212,492,l),
(208,488,l),
(208,412,l),
(212,408,l)
);
},
{
closed = 1;
nodes = (
(388,408,l),
(392,412,l),
(392,488,l),
(388,492,l),
(312,492,l),
(308,488,l),
(308,412,l),
(312,408,l)
);
},
{
closed = 1;
nodes = (
(488,408,l),
(492,412,l),
(492,488,l),
(488,492,l),
(412,492,l),
(408,488,l),
(408,412,l),
(412,408,l)
);
},
{
closed = 1;
nodes = (
(588,408,l),
(592,412,l),
(592,488,l),
(588,492,l),
(512,492,l),
(508,488,l),
(508,412,l),
(512,408,l)
);
},
{
closed = 1;
nodes = (
(88,308,l),
(92,312,l),
(92,388,l),
(88,392,l),
(12,392,l),
(8,388,l),
(8,312,l),
(12,308,l)
);
},
{
closed = 1;
nodes = (
(188,308,l),
(192,312,l),
(192,388,l),
(188,392,l),
(112,392,l),
(108,388,l),
(108,312,l),
(112,308,l)
);
},
{
closed = 1;
nodes = (
(288,308,l),
(292,312,l),
(292,388,l),
(288,392,l),
(212,392,l),
(208,388,l),
(208,312,l),
(212,308,l)
);
},
{
closed = 1;
nodes = (
(388,308,l),
(392,312,l),
(392,388,l),
(388,392,l),
(312,392,l),
(308,388,l),
(308,312,l),
(312,308,l)
);
},
{
closed = 1;
nodes = (
(488,308,l),
(492,312,l),
(492,388,l),
(488,392,l),
(412,392,l),
(408,388,l),
(408,312,l),
(412,308,l)
);
},
{
closed = 1;
nodes = (
(588,308,l),
(592,312,l),
(592,388,l),
(588,392,l),
(512,392,l),
(508,388,l),
(508,312,l),
(512,308,l)
);
},
{
closed = 1;
nodes = (
(688,408,l),
(692,412,l),
(692,488,l),
(688,492,l),
(612,492,l),
(608,488,l),
(608,412,l),
(612,408,l)
);
},
{
closed = 1;
nodes = (
(688,308,l),
(692,312,l),
(692,388,l),
(688,392,l),
(612,392,l),
(608,388,l),
(608,312,l),
(612,308,l)
);
},
{
closed = 1;
nodes = (
(788,408,l),
(792,412,l),
(792,488,l),
(788,492,l),
(712,492,l),
(708,488,l),
(708,412,l),
(712,408,l)
);
},
{
closed = 1;
nodes = (
(788,308,l),
(792,312,l),
(792,388,l),
(788,392,l),
(712,392,l),
(708,388,l),
(708,312,l),
(712,308,l)
);
},
{
closed = 1;
nodes = (
(716,484,l),
(784,484,l),
(784,416,l),
(716,416,l)
);
},
{
closed = 1;
nodes = (
(716,384,l),
(784,384,l),
(784,316,l),
(716,316,l)
);
},
{
closed = 1;
nodes = (
(88,208,l),
(92,212,l),
(92,288,l),
(88,292,l),
(12,292,l),
(8,288,l),
(8,212,l),
(12,208,l)
);
},
{
closed = 1;
nodes = (
(188,208,l),
(192,212,l),
(192,288,l),
(188,292,l),
(112,292,l),
(108,288,l),
(108,212,l),
(112,208,l)
);
},
{
closed = 1;
nodes = (
(88,108,l),
(92,112,l),
(92,188,l),
(88,192,l),
(12,192,l),
(8,188,l),
(8,112,l),
(12,108,l)
);
},
{
closed = 1;
nodes = (
(188,108,l),
(192,112,l),
(192,188,l),
(188,192,l),
(112,192,l),
(108,188,l),
(108,112,l),
(112,108,l)
);
},
{
closed = 1;
nodes = (
(288,208,l),
(292,212,l),
(292,288,l),
(288,292,l),
(212,292,l),
(208,288,l),
(208,212,l),
(212,208,l)
);
},
{
closed = 1;
nodes = (
(288,108,l),
(292,112,l),
(292,188,l),
(288,192,l),
(212,192,l),
(208,188,l),
(208,112,l),
(212,108,l)
);
},
{
closed = 1;
nodes = (
(216,284,l),
(284,284,l),
(284,216,l),
(216,216,l)
);
},
{
closed = 1;
nodes = (
(216,184,l),
(284,184,l),
(284,116,l),
(216,116,l)
);
},
{
closed = 1;
nodes = (
(388,208,l),
(392,212,l),
(392,288,l),
(388,292,l),
(312,292,l),
(308,288,l),
(308,212,l),
(312,208,l)
);
},
{
closed = 1;
nodes = (
(388,108,l),
(392,112,l),
(392,188,l),
(388,192,l),
(312,192,l),
(308,188,l),
(308,112,l),
(312,108,l)
);
},
{
closed = 1;
nodes = (
(316,284,l),
(384,284,l),
(384,216,l),
(316,216,l)
);
},
{
closed = 1;
nodes = (
(316,184,l),
(384,184,l),
(384,116,l),
(316,116,l)
);
},
{
closed = 1;
nodes = (
(488,208,l),
(492,212,l),
(492,288,l),
(488,292,l),
(412,292,l),
(408,288,l),
(408,212,l),
(412,208,l)
);
},
{
closed = 1;
nodes = (
(488,108,l),
(492,112,l),
(492,188,l),
(488,192,l),
(412,192,l),
(408,188,l),
(408,112,l),
(412,108,l)
);
},
{
closed = 1;
nodes = (
(416,284,l),
(484,284,l),
(484,216,l),
(416,216,l)
);
},
{
closed = 1;
nodes = (
(416,184,l),
(484,184,l),
(484,116,l),
(416,116,l)
);
},
{
closed = 1;
nodes = (
(588,208,l),
(592,212,l),
(592,288,l),
(588,292,l),
(512,292,l),
(508,288,l),
(508,212,l),
(512,208,l)
);
},
{
closed = 1;
nodes = (
(588,108,l),
(592,112,l),
(592,188,l),
(588,192,l),
(512,192,l),
(508,188,l),
(508,112,l),
(512,108,l)
);
},
{
closed = 1;
nodes = (
(516,284,l),
(584,284,l),
(584,216,l),
(516,216,l)
);
},
{
closed = 1;
nodes = (
(516,184,l),
(584,184,l),
(584,116,l),
(516,116,l)
);
},
{
closed = 1;
nodes = (
(688,208,l),
(692,212,l),
(692,288,l),
(688,292,l),
(612,292,l),
(608,288,l),
(608,212,l),
(612,208,l)
);
},
{
closed = 1;
nodes = (
(688,108,l),
(692,112,l),
(692,188,l),
(688,192,l),
(612,192,l),
(608,188,l),
(608,112,l),
(612,108,l)
);
},
{
closed = 1;
nodes = (
(616,284,l),
(684,284,l),
(684,216,l),
(616,216,l)
);
},
{
closed = 1;
nodes = (
(616,184,l),
(684,184,l),
(684,116,l),
(616,116,l)
);
},
{
closed = 1;
nodes = (
(788,208,l),
(792,212,l),
(792,288,l),
(788,292,l),
(712,292,l),
(708,288,l),
(708,212,l),
(712,208,l)
);
},
{
closed = 1;
nodes = (
(788,108,l),
(792,112,l),
(792,188,l),
(788,192,l),
(712,192,l),
(708,188,l),
(708,112,l),
(712,108,l)
);
},
{
closed = 1;
nodes = (
(716,284,l),
(784,284,l),
(784,216,l),
(716,216,l)
);
},
{
closed = 1;
nodes = (
(716,184,l),
(784,184,l),
(784,116,l),
(716,116,l)
);
},
{
closed = 1;
nodes = (
(88,8,l),
(92,12,l),
(92,88,l),
(88,92,l),
(12,92,l),
(8,88,l),
(8,12,l),
(12,8,l)
);
},
{
closed = 1;
nodes = (
(188,8,l),
(192,12,l),
(192,88,l),
(188,92,l),
(112,92,l),
(108,88,l),
(108,12,l),
(112,8,l)
);
},
{
closed = 1;
nodes = (
(288,8,l),
(292,12,l),
(292,88,l),
(288,92,l),
(212,92,l),
(208,88,l),
(208,12,l),
(212,8,l)
);
},
{
closed = 1;
nodes = (
(216,84,l),
(284,84,l),
(284,16,l),
(216,16,l)
);
},
{
closed = 1;
nodes = (
(388,8,l),
(392,12,l),
(392,88,l),
(388,92,l),
(312,92,l),
(308,88,l),
(308,12,l),
(312,8,l)
);
},
{
closed = 1;
nodes = (
(316,84,l),
(384,84,l),
(384,16,l),
(316,16,l)
);
},
{
closed = 1;
nodes = (
(488,8,l),
(492,12,l),
(492,88,l),
(488,92,l),
(412,92,l),
(408,88,l),
(408,12,l),
(412,8,l)
);
},
{
closed = 1;
nodes = (
(416,84,l),
(484,84,l),
(484,16,l),
(416,16,l)
);
},
{
closed = 1;
nodes = (
(588,8,l),
(592,12,l),
(592,88,l),
(588,92,l),
(512,92,l),
(508,88,l),
(508,12,l),
(512,8,l)
);
},
{
closed = 1;
nodes = (
(516,84,l),
(584,84,l),
(584,16,l),
(516,16,l)
);
},
{
closed = 1;
nodes = (
(688,8,l),
(692,12,l),
(692,88,l),
(688,92,l),
(612,92,l),
(608,88,l),
(608,12,l),
(612,8,l)
);
},
{
closed = 1;
nodes = (
(616,84,l),
(684,84,l),
(684,16,l),
(616,16,l)
);
},
{
closed = 1;
nodes = (
(788,8,l),
(792,12,l),
(792,88,l),
(788,92,l),
(712,92,l),
(708,88,l),
(708,12,l),
(712,8,l)
);
},
{
closed = 1;
nodes = (
(716,84,l),
(784,84,l),
(784,16,l),
(716,16,l)
);
},
{
closed = 1;
nodes = (
(216,684,l),
(284,684,l),
(284,616,l),
(216,616,l)
);
},
{
closed = 1;
nodes = (
(316,684,l),
(384,684,l),
(384,616,l),
(316,616,l)
);
}
);
width = 800;
},
{
layerId = m002;
shapes = (
{
closed = 1;
nodes = (
(88,808,l),
(92,812,l),
(92,888,l),
(88,892,l),
(12,892,l),
(8,888,l),
(8,812,l),
(12,808,l)
);
},
{
closed = 1;
nodes = (
(188,808,l),
(192,812,l),
(192,888,l),
(188,892,l),
(112,892,l),
(108,888,l),
(108,812,l),
(112,808,l)
);
},
{
closed = 1;
nodes = (
(288,808,l),
(292,812,l),
(292,888,l),
(288,892,l),
(212,892,l),
(208,888,l),
(208,812,l),
(212,808,l)
);
},
{
closed = 1;
nodes = (
(388,808,l),
(392,812,l),
(392,888,l),
(388,892,l),
(312,892,l),
(308,888,l),
(308,812,l),
(312,808,l)
);
},
{
closed = 1;
nodes = (
(488,808,l),
(492,812,l),
(492,888,l),
(488,892,l),
(412,892,l),
(408,888,l),
(408,812,l),
(412,808,l)
);
},
{
closed = 1;
nodes = (
(588,808,l),
(592,812,l),
(592,888,l),
(588,892,l),
(512,892,l),
(508,888,l),
(508,812,l),
(512,808,l)
);
},
{
closed = 1;
nodes = (
(688,808,l),
(692,812,l),
(692,888,l),
(688,892,l),
(612,892,l),
(608,888,l),
(608,812,l),
(612,808,l)
);
},
{
closed = 1;
nodes = (
(788,808,l),
(792,812,l),
(792,888,l),
(788,892,l),
(712,892,l),
(708,888,l),
(708,812,l),
(712,808,l)
);
},
{
closed = 1;
nodes = (
(88,708,l),
(92,712,l),
(92,788,l),
(88,792,l),
(12,792,l),
(8,788,l),
(8,712,l),
(12,708,l)
);
},
{
closed = 1;
nodes = (
(188,708,l),
(192,712,l),
(192,788,l),
(188,792,l),
(112,792,l),
(108,788,l),
(108,712,l),
(112,708,l)
);
},
{
closed = 1;
nodes = (
(288,708,l),
(292,712,l),
(292,788,l),
(288,792,l),
(212,792,l),
(208,788,l),
(208,712,l),
(212,708,l)
);
},
{
closed = 1;
nodes = (
(388,708,l),
(392,712,l),
(392,788,l),
(388,792,l),
(312,792,l),
(308,788,l),
(308,712,l),
(312,708,l)
);
},
{
closed = 1;
nodes = (
(488,708,l),
(492,712,l),
(492,788,l),
(488,792,l),
(412,792,l),
(408,788,l),
(408,712,l),
(412,708,l)
);
},
{
closed = 1;
nodes = (
(588,708,l),
(592,712,l),
(592,788,l),
(588,792,l),
(512,792,l),
(508,788,l),
(508,712,l),
(512,708,l)
);
},
{
closed = 1;
nodes = (
(688,708,l),
(692,712,l),
(692,788,l),
(688,792,l),
(612,792,l),
(608,788,l),
(608,712,l),
(612,708,l)
);
},
{
closed = 1;
nodes = (
(788,708,l),
(792,712,l),
(792,788,l),
(788,792,l),
(712,792,l),
(708,788,l),
(708,712,l),
(712,708,l)
);
},
{
closed = 1;
nodes = (
(88,608,l),
(92,612,l),
(92,688,l),
(88,692,l),
(12,692,l),
(8,688,l),
(8,612,l),
(12,608,l)
);
},
{
closed = 1;
nodes = (
(188,608,l),
(192,612,l),
(192,688,l),
(188,692,l),
(112,692,l),
(108,688,l),
(108,612,l),
(112,608,l)
);
},
{
closed = 1;
nodes = (
(88,508,l),
(92,512,l),
(92,588,l),
(88,592,l),
(12,592,l),
(8,588,l),
(8,512,l),
(12,508,l)
);
},
{
closed = 1;
nodes = (
(188,508,l),
(192,512,l),
(192,588,l),
(188,592,l),
(112,592,l),
(108,588,l),
(108,512,l),
(112,508,l)
);
},
{
closed = 1;
nodes = (
(288,608,l),
(292,612,l),
(292,688,l),
(288,692,l),
(212,692,l),
(208,688,l),
(208,612,l),
(212,608,l)
);
},
{
closed = 1;
nodes = (
(288,508,l),
(292,512,l),
(292,588,l),
(288,592,l),
(212,592,l),
(208,588,l),
(208,512,l),
(212,508,l)
);
},
{
closed = 1;
nodes = (
(216,584,l),
(284,584,l),
(284,516,l),
(216,516,l)
);
},
{
closed = 1;
nodes = (
(388,608,l),
(392,612,l),
(392,688,l),
(388,692,l),
(312,692,l),
(308,688,l),
(308,612,l),
(312,608,l)
);
},
{
closed = 1;
nodes = (
(388,508,l),
(392,512,l),
(392,588,l),
(388,592,l),
(312,592,l),
(308,588,l),
(308,512,l),
(312,508,l)
);
},
{
closed = 1;
nodes = (
(316,584,l),
(384,584,l),
(384,516,l),
(316,516,l)
);
},
{
closed = 1;
nodes = (
(488,608,l),
(492,612,l),
(492,688,l),
(488,692,l),
(412,692,l),
(408,688,l),
(408,612,l),
(412,608,l)
);
},
{
closed = 1;
nodes = (
(488,508,l),
(492,512,l),
(492,588,l),
(488,592,l),
(412,592,l),
(408,588,l),
(408,512,l),
(412,508,l)
);
},
{
closed = 1;
nodes = (
(416,684,l),
(484,684,l),
(484,616,l),
(416,616,l)
);
},
{
closed = 1;
nodes = (
(416,584,l),
(484,584,l),
(484,516,l),
(416,516,l)
);
},
{
closed = 1;
nodes = (
(588,608,l),
(592,612,l),
(592,688,l),
(588,692,l),
(512,692,l),
(508,688,l),
(508,612,l),
(512,608,l)
);
},
{
closed = 1;
nodes = (
(588,508,l),
(592,512,l),
(592,588,l),
(588,592,l),
(512,592,l),
(508,588,l),
(508,512,l),
(512,508,l)
);
},
{
closed = 1;
nodes = (
(516,684,l),
(584,684,l),
(584,616,l),
(516,616,l)
);
},
{
closed = 1;
nodes = (
(516,584,l),
(584,584,l),
(584,516,l),
(516,516,l)
);
},
{
closed = 1;
nodes = (
(688,608,l),
(692,612,l),
(692,688,l),
(688,692,l),
(612,692,l),
(608,688,l),
(608,612,l),
(612,608,l)
);
},
{
closed = 1;
nodes = (
(688,508,l),
(692,512,l),
(692,588,l),
(688,592,l),
(612,592,l),
(608,588,l),
(608,512,l),
(612,508,l)
);
},
{
closed = 1;
nodes = (
(616,684,l),
(684,684,l),
(684,616,l),
(616,616,l)
);
},
{
closed = 1;
nodes = (
(616,584,l),
(684,584,l),
(684,516,l),
(616,516,l)
);
},
{
closed = 1;
nodes = (
(788,608,l),
(792,612,l),
(792,688,l),
(788,692,l),
(712,692,l),
(708,688,l),
(708,612,l),
(712,608,l)
);
},
{
closed = 1;
nodes = (
(788,508,l),
(792,512,l),
(792,588,l),
(788,592,l),
(712,592,l),
(708,588,l),
(708,512,l),
(712,508,l)
);
},
{
closed = 1;
nodes = (
(716,684,l),
(784,684,l),
(784,616,l),
(716,616,l)
);
},
{
closed = 1;
nodes = (
(716,584,l),
(784,584,l),
(784,516,l),
(716,516,l)
);
},
{
closed = 1;
nodes = (
(88,408,l),
(92,412,l),
(92,488,l),
(88,492,l),
(12,492,l),
(8,488,l),
(8,412,l),
(12,408,l)
);
},
{
closed = 1;
nodes = (
(188,408,l),
(192,412,l),
(192,488,l),
(188,492,l),
(112,492,l),
(108,488,l),
(108,412,l),
(112,408,l)
);
},
{
closed = 1;
nodes = (
(288,408,l),
(292,412,l),
(292,488,l),
(288,492,l),
(212,492,l),
(208,488,l),
(208,412,l),
(212,408,l)
);
},
{
closed = 1;
nodes = (
(388,408,l),
(392,412,l),
(392,488,l),
(388,492,l),
(312,492,l),
(308,488,l),
(308,412,l),
(312,408,l)
);
},
{
closed = 1;
nodes = (
(488,408,l),
(492,412,l),
(492,488,l),
(488,492,l),
(412,492,l),
(408,488,l),
(408,412,l),
(412,408,l)
);
},
{
closed = 1;
nodes = (
(588,408,l),
(592,412,l),
(592,488,l),
(588,492,l),
(512,492,l),
(508,488,l),
(508,412,l),
(512,408,l)
);
},
{
closed = 1;
nodes = (
(88,308,l),
(92,312,l),
(92,388,l),
(88,392,l),
(12,392,l),
(8,388,l),
(8,312,l),
(12,308,l)
);
},
{
closed = 1;
nodes = (
(188,308,l),
(192,312,l),
(192,388,l),
(188,392,l),
(112,392,l),
(108,388,l),
(108,312,l),
(112,308,l)
);
},
{
closed = 1;
nodes = (
(288,308,l),
(292,312,l),
(292,388,l),
(288,392,l),
(212,392,l),
(208,388,l),
(208,312,l),
(212,308,l)
);
},
{
closed = 1;
nodes = (
(388,308,l),
(392,312,l),
(392,388,l),
(388,392,l),
(312,392,l),
(308,388,l),
(308,312,l),
(312,308,l)
);
},
{
closed = 1;
nodes = (
(488,308,l),
(492,312,l),
(492,388,l),
(488,392,l),
(412,392,l),
(408,388,l),
(408,312,l),
(412,308,l)
);
},
{
closed = 1;
nodes = (
(588,308,l),
(592,312,l),
(592,388,l),
(588,392,l),
(512,392,l),
(508,388,l),
(508,312,l),
(512,308,l)
);
},
{
closed = 1;
nodes = (
(688,408,l),
(692,412,l),
(692,488,l),
(688,492,l),
(612,492,l),
(608,488,l),
(608,412,l),
(612,408,l)
);
},
{
closed = 1;
nodes = (
(688,308,l),
(692,312,l),
(692,388,l),
(688,392,l),
(612,392,l),
(608,388,l),
(608,312,l),
(612,308,l)
);
},
{
closed = 1;
nodes = (
(788,408,l),
(792,412,l),
(792,488,l),
(788,492,l),
(712,492,l),
(708,488,l),
(708,412,l),
(712,408,l)
);
},
{
closed = 1;
nodes = (
(788,308,l),
(792,312,l),
(792,388,l),
(788,392,l),
(712,392,l),
(708,388,l),
(708,312,l),
(712,308,l)
);
},
{
closed = 1;
nodes = (
(716,484,l),
(784,484,l),
(784,416,l),
(716,416,l)
);
},
{
closed = 1;
nodes = (
(716,384,l),
(784,384,l),
(784,316,l),
(716,316,l)
);
},
{
closed = 1;
nodes = (
(88,208,l),
(92,212,l),
(92,288,l),
(88,292,l),
(12,292,l),
(8,288,l),
(8,212,l),
(12,208,l)
);
},
{
closed = 1;
nodes = (
(188,208,l),
(192,212,l),
(192,288,l),
(188,292,l),
(112,292,l),
(108,288,l),
(108,212,l),
(112,208,l)
);
},
{
closed = 1;
nodes = (
(88,108,l),
(92,112,l),
(92,188,l),
(88,192,l),
(12,192,l),
(8,188,l),
(8,112,l),
(12,108,l)
);
},
{
closed = 1;
nodes = (
(188,108,l),
(192,112,l),
(192,188,l),
(188,192,l),
(112,192,l),
(108,188,l),
(108,112,l),
(112,108,l)
);
},
{
closed = 1;
nodes = (
(288,208,l),
(292,212,l),
(292,288,l),
(288,292,l),
(212,292,l),
(208,288,l),
(208,212,l),
(212,208,l)
);
},
{
closed = 1;
nodes = (
(288,108,l),
(292,112,l),
(292,188,l),
(288,192,l),
(212,192,l),
(208,188,l),
(208,112,l),
(212,108,l)
);
},
{
closed = 1;
nodes = (
(216,284,l),
(284,284,l),
(284,216,l),
(216,216,l)
);
},
{
closed = 1;
nodes = (
(216,184,l),
(284,184,l),
(284,116,l),
(216,116,l)
);
},
{
closed = 1;
nodes = (
(388,208,l),
(392,212,l),
(392,288,l),
(388,292,l),
(312,292,l),
(308,288,l),
(308,212,l),
(312,208,l)
);
},
{
closed = 1;
nodes = (
(388,108,l),
(392,112,l),
(392,188,l),
(388,192,l),
(312,192,l),
(308,188,l),
(308,112,l),
(312,108,l)
);
},
{
closed = 1;
nodes = (
(316,284,l),
(384,284,l),
(384,216,l),
(316,216,l)
);
},
{
closed = 1;
nodes = (
(316,184,l),
(384,184,l),
(384,116,l),
(316,116,l)
);
},
{
closed = 1;
nodes = (
(488,208,l),
(492,212,l),
(492,288,l),
(488,292,l),
(412,292,l),
(408,288,l),
(408,212,l),
(412,208,l)
);
},
{
closed = 1;
nodes = (
(488,108,l),
(492,112,l),
(492,188,l),
(488,192,l),
(412,192,l),
(408,188,l),
(408,112,l),
(412,108,l)
);
},
{
closed = 1;
nodes = (
(416,284,l),
(484,284,l),
(484,216,l),
(416,216,l)
);
},
{
closed = 1;
nodes = (
(416,184,l),
(484,184,l),
(484,116,l),
(416,116,l)
);
},
{
closed = 1;
nodes = (
(588,208,l),
(592,212,l),
(592,288,l),
(588,292,l),
(512,292,l),
(508,288,l),
(508,212,l),
(512,208,l)
);
},
{
closed = 1;
nodes = (
(588,108,l),
(592,112,l),
(592,188,l),
(588,192,l),
(512,192,l),
(508,188,l),
(508,112,l),
(512,108,l)
);
},
{
closed = 1;
nodes = (
(516,284,l),
(584,284,l),
(584,216,l),
(516,216,l)
);
},
{
closed = 1;
nodes = (
(516,184,l),
(584,184,l),
(584,116,l),
(516,116,l)
);
},
{
closed = 1;
nodes = (
(688,208,l),
(692,212,l),
(692,288,l),
(688,292,l),
(612,292,l),
(608,288,l),
(608,212,l),
(612,208,l)
);
},
{
closed = 1;
nodes = (
(688,108,l),
(692,112,l),
(692,188,l),
(688,192,l),
(612,192,l),
(608,188,l),
(608,112,l),
(612,108,l)
);
},
{
closed = 1;
nodes = (
(616,284,l),
(684,284,l),
(684,216,l),
(616,216,l)
);
},
{
closed = 1;
nodes = (
(616,184,l),
(684,184,l),
(684,116,l),
(616,116,l)
);
},
{
closed = 1;
nodes = (
(788,208,l),
(792,212,l),
(792,288,l),
(788,292,l),
(712,292,l),
(708,288,l),
(708,212,l),
(712,208,l)
);
},
{
closed = 1;
nodes = (
(788,108,l),
(792,112,l),
(792,188,l),
(788,192,l),
(712,192,l),
(708,188,l),
(708,112,l),
(712,108,l)
);
},
{
closed = 1;
nodes = (
(716,284,l),
(784,284,l),
(784,216,l),
(716,216,l)
);
},
{
closed = 1;
nodes = (
(716,184,l),
(784,184,l),
(784,116,l),
(716,116,l)
);
},
{
closed = 1;
nodes = (
(88,8,l),
(92,12,l),
(92,88,l),
(88,92,l),
(12,92,l),
(8,88,l),
(8,12,l),
(12,8,l)
);
},
{
closed = 1;
nodes = (
(188,8,l),
(192,12,l),
(192,88,l),
(188,92,l),
(112,92,l),
(108,88,l),
(108,12,l),
(112,8,l)
);
},
{
closed = 1;
nodes = (
(288,8,l),
(292,12,l),
(292,88,l),
(288,92,l),
(212,92,l),
(208,88,l),
(208,12,l),
(212,8,l)
);
},
{
closed = 1;
nodes = (
(216,84,l),
(284,84,l),
(284,16,l),
(216,16,l)
);
},
{
closed = 1;
nodes = (
(388,8,l),
(392,12,l),
(392,88,l),
(388,92,l),
(312,92,l),
(308,88,l),
(308,12,l),
(312,8,l)
);
},
{
closed = 1;
nodes = (
(316,84,l),
(384,84,l),
(384,16,l),
(316,16,l)
);
},
{
closed = 1;
nodes = (
(488,8,l),
(492,12,l),
(492,88,l),
(488,92,l),
(412,92,l),
(408,88,l),
(408,12,l),
(412,8,l)
);
},
{
closed = 1;
nodes = (
(416,84,l),
(484,84,l),
(484,16,l),
(416,16,l)
);
},
{
closed = 1;
nodes = (
(588,8,l),
(592,12,l),
(592,88,l),
(588,92,l),
(512,92,l),
(508,88,l),
(508,12,l),
(512,8,l)
);
},
{
closed = 1;
nodes = (
(516,84,l),
(584,84,l),
(584,16,l),
(516,16,l)
);
},
{
closed = 1;
nodes = (
(688,8,l),
(692,12,l),
(692,88,l),
(688,92,l),
(612,92,l),
(608,88,l),
(608,12,l),
(612,8,l)
);
},
{
closed = 1;
nodes = (
(616,84,l),
(684,84,l),
(684,16,l),
(616,16,l)
);
},
{
closed = 1;
nodes = (
(788,8,l),
(792,12,l),
(792,88,l),
(788,92,l),
(712,92,l),
(708,88,l),
(708,12,l),
(712,8,l)
);
},
{
closed = 1;
nodes = (
(716,84,l),
(784,84,l),
(784,16,l),
(716,16,l)
);
},
{
closed = 1;
nodes = (
(216,684,l),
(284,684,l),
(284,616,l),
(216,616,l)
);
},
{
closed = 1;
nodes = (
(316,684,l),
(384,684,l),
(384,616,l),
(316,616,l)
);
}
);
width = 800;
}
);
unicode = 94;
},
